<svg width="17" height="16" viewBox="0 0 17 16" fill="none" xmlns="http://www.w3.org/2000/svg">
<path d="M13.2432 5.22017C13.3837 5.3608 13.4625 5.55142 13.4625 5.75017C13.4625 5.94892 13.3837 6.13955 13.2432 6.28017L8.9932 10.5302C8.85257 10.6706 8.66195 10.7495 8.4632 10.7495C8.26445 10.7495 8.07383 10.6706 7.9332 10.5302L3.6832 6.28017C3.6136 6.21057 3.55839 6.12794 3.52072 6.037C3.48305 5.94607 3.46367 5.8486 3.46367 5.75017C3.46367 5.65174 3.48305 5.55427 3.52072 5.46334C3.55839 5.3724 3.6136 5.28977 3.6832 5.22017C3.7528 5.15057 3.83543 5.09536 3.92637 5.05769C4.0173 5.02002 4.11477 5.00064 4.2132 5.00064C4.31163 5.00064 4.4091 5.02002 4.50003 5.05769C4.59097 5.09536 4.6736 5.15057 4.7432 5.22017L8.4632 8.93917L12.1832 5.22017C12.3238 5.07972 12.5144 5.00083 12.7132 5.00083C12.912 5.00083 13.1026 5.07972 13.2432 5.22017Z" fill="#B3C0DE"/>
</svg>
