<svg width="99" height="76" viewBox="0 0 99 76" fill="none" xmlns="http://www.w3.org/2000/svg">
<g filter="url(#filter0_bd_2015_107)">
<path d="M82.2164 5.92979C76.2868 3.16562 69.8668 1.15937 63.1793 0.000205075C63.1207 -0.00167011 63.0623 0.00933342 63.0084 0.0324422C62.9545 0.055551 62.9063 0.0902038 62.8672 0.133956C62.0647 1.60521 61.1285 3.52229 60.5043 4.99354C53.4111 3.92354 46.1975 3.92354 39.1043 4.99354C38.4801 3.4777 37.5439 1.60521 36.6968 0.133956C36.6522 0.0447893 36.5185 0.000205075 36.3847 0.000205075C29.6972 1.15937 23.3218 3.16562 17.3476 5.92979C17.3031 5.92979 17.2585 5.97437 17.2139 6.01895C5.08723 24.1644 1.74348 41.8194 3.39306 59.296C3.39306 59.3852 3.43765 59.4744 3.52681 59.519C11.5518 65.404 19.2647 68.9706 26.8885 71.3335C27.0222 71.3781 27.156 71.3335 27.2006 71.2444C28.9839 68.7923 30.5889 66.2064 31.971 63.4869C32.0601 63.3085 31.971 63.1302 31.7926 63.0856C29.2514 62.1048 26.8439 60.9456 24.481 59.6081C24.3026 59.519 24.3026 59.2515 24.4364 59.1177C24.9268 58.761 25.4172 58.3598 25.9076 58.0031C25.9968 57.914 26.1306 57.9139 26.2197 57.9585C41.5564 64.9581 58.0968 64.9581 73.2551 57.9585C73.3443 57.9139 73.4781 57.914 73.5672 58.0031C74.0576 58.4044 74.5481 58.761 75.0385 59.1623C75.2168 59.296 75.2168 59.5635 74.9939 59.6527C72.6756 61.0348 70.2235 62.1494 67.6822 63.1302C67.5039 63.1748 67.4593 63.3977 67.5039 63.5314C68.9306 66.251 70.5356 68.8369 72.2743 71.2889C72.4081 71.3335 72.5418 71.3781 72.6756 71.3335C80.3439 68.9706 88.0568 65.404 96.0818 59.519C96.171 59.4744 96.2156 59.3852 96.2156 59.296C98.1772 39.0998 92.961 21.5785 82.3947 6.01895C82.3501 5.97437 82.3056 5.92979 82.2164 5.92979ZM34.2893 48.6406C29.6972 48.6406 25.8631 44.4052 25.8631 39.189C25.8631 33.9727 29.6081 29.7373 34.2893 29.7373C39.0151 29.7373 42.7601 34.0173 42.7156 39.189C42.7156 44.4052 38.9706 48.6406 34.2893 48.6406ZM65.3639 48.6406C60.7718 48.6406 56.9376 44.4052 56.9376 39.189C56.9376 33.9727 60.6826 29.7373 65.3639 29.7373C70.0897 29.7373 73.8347 34.0173 73.7901 39.189C73.7901 44.4052 70.0897 48.6406 65.3639 48.6406Z" fill="url(#paint0_linear_2015_107)" fill-opacity="0.35" shape-rendering="crispEdges"/>
<path d="M82.0051 6.38297L82.0524 6.40499C92.495 21.8267 97.6479 39.171 95.7264 59.1595C87.7864 64.9719 80.1574 68.5005 72.571 70.8425C70.9338 68.5205 69.4184 66.0793 68.0625 63.519C70.5407 62.5539 72.9431 61.4548 75.2235 60.0979C75.4894 59.9735 75.6497 59.7263 75.6658 59.4536C75.6814 59.1876 75.5592 58.9331 75.3487 58.7701C75.1003 58.5671 74.8528 58.3758 74.6114 58.1892L74.6086 58.1871C74.3675 58.0008 74.1325 57.8192 73.8984 57.628C73.6287 57.3786 73.2697 57.3965 73.0407 57.5068C58.0192 64.4416 41.6352 64.4427 26.4328 57.5062C26.2074 57.3982 25.8568 57.3797 25.5893 57.6164C25.3463 57.7939 25.1045 57.9807 24.869 58.1627L24.8663 58.1648C24.62 58.3551 24.3806 58.54 24.1423 58.7133L24.1106 58.7364L24.0828 58.7641C23.9033 58.9437 23.8296 59.1891 23.8425 59.409C23.8556 59.6316 23.9664 59.9025 24.2431 60.048C26.5615 61.3598 28.9248 62.5026 31.4153 63.4755C30.0972 66.0404 28.5782 68.4861 26.8962 70.8123C19.3855 68.4701 11.7882 64.9469 3.88246 59.1597C2.26512 41.8443 5.58191 24.3599 17.5779 6.37416C23.4677 3.65116 29.7502 1.66943 36.3393 0.51566C37.1566 1.94936 38.0457 3.73594 38.642 5.18391L38.7912 5.54642L39.1789 5.48794C46.2227 4.4254 53.386 4.4254 60.4297 5.48794L60.8132 5.54578L60.9646 5.18881C61.5617 3.78134 62.4508 1.95458 63.2286 0.516317C69.8252 1.67165 76.1564 3.65649 82.0051 6.38297ZM25.3631 39.1889C25.3631 44.6282 29.3708 49.1406 34.2893 49.1406C39.2996 49.1406 43.2146 44.6257 43.2156 39.191C43.261 33.7969 39.3437 29.2373 34.2893 29.2373C29.2784 29.2373 25.3631 33.7533 25.3631 39.1889ZM56.4376 39.1889C56.4376 44.6282 60.4453 49.1406 65.3639 49.1406L73.7901 39.1889L74.2901 39.1933C74.2901 39.1927 74.2901 39.1921 74.2901 39.1915C74.3358 33.7971 70.4184 29.2373 65.3639 29.2373C60.3529 29.2373 56.4376 33.7533 56.4376 39.1889Z" stroke="url(#paint1_linear_2015_107)" stroke-opacity="0.5" shape-rendering="crispEdges"/>
</g>
<defs>
<filter id="filter0_bd_2015_107" x="0.701149" y="-2.29885" width="98.2201" height="78.2486" filterUnits="userSpaceOnUse" color-interpolation-filters="sRGB">
<feFlood flood-opacity="0" result="BackgroundImageFix"/>
<feGaussianBlur in="BackgroundImageFix" stdDeviation="1.14943"/>
<feComposite in2="SourceAlpha" operator="in" result="effect1_backgroundBlur_2015_107"/>
<feColorMatrix in="SourceAlpha" type="matrix" values="0 0 0 0 0 0 0 0 0 0 0 0 0 0 0 0 0 0 127 0" result="hardAlpha"/>
<feOffset dy="2.29885"/>
<feGaussianBlur stdDeviation="1.14943"/>
<feComposite in2="hardAlpha" operator="out"/>
<feColorMatrix type="matrix" values="0 0 0 0 0 0 0 0 0 0 0 0 0 0 0 0 0 0 0.25 0"/>
<feBlend mode="normal" in2="effect1_backgroundBlur_2015_107" result="effect2_dropShadow_2015_107"/>
<feBlend mode="normal" in="SourceGraphic" in2="effect2_dropShadow_2015_107" result="shape"/>
</filter>
<linearGradient id="paint0_linear_2015_107" x1="49.8112" y1="-19.1593" x2="49.8112" y2="71.352" gradientUnits="userSpaceOnUse">
<stop stop-color="#598FFF"/>
<stop offset="1" stop-color="#365699"/>
</linearGradient>
<linearGradient id="paint1_linear_2015_107" x1="15.6334" y1="-2.14915" x2="75.5526" y2="68.6099" gradientUnits="userSpaceOnUse">
<stop stop-color="#598FFF"/>
<stop offset="0.5" stop-color="#B3C1DE" stop-opacity="0.2"/>
<stop offset="1" stop-color="#598FFF"/>
</linearGradient>
</defs>
</svg>
