<svg width="55" height="44" viewBox="0 0 55 44" fill="none" xmlns="http://www.w3.org/2000/svg">
<g filter="url(#filter0_bd_1_576)">
<path d="M48.0714 24.3286H44.0428V28.9571H45.0628C45.4461 28.9571 45.7571 29.2175 45.7571 29.5357V30.6929C45.7571 31.0111 45.4461 31.2714 45.0628 31.2714H9.42283C9.03953 31.2714 8.72855 31.0111 8.72855 30.6929V29.5357C8.72855 29.2175 9.03953 28.9571 9.42283 28.9571H10.4428V24.3286H6.41426C5.13417 24.3286 4.09998 25.3628 4.09998 26.6429V33.5857C4.09998 34.8658 5.13417 35.9 6.41426 35.9H48.0714C49.3515 35.9 50.3857 34.8658 50.3857 33.5857V26.6429C50.3857 25.3628 49.3515 24.3286 48.0714 24.3286ZM41.1285 28.9571V5.83598C41.1285 4.54143 40.0799 3.5 38.7926 3.5H15.7003C14.4058 3.5 13.3571 4.54866 13.3571 5.83598V28.9571H41.1285ZM19.3743 15.7946L21.2185 13.9649C21.5222 13.6612 22.014 13.6612 22.3177 13.9721L25.3046 16.9807L32.1896 10.1536C32.4934 9.84982 32.9852 9.84982 33.2889 10.1608L35.1186 12.005C35.4224 12.3088 35.4224 12.8005 35.1114 13.1043L25.8326 22.3036C25.5288 22.6073 25.037 22.6073 24.7333 22.2963L19.3743 16.8939C19.0633 16.5902 19.0705 16.0984 19.3743 15.7946Z" fill="url(#paint0_linear_1_576)" fill-opacity="0.3" shape-rendering="crispEdges"/>
<path d="M19.163 15.5817L19.1621 15.5825C18.7451 15.9996 18.73 16.682 19.1628 17.1067L24.5187 22.506C24.519 22.5063 24.5193 22.5066 24.5196 22.5069C24.9405 22.9368 25.6231 22.9367 26.0442 22.5162C26.0444 22.516 26.0445 22.5159 26.0447 22.5157L35.321 13.3189C35.3213 13.3186 35.3216 13.3184 35.3218 13.3181C35.7519 12.8972 35.7519 12.2145 35.3313 11.7934C35.3311 11.7932 35.3309 11.793 35.3308 11.7929L33.5035 9.95118C33.5032 9.95089 33.5029 9.9506 33.5027 9.9503C33.0818 9.52035 32.3992 9.52038 31.9781 9.94083C31.9779 9.94103 31.9777 9.94124 31.9775 9.94144L25.3063 16.5566L22.5324 13.7625C22.532 13.7622 22.5317 13.7619 22.5314 13.7616C22.1105 13.3317 21.4279 13.3317 21.0068 13.7523C21.0067 13.7524 21.0065 13.7526 21.0063 13.7528L19.163 15.5817ZM44.3428 28.6571V24.6286H48.0714C49.1858 24.6286 50.0857 25.5285 50.0857 26.6429V33.5857C50.0857 34.7001 49.1858 35.6 48.0714 35.6H6.41426C5.29986 35.6 4.39998 34.7001 4.39998 33.5857V26.6429C4.39998 25.5285 5.29986 24.6286 6.41426 24.6286H10.1428V28.6571H9.42283C8.92695 28.6571 8.42855 29.0033 8.42855 29.5357V30.6929C8.42855 31.2253 8.92695 31.5714 9.42283 31.5714H45.0628C45.5587 31.5714 46.0571 31.2253 46.0571 30.6929V29.5357C46.0571 29.0033 45.5587 28.6571 45.0628 28.6571H44.3428ZM40.8285 5.83598V28.6571H13.6571V5.83598C13.6571 4.71495 14.5709 3.8 15.7003 3.8H38.7926C39.9148 3.8 40.8285 4.70772 40.8285 5.83598Z" stroke="url(#paint1_linear_1_576)" stroke-opacity="0.5" stroke-width="0.6" shape-rendering="crispEdges"/>
</g>
<defs>
<filter id="filter0_bd_1_576" x="1.69998" y="1.1" width="51.0858" height="39.6" filterUnits="userSpaceOnUse" color-interpolation-filters="sRGB">
<feFlood flood-opacity="0" result="BackgroundImageFix"/>
<feGaussianBlur in="BackgroundImageFix" stdDeviation="1.2"/>
<feComposite in2="SourceAlpha" operator="in" result="effect1_backgroundBlur_1_576"/>
<feColorMatrix in="SourceAlpha" type="matrix" values="0 0 0 0 0 0 0 0 0 0 0 0 0 0 0 0 0 0 127 0" result="hardAlpha"/>
<feOffset dy="2.4"/>
<feGaussianBlur stdDeviation="1.2"/>
<feComposite in2="hardAlpha" operator="out"/>
<feColorMatrix type="matrix" values="0 0 0 0 0 0 0 0 0 0 0 0 0 0 0 0 0 0 0.25 0"/>
<feBlend mode="normal" in2="effect1_backgroundBlur_1_576" result="effect2_dropShadow_1_576"/>
<feBlend mode="normal" in="SourceGraphic" in2="effect2_dropShadow_1_576" result="shape"/>
</filter>
<linearGradient id="paint0_linear_1_576" x1="27.2428" y1="-5.2" x2="27.2428" y2="35.9" gradientUnits="userSpaceOnUse">
<stop stop-color="#598FFF"/>
<stop offset="1" stop-color="#365699"/>
</linearGradient>
<linearGradient id="paint1_linear_1_576" x1="10.3458" y1="2.5241" x2="37.0825" y2="36.8999" gradientUnits="userSpaceOnUse">
<stop stop-color="#598FFF"/>
<stop offset="0.5" stop-color="#B3C1DE" stop-opacity="0.2"/>
<stop offset="1" stop-color="#598FFF"/>
</linearGradient>
</defs>
</svg>
