<svg width="91" height="72" viewBox="0 0 91 72" fill="none" xmlns="http://www.w3.org/2000/svg">
<g filter="url(#filter0_bd_1_404)">
<path d="M79.7857 39.7143H73.0714V47.4286H74.7714C75.4103 47.4286 75.9286 47.8625 75.9286 48.3929V50.3214C75.9286 50.8518 75.4103 51.2857 74.7714 51.2857H15.3714C14.7326 51.2857 14.2143 50.8518 14.2143 50.3214V48.3929C14.2143 47.8625 14.7326 47.4286 15.3714 47.4286H17.0714V39.7143H10.3571C8.22366 39.7143 6.5 41.4379 6.5 43.5714V55.1429C6.5 57.2763 8.22366 59 10.3571 59H79.7857C81.9192 59 83.6429 57.2763 83.6429 55.1429V43.5714C83.6429 41.4379 81.9192 39.7143 79.7857 39.7143ZM68.2143 47.4286V8.8933C68.2143 6.73571 66.4665 5 64.321 5H25.8339C23.6763 5 21.9286 6.74777 21.9286 8.8933V47.4286H68.2143ZM31.9571 25.4911L35.0308 22.4415C35.5371 21.9353 36.3567 21.9353 36.8629 22.4536L41.8411 27.4679L53.3161 16.0893C53.8223 15.583 54.642 15.583 55.1482 16.1013L58.1978 19.175C58.704 19.6813 58.704 20.5009 58.1857 21.0071L42.721 36.3393C42.2147 36.8455 41.3951 36.8455 40.8888 36.3272L31.9571 27.3232C31.4388 26.817 31.4509 25.9973 31.9571 25.4911Z" fill="url(#paint0_linear_1_404)" fill-opacity="0.3" shape-rendering="crispEdges"/>
<path d="M31.605 25.1361L31.6036 25.1375C30.9085 25.8326 30.8833 26.97 31.6047 27.6779L40.5312 36.6766C40.5317 36.6771 40.5322 36.6776 40.5327 36.6781C41.2342 37.3947 42.3718 37.3946 43.0736 36.6938C43.0739 36.6935 43.0742 36.6932 43.0745 36.6928L58.5351 21.3648C58.5356 21.3643 58.5361 21.3638 58.5366 21.3633C59.2532 20.6617 59.2531 19.524 58.552 18.8222C58.5518 18.8219 58.5516 18.8217 58.5513 18.8214L55.5059 15.752C55.5054 15.7515 55.5049 15.751 55.5045 15.7505C54.803 15.0339 53.6652 15.034 52.9634 15.7348C52.9631 15.7351 52.9628 15.7354 52.9625 15.7357L41.8438 26.761L37.2206 22.1042C37.2201 22.1037 37.2196 22.1032 37.2191 22.1027C36.5175 21.386 35.3798 21.3862 34.678 22.0872C34.6777 22.0875 34.6775 22.0877 34.6772 22.088L31.605 25.1361ZM73.5714 46.9286V40.2143H79.7857C81.6431 40.2143 83.1429 41.7141 83.1429 43.5714V55.1429C83.1429 57.0002 81.6431 58.5 79.7857 58.5H10.3571C8.4998 58.5 7 57.0002 7 55.1429V43.5714C7 41.7141 8.4998 40.2143 10.3571 40.2143H16.5714V46.9286H15.3714C14.545 46.9286 13.7143 47.5055 13.7143 48.3929V50.3214C13.7143 51.2088 14.545 51.7857 15.3714 51.7857H74.7714C75.5979 51.7857 76.4286 51.2088 76.4286 50.3214V48.3929C76.4286 47.5055 75.5979 46.9286 74.7714 46.9286H73.5714ZM67.7143 8.8933V46.9286H22.4286V8.8933C22.4286 7.02492 23.9515 5.5 25.8339 5.5H64.321C66.1914 5.5 67.7143 7.01287 67.7143 8.8933Z" stroke="url(#paint1_linear_1_404)" stroke-opacity="0.5" shape-rendering="crispEdges"/>
</g>
<defs>
<filter id="filter0_bd_1_404" x="2.5" y="1" width="85.1429" height="66" filterUnits="userSpaceOnUse" color-interpolation-filters="sRGB">
<feFlood flood-opacity="0" result="BackgroundImageFix"/>
<feGaussianBlur in="BackgroundImageFix" stdDeviation="2"/>
<feComposite in2="SourceAlpha" operator="in" result="effect1_backgroundBlur_1_404"/>
<feColorMatrix in="SourceAlpha" type="matrix" values="0 0 0 0 0 0 0 0 0 0 0 0 0 0 0 0 0 0 127 0" result="hardAlpha"/>
<feOffset dy="4"/>
<feGaussianBlur stdDeviation="2"/>
<feComposite in2="hardAlpha" operator="out"/>
<feColorMatrix type="matrix" values="0 0 0 0 0 0 0 0 0 0 0 0 0 0 0 0 0 0 0.25 0"/>
<feBlend mode="normal" in2="effect1_backgroundBlur_1_404" result="effect2_dropShadow_1_404"/>
<feBlend mode="normal" in="SourceGraphic" in2="effect2_dropShadow_1_404" result="shape"/>
</filter>
<linearGradient id="paint0_linear_1_404" x1="45.0714" y1="-9.5" x2="45.0714" y2="59" gradientUnits="userSpaceOnUse">
<stop stop-color="#598FFF"/>
<stop offset="1" stop-color="#365699"/>
</linearGradient>
<linearGradient id="paint1_linear_1_404" x1="16.9097" y1="3.3735" x2="61.4709" y2="60.6665" gradientUnits="userSpaceOnUse">
<stop stop-color="#598FFF"/>
<stop offset="0.5" stop-color="#B3C1DE" stop-opacity="0.2"/>
<stop offset="1" stop-color="#598FFF"/>
</linearGradient>
</defs>
</svg>
