<svg width="1392" height="350" viewBox="0 0 1392 350" fill="none" xmlns="http://www.w3.org/2000/svg">
<path d="M331.531 97.8372C318.445 88.7633 302.076 84.2378 282.448 84.2378H280.565C260.913 84.2378 244.636 88.7633 231.711 97.8372C218.74 106.865 209.029 119.913 202.463 136.889C201.338 139.853 200.282 142.908 199.387 146.124C198.492 142.908 197.481 139.876 196.425 136.889C190.181 119.936 180.562 106.865 167.637 97.8372C154.711 88.7633 138.411 84.2378 118.783 84.2378H116.9C97.2485 84.2378 81.0404 88.7633 68.276 97.8372C55.5116 106.865 45.8923 119.913 39.533 136.889C38.0408 140.887 36.6863 145.09 35.5384 149.478V91.7496H0V341.638H44.8822V191.884C44.8822 171.026 50.5068 154.67 61.7101 143C72.9593 131.307 87.767 125.449 106.156 125.449C124.545 125.449 137.792 131.009 147.755 142.058C157.765 153.154 162.747 168.82 162.747 189.105V341.638H207.629V191.884C207.629 171.026 213.253 154.67 224.457 143C235.66 131.307 250.468 125.449 268.857 125.449C287.246 125.449 300.538 131.009 310.502 142.058C320.465 153.154 325.47 168.82 325.47 189.105V341.638H370.375V198.914C370.375 174.563 367.161 153.935 360.779 136.889C354.42 119.936 344.64 106.865 331.554 97.8372H331.531Z" fill="#B3C0DE"/>
<path d="M548.021 98.0901C531.813 92.0025 510.922 88.9473 485.37 88.9473C477.863 88.9473 470.103 89.0162 461.976 89.177C453.895 89.3378 445.998 89.6364 438.376 90.1188C430.731 90.5783 423.453 91.1296 416.612 91.7498V131.055C423.453 130.435 431.58 129.952 440.901 129.653C450.268 129.332 460.07 129.033 470.378 128.712C480.64 128.39 490.65 128.252 500.292 128.252C517.442 128.252 530.436 132.64 539.343 141.346C548.205 150.098 552.659 163.032 552.659 180.192V186.279H489.548C468.037 186.279 449.625 189.334 434.358 195.376C419.091 201.464 407.452 210.423 399.508 222.299C391.542 234.13 387.593 248.947 387.593 266.727C387.593 284.507 391.221 298.543 398.567 310.741C405.868 322.893 416.336 332.197 429.881 338.56C443.426 344.969 459.565 348.139 478.276 348.139C495.724 348.139 510.623 345.061 522.951 338.79C535.257 332.541 544.945 323.421 551.924 311.43C555.322 305.641 558.054 299.209 560.12 292.088V341.592H595.658V183.431C595.658 160.022 591.755 141.461 583.95 127.747C576.167 114.033 564.16 104.109 547.929 98.0441L548.021 98.0901ZM542.213 287.126C535.808 296.315 527.773 302.885 518.107 306.79C508.465 310.695 498.295 312.602 487.712 312.602C469.621 312.602 455.755 308.421 446.089 299.967C436.447 291.559 431.603 280.464 431.603 266.75C431.603 253.036 436.447 241.825 446.089 233.073C455.777 224.367 469.644 219.979 487.712 219.979H552.705V248.969C552.085 265.188 548.572 277.937 542.19 287.103L542.213 287.126Z" fill="#B3C0DE"/>
<path d="M758.91 84.2378H757.027C736.182 84.2378 718.871 88.6943 705.12 97.6074C691.414 106.475 681.221 119.454 674.494 136.453C672.818 140.749 671.326 145.274 670.041 150.098V91.7496H634.502V341.638H679.407V192.344C679.407 172.105 685.491 155.841 697.636 143.689C709.78 131.537 725.667 125.449 745.319 125.449C764.97 125.449 779.296 131.307 790.224 143C801.129 154.693 806.592 170.245 806.592 189.587V341.661H851.475V198.936C851.475 161.814 843.899 133.444 828.793 113.78C813.686 94.1157 790.407 84.2837 758.887 84.2837L758.91 84.2378Z" fill="#B3C0DE"/>
<path d="M1081.6 129.424C1071.91 114.147 1059.77 102.73 1045.12 95.2645C1029.53 87.2932 1012.25 83.342 993.215 83.342C974.183 83.342 958.687 86.673 943.879 93.3808C929.071 100.089 916.261 109.369 905.517 121.2C894.773 133.076 886.416 146.79 880.493 162.388C874.593 177.986 871.631 194.664 871.631 212.444V220.875C871.631 238.977 874.685 255.815 880.723 271.413C886.806 287.011 895.415 300.725 906.458 312.556C917.501 324.432 930.564 333.621 945.509 340.191C960.477 346.761 976.823 350 994.592 350C1012.36 350 1030.22 346.049 1046.27 338.077C1062.32 330.106 1075.63 317.334 1086.26 299.691C1087.94 296.912 1089.5 293.994 1090.9 290.939V341.592H1126.44V0H1081.56V129.401L1081.6 129.424ZM1083.48 225.102C1083.48 242.606 1079.74 257.814 1072.24 270.747C1064.77 283.68 1054.79 293.604 1042.32 300.449C1029.86 307.318 1015.99 310.764 1000.72 310.764C984.468 310.764 969.982 306.928 957.217 299.278C944.453 291.651 934.443 280.717 927.304 266.52C920.118 252.323 916.513 235.715 916.513 216.694C916.513 197.673 920.026 181.133 927.051 167.098C934.053 153.062 943.879 142.127 956.506 134.34C969.109 126.529 983.688 122.624 1000.24 122.624C1015.21 122.624 1028.98 125.817 1041.61 132.226C1054.26 138.589 1064.38 147.824 1072.01 159.815C1079.65 171.853 1083.48 186.44 1083.48 203.577V225.079V225.102Z" fill="#B3C0DE"/>
<path d="M1391.62 205.001C1391.62 184.097 1387.33 164.433 1378.76 146.033C1370.18 127.632 1357.09 112.586 1339.48 100.893C1321.88 89.1771 1299.49 83.3423 1272.38 83.3423C1251.49 83.3423 1233.33 86.9718 1217.9 94.3229C1202.47 101.674 1189.78 111.483 1179.79 123.796C1169.83 136.155 1162.41 149.938 1157.61 165.214C1152.77 180.49 1150.36 196.249 1150.36 212.467V220.898C1150.36 236.795 1152.77 252.393 1157.61 267.669C1162.41 282.945 1169.83 296.751 1179.79 309.087C1189.8 321.4 1202.73 331.278 1218.61 338.79C1234.5 346.302 1253.37 350 1275.2 350C1294.85 350 1312.46 346.761 1328.05 340.191C1343.64 333.621 1356.56 324.134 1366.87 311.66C1377.13 299.163 1384.02 284.346 1387.42 267.186H1345.36C1342.86 278.718 1335.44 288.872 1323.14 297.601C1310.83 306.354 1294.85 310.741 1275.23 310.741C1255.6 310.741 1241.09 306.606 1228.94 298.313C1216.75 290.066 1207.82 278.856 1202.04 264.637C1197.19 252.714 1194.39 239.551 1193.63 225.079H1391.64V205.001H1391.62ZM1195.4 191.402C1196.85 183.04 1199.03 175.253 1202.01 168.04C1207.8 154.004 1216.5 142.908 1228.23 134.822C1239.92 126.69 1254.63 122.624 1272.4 122.624C1290.17 122.624 1303.72 126.231 1314.97 133.421C1326.17 140.565 1334.57 150.65 1340.2 163.583C1343.8 171.876 1346.26 181.134 1347.54 191.402H1195.43H1195.4Z" fill="#B3C0DE"/>
</svg>
