<svg width="50" height="47" viewBox="0 0 50 47" fill="none" xmlns="http://www.w3.org/2000/svg">
<path d="M35.4913 12.3806C38.4108 12.3806 40.7776 10.0139 40.7776 7.09436C40.7776 4.17484 38.4108 1.80811 35.4913 1.80811C32.5718 1.80811 30.2051 4.17484 30.2051 7.09436C30.2051 10.0139 32.5718 12.3806 35.4913 12.3806Z" fill="#B3C0DE"/>
<path d="M31.7725 14.5674C31.7725 14.5674 31.0249 16.0432 25.4269 26.0202C25.1647 26.4852 24.8993 26.9081 24.6285 27.2835C24.6037 27.2533 24.5832 27.2209 24.5606 27.1907C24.3157 26.838 24.0708 26.4474 23.8302 26.0202C18.2322 16.0432 17.4846 14.5674 17.4846 14.5674H10.5218L0 46.7574C0 46.7574 8.51195 48.7684 10.8325 41.1853C13.1531 33.6022 15.3193 26.9491 15.3193 26.9491C15.3193 26.9491 20.0144 39.6598 26.9901 35.9357C28.7389 35.0025 30.629 33.0423 32.628 29.5857C32.6777 29.4886 32.7284 29.3905 32.7758 29.2955C33.4382 27.9945 33.9388 26.9491 33.9388 26.9491C33.9388 26.9491 36.1051 33.6044 38.4257 41.1885C40.7462 48.7694 49.2582 46.7585 49.2582 46.7585L38.7353 14.5685H31.7725V14.5674Z" fill="#B3C0DE"/>
<path d="M16.6115 11.7907C19.3088 10.6734 20.5896 7.58112 19.4724 4.88384C18.3551 2.18655 15.2628 0.905687 12.5656 2.02294C9.86828 3.14019 8.58741 6.23248 9.70466 8.92976C10.8219 11.627 13.9142 12.9079 16.6115 11.7907Z" fill="#B3C0DE"/>
</svg>
