<svg width="398" height="101" viewBox="0 0 398 101" fill="none" xmlns="http://www.w3.org/2000/svg">
<path d="M94.8154 27.9806C91.073 25.3856 86.3916 24.0913 80.7779 24.0913H80.2396C74.6193 24.0913 69.9642 25.3856 66.2677 27.9806C62.5581 30.5626 59.7808 34.2942 57.903 39.1493C57.5813 39.9968 57.2793 40.8706 57.0232 41.7903C56.7671 40.8706 56.4783 40.0034 56.1762 39.1493C54.3904 34.3008 51.6393 30.5626 47.9428 27.9806C44.2463 25.3856 39.5847 24.0913 33.971 24.0913H33.4326C27.8124 24.0913 23.177 25.3856 19.5264 27.9806C15.8759 30.5626 13.1249 34.2942 11.3062 39.1493C10.8794 40.2924 10.492 41.4947 10.1637 42.7495V26.2396H0V97.7059H12.836V54.8774C12.836 48.912 14.4446 44.2343 17.6486 40.8969C20.8658 37.5528 25.1007 35.8775 30.3599 35.8775C35.619 35.8775 39.4074 37.4674 42.2569 40.6275C45.1196 43.8007 46.5443 48.2813 46.5443 54.0824V97.7059H59.3803V54.8774C59.3803 48.912 60.9889 44.2343 64.193 40.8969C67.397 37.5528 71.6319 35.8775 76.8911 35.8775C82.1502 35.8775 85.9517 37.4674 88.8012 40.6275C91.6508 43.8007 93.0821 48.2813 93.0821 54.0824V97.7059H105.925V56.8877C105.925 49.9238 105.005 44.0241 103.18 39.1493C101.361 34.3008 98.5645 30.5626 94.822 27.9806H94.8154Z" fill="#B3C0DE"/>
<path d="M156.73 28.053C152.095 26.312 146.12 25.4382 138.812 25.4382C136.665 25.4382 134.446 25.4579 132.122 25.5039C129.811 25.5499 127.552 25.6353 125.372 25.7733C123.186 25.9047 121.105 26.0624 119.148 26.2397V37.4807C121.105 37.3033 123.429 37.1653 126.095 37.0799C128.773 36.9879 131.577 36.9025 134.525 36.8105C137.46 36.7186 140.322 36.6792 143.08 36.6792C147.985 36.6792 151.701 37.934 154.248 40.4239C156.783 42.927 158.056 46.6258 158.056 51.5335V53.2745H140.007C133.855 53.2745 128.59 54.1482 124.223 55.8761C119.857 57.6171 116.528 60.1793 114.257 63.5759C111.978 66.9593 110.849 71.1969 110.849 76.2819C110.849 81.3669 111.886 85.3811 113.987 88.8696C116.075 92.345 119.069 95.0058 122.943 96.8256C126.817 98.6586 131.433 99.5653 136.784 99.5653C141.773 99.5653 146.035 98.6849 149.56 96.8913C153.08 95.1044 155.85 92.4961 157.846 89.0667C158.818 87.4111 159.599 85.5716 160.19 83.535V97.6929H170.354V52.4598C170.354 45.7652 169.238 40.4568 167.006 36.5346C164.78 32.6125 161.346 29.7743 156.704 28.0399L156.73 28.053ZM155.069 82.1159C153.237 84.7438 150.939 86.6227 148.175 87.7396C145.417 88.8565 142.509 89.4018 139.482 89.4018C134.308 89.4018 130.343 88.2061 127.578 85.7884C124.821 83.3838 123.435 80.2106 123.435 76.2885C123.435 72.3663 124.821 69.1602 127.578 66.6571C130.349 64.1672 134.315 62.9123 139.482 62.9123H158.07V71.2034C157.892 75.8417 156.888 79.4879 155.063 82.1093L155.069 82.1159Z" fill="#B3C0DE"/>
<path d="M217.043 24.0913H216.504C210.543 24.0913 205.592 25.3658 201.659 27.9149C197.74 30.4509 194.824 34.1628 192.901 39.0245C192.421 40.253 191.995 41.5473 191.627 42.9269V26.2396H181.463V97.7059H194.306V55.0088C194.306 49.2208 196.046 44.5694 199.519 41.0939C202.992 37.6185 207.536 35.8775 213.156 35.8775C218.776 35.8775 222.873 37.5528 225.998 40.8969C229.117 44.2409 230.68 48.6886 230.68 54.2204V97.7124H243.516V56.8943C243.516 46.2775 241.349 38.1638 237.029 32.5401C232.709 26.9163 226.051 24.1045 217.036 24.1045L217.043 24.0913Z" fill="#B3C0DE"/>
<path d="M309.33 37.0142C306.56 32.6453 303.086 29.3801 298.897 27.245C294.439 24.9652 289.495 23.8352 284.052 23.8352C278.609 23.8352 274.177 24.7878 269.943 26.7062C265.708 28.6246 262.044 31.2788 258.971 34.6622C255.899 38.0588 253.509 41.981 251.815 46.4419C250.127 50.9028 249.28 55.6725 249.28 60.7575V63.1686C249.28 68.3456 250.154 73.1613 251.88 77.6222C253.62 82.0831 256.082 86.0052 259.24 89.3886C262.399 92.7852 266.134 95.4132 270.409 97.2921C274.69 99.1711 279.364 100.097 284.446 100.097C289.528 100.097 294.636 98.9674 299.226 96.6877C303.815 94.408 307.623 90.7552 310.663 85.7096C311.142 84.9146 311.589 84.0803 311.989 83.2065V97.6929H322.153V0H309.317V37.0077L309.33 37.0142ZM309.869 64.3774C309.869 69.3836 308.798 73.7328 306.651 77.4316C304.518 81.1304 301.662 83.9686 298.096 85.9264C294.531 87.8907 290.565 88.8762 286.199 88.8762C281.551 88.8762 277.408 87.7791 273.757 85.5913C270.107 83.4101 267.244 80.2829 265.202 76.2228C263.147 72.1627 262.116 67.4127 262.116 61.9729C262.116 56.5331 263.121 51.8028 265.13 47.7887C267.132 43.7746 269.943 40.6473 273.554 38.4202C277.158 36.1864 281.328 35.0696 286.061 35.0696C290.342 35.0696 294.282 35.9828 297.893 37.8158C301.511 39.6356 304.406 42.2766 306.586 45.7061C308.772 49.1486 309.869 53.3205 309.869 58.2215V64.3709V64.3774Z" fill="#B3C0DE"/>
<path d="M397.994 58.6288C397.994 52.6503 396.766 47.0266 394.317 41.7642C391.861 36.5018 388.119 32.1986 383.083 28.8545C378.047 25.5039 371.646 23.8352 363.891 23.8352C357.917 23.8352 352.723 24.8732 348.311 26.9756C343.899 29.0779 340.268 31.8832 337.412 35.4046C334.562 38.9392 332.442 42.881 331.069 47.25C329.684 51.6189 328.995 56.1258 328.995 60.764V63.1751C328.995 67.7214 329.684 72.1823 331.069 76.5513C332.442 80.9202 334.562 84.8686 337.412 88.3966C340.275 91.918 343.971 94.743 348.515 96.8913C353.058 99.0397 358.455 100.097 364.699 100.097C370.319 100.097 375.355 99.1711 379.813 97.2921C384.271 95.4131 387.968 92.6998 390.916 89.1324C393.851 85.5584 395.82 81.3209 396.792 76.4133H384.764C384.048 79.7113 381.927 82.6152 378.408 85.1117C374.889 87.6148 370.319 88.8696 364.706 88.8696C359.092 88.8696 354.942 87.6871 351.469 85.3154C347.983 82.9568 345.429 79.7507 343.774 75.684C342.389 72.2743 341.588 68.5098 341.371 64.3708H398V58.6288H397.994ZM341.877 54.7395C342.29 52.3481 342.914 50.121 343.767 48.058C345.422 44.0439 347.91 40.8707 351.266 38.5581C354.608 36.2324 358.816 35.0696 363.898 35.0696C368.98 35.0696 372.854 36.101 376.071 38.1574C379.275 40.2006 381.678 43.0847 383.287 46.7835C384.317 49.1552 385.02 51.8028 385.388 54.7395H341.883H341.877Z" fill="#B3C0DE"/>
</svg>
