<svg width="318" height="295" viewBox="0 0 318 295" fill="none" xmlns="http://www.w3.org/2000/svg">
<g opacity="0.8" filter="url(#filter0_bdf_2015_104)">
<path d="M190.912 117.763C184.983 114.999 178.563 112.993 171.875 111.833C171.817 111.832 171.758 111.843 171.704 111.866C171.65 111.889 171.602 111.923 171.563 111.967C170.761 113.438 169.824 115.356 169.2 116.827C162.107 115.757 154.893 115.757 147.8 116.827C147.176 115.311 146.24 113.438 145.393 111.967C145.348 111.878 145.214 111.833 145.081 111.833C138.393 112.993 132.018 114.999 126.044 117.763C125.999 117.763 125.954 117.808 125.91 117.852C113.783 135.998 110.439 153.653 112.089 171.129C112.089 171.218 112.134 171.308 112.223 171.352C120.248 177.237 127.961 180.804 135.584 183.167C135.718 183.211 135.852 183.167 135.896 183.078C137.68 180.626 139.285 178.04 140.667 175.32C140.756 175.142 140.667 174.963 140.489 174.919C137.947 173.938 135.54 172.779 133.177 171.441C132.999 171.352 132.999 171.085 133.132 170.951C133.623 170.594 134.113 170.193 134.604 169.836C134.693 169.747 134.826 169.747 134.916 169.792C150.252 176.791 166.793 176.791 181.951 169.792C182.04 169.747 182.174 169.747 182.263 169.836C182.754 170.238 183.244 170.594 183.734 170.996C183.913 171.129 183.913 171.397 183.69 171.486C181.371 172.868 178.919 173.983 176.378 174.963C176.2 175.008 176.155 175.231 176.2 175.365C177.626 178.084 179.231 180.67 180.97 183.122C181.104 183.167 181.238 183.211 181.371 183.167C189.04 180.804 196.753 177.237 204.778 171.352C204.867 171.308 204.911 171.218 204.911 171.129C206.873 150.933 201.657 133.412 191.091 117.852C191.046 117.808 191.001 117.763 190.912 117.763ZM142.985 160.474C138.393 160.474 134.559 156.238 134.559 151.022C134.559 145.806 138.304 141.571 142.985 141.571C147.711 141.571 151.456 145.851 151.411 151.022C151.411 156.238 147.666 160.474 142.985 160.474ZM174.06 160.474C169.468 160.474 165.634 156.238 165.634 151.022C165.634 145.806 169.379 141.571 174.06 141.571C178.786 141.571 182.531 145.851 182.486 151.022C182.486 156.238 178.786 160.474 174.06 160.474Z" fill="url(#paint0_linear_2015_104)"/>
<path d="M140.42 175.195C140.42 175.194 140.42 175.194 140.42 175.194C140.419 175.193 140.418 175.191 140.417 175.19C140.415 175.185 140.414 175.181 140.415 175.179C140.415 175.177 140.415 175.182 140.41 175.192L140.419 175.196L140.423 175.198L140.42 175.195ZM140.42 175.195L140.667 175.32M140.42 175.195L140.489 174.919C140.667 174.963 140.756 175.142 140.667 175.32M140.667 175.32C139.285 178.04 137.68 180.626 135.896 183.078C135.852 183.167 135.718 183.211 135.584 183.167C127.961 180.804 120.248 177.237 112.223 171.352C112.134 171.308 112.089 171.218 112.089 171.129C110.439 153.653 113.783 135.998 125.91 117.852M140.667 175.32L126.128 118.041C126.124 118.045 126.119 118.05 126.113 118.055L126.108 118.05L126.107 118.05H126.044C126.066 118.05 126.085 118.047 126.1 118.043L126.044 117.986L125.91 117.852M125.91 117.852L126.044 117.942L126.149 118.012C126.145 118.017 126.142 118.022 126.138 118.028L145.393 111.967C145.348 111.878 145.214 111.833 145.081 111.833C138.393 112.993 132.018 114.999 126.044 117.763C125.999 117.763 125.954 117.808 125.91 117.852ZM190.791 118.023L190.849 118.05H190.878C201.393 133.55 206.579 150.993 204.625 171.102L204.625 171.108L204.608 171.12C196.611 176.985 188.927 180.538 181.287 182.892L181.287 182.892L181.281 182.894C181.271 182.897 181.254 182.9 181.218 182.894C181.197 182.891 181.175 182.886 181.149 182.878C179.446 180.468 177.872 177.93 176.471 175.263C176.471 175.261 176.471 175.259 176.471 175.257C176.471 175.249 176.472 175.241 176.474 175.235L176.482 175.232C179.027 174.249 181.489 173.131 183.82 171.743C184.021 171.653 184.138 171.472 184.149 171.274C184.161 171.081 184.071 170.892 183.912 170.77C183.666 170.568 183.419 170.378 183.176 170.19L183.174 170.189C182.932 170.001 182.693 169.816 182.454 169.621C182.261 169.439 181.997 169.45 181.827 169.532C166.748 176.494 150.298 176.495 135.039 169.532C134.871 169.451 134.612 169.44 134.419 169.615C134.176 169.793 133.933 169.98 133.694 170.165L133.692 170.166C133.446 170.356 133.205 170.543 132.963 170.719L132.945 170.732L132.929 170.748C132.797 170.879 132.741 171.063 132.751 171.23C132.761 171.398 132.843 171.592 133.041 171.694C135.413 173.037 137.831 174.201 140.385 175.187L140.402 175.193L140.408 175.195C139.037 177.893 137.444 180.459 135.675 182.894L135.669 182.892C128.073 180.538 120.39 176.985 112.393 171.12L112.376 171.108L112.375 171.102C110.732 153.696 114.058 136.117 126.13 118.04L126.164 118.024C132.107 115.274 138.449 113.277 145.101 112.122C145.112 112.122 145.121 112.123 145.13 112.125C145.141 112.127 145.149 112.129 145.155 112.131C145.994 113.59 146.919 115.441 147.534 116.936L147.62 117.145L147.843 117.111C154.908 116.045 162.093 116.045 169.157 117.111L169.378 117.144L169.465 116.939C170.079 115.49 171.001 113.602 171.795 112.143C171.802 112.138 171.809 112.133 171.818 112.13C171.829 112.125 171.84 112.122 171.852 112.121C178.506 113.277 184.893 115.274 190.791 118.023ZM134.272 151.022C134.272 156.367 138.205 160.761 142.985 160.761L151.411 151.022L151.699 151.025C151.699 151.024 151.699 151.024 151.699 151.023C151.744 145.724 147.9 141.283 142.985 141.283C138.114 141.283 134.272 145.68 134.272 151.022ZM165.346 151.022C165.346 156.367 169.28 160.761 174.06 160.761L182.486 151.022L182.773 151.025C182.773 151.024 182.773 151.024 182.773 151.023C182.818 145.724 178.974 141.283 174.06 141.283C169.189 141.283 165.346 145.68 165.346 151.022Z" stroke="url(#paint1_linear_2015_104)" stroke-opacity="0.5" stroke-width="0.574713"/>
</g>
<g filter="url(#filter1_bd_2015_104)">
<path d="M190.912 117.763C184.983 114.999 178.563 112.993 171.875 111.834C171.816 111.832 171.758 111.843 171.704 111.866C171.65 111.889 171.602 111.924 171.563 111.967C170.761 113.439 169.824 115.356 169.2 116.827C162.107 115.757 154.893 115.757 147.8 116.827C147.176 115.311 146.24 113.439 145.393 111.967C145.348 111.878 145.214 111.834 145.081 111.834C138.393 112.993 132.018 114.999 126.043 117.763C125.999 117.763 125.954 117.808 125.91 117.852C113.783 135.998 110.439 153.653 112.089 171.13C112.089 171.219 112.133 171.308 112.223 171.352C120.248 177.237 127.961 180.804 135.584 183.167C135.718 183.212 135.852 183.167 135.896 183.078C137.68 180.626 139.285 178.04 140.667 175.32C140.756 175.142 140.667 174.964 140.488 174.919C137.947 173.938 135.54 172.779 133.177 171.442C132.998 171.352 132.998 171.085 133.132 170.951C133.623 170.595 134.113 170.193 134.603 169.837C134.693 169.747 134.826 169.747 134.916 169.792C150.252 176.792 166.793 176.792 181.951 169.792C182.04 169.747 182.174 169.747 182.263 169.837C182.753 170.238 183.244 170.595 183.734 170.996C183.913 171.13 183.913 171.397 183.69 171.486C181.371 172.868 178.919 173.983 176.378 174.964C176.2 175.008 176.155 175.231 176.2 175.365C177.626 178.085 179.231 180.67 180.97 183.122C181.104 183.167 181.238 183.212 181.371 183.167C189.04 180.804 196.753 177.237 204.778 171.352C204.867 171.308 204.911 171.219 204.911 171.13C206.873 150.933 201.657 133.412 191.091 117.852C191.046 117.808 191.001 117.763 190.912 117.763ZM142.985 160.474C138.393 160.474 134.559 156.239 134.559 151.022C134.559 145.806 138.304 141.571 142.985 141.571C147.711 141.571 151.456 145.851 151.411 151.022C151.411 156.239 147.666 160.474 142.985 160.474ZM174.06 160.474C169.468 160.474 165.633 156.239 165.633 151.022C165.633 145.806 169.378 141.571 174.06 141.571C178.786 141.571 182.531 145.851 182.486 151.022C182.486 156.239 178.786 160.474 174.06 160.474Z" fill="url(#paint2_linear_2015_104)" fill-opacity="0.35" shape-rendering="crispEdges"/>
<path d="M190.701 118.216L190.748 118.238C201.191 133.66 206.344 151.004 204.422 170.993C196.482 176.805 188.853 180.334 181.267 182.676C179.63 180.354 178.114 177.913 176.758 175.353C179.236 174.387 181.639 173.288 183.919 171.931C184.185 171.807 184.346 171.56 184.362 171.287C184.377 171.021 184.255 170.767 184.044 170.604C183.796 170.401 183.549 170.209 183.307 170.023L183.304 170.021C183.063 169.834 182.828 169.653 182.594 169.462C182.325 169.212 181.965 169.23 181.736 169.34C166.715 176.275 150.331 176.276 135.129 169.34C134.903 169.232 134.553 169.213 134.285 169.45C134.042 169.627 133.8 169.814 133.565 169.996L133.562 169.998C133.316 170.189 133.076 170.374 132.838 170.547L132.806 170.57L132.779 170.598C132.599 170.777 132.525 171.023 132.538 171.242C132.551 171.465 132.662 171.736 132.939 171.882C135.257 173.193 137.621 174.336 140.111 175.309C138.793 177.874 137.274 180.32 135.592 182.646C128.081 180.304 120.484 176.78 112.578 170.993C110.961 153.678 114.278 136.193 126.274 118.208C132.164 115.485 138.446 113.503 145.035 112.349C145.852 113.783 146.742 115.569 147.338 117.017L147.487 117.38L147.875 117.321C154.918 116.259 162.082 116.259 169.126 117.321L169.509 117.379L169.66 117.022C170.258 115.615 171.147 113.788 171.924 112.35C178.521 113.505 184.852 115.49 190.701 118.216ZM134.059 151.022C134.059 156.462 138.067 160.974 142.985 160.974C147.995 160.974 151.91 156.459 151.911 151.025C151.957 145.63 148.039 141.071 142.985 141.071C137.974 141.071 134.059 145.587 134.059 151.022ZM165.133 151.022C165.133 156.462 169.141 160.974 174.06 160.974L182.486 151.022L182.986 151.027C182.986 151.026 182.986 151.026 182.986 151.025C183.032 145.631 179.114 141.071 174.06 141.071C169.049 141.071 165.133 145.587 165.133 151.022Z" stroke="url(#paint3_linear_2015_104)" stroke-opacity="0.5" shape-rendering="crispEdges"/>
</g>
<defs>
<filter id="filter0_bdf_2015_104" x="-0.00410461" y="0.133255" width="317.022" height="294.752" filterUnits="userSpaceOnUse" color-interpolation-filters="sRGB">
<feFlood flood-opacity="0" result="BackgroundImageFix"/>
<feGaussianBlur in="BackgroundImageFix" stdDeviation="1.14943"/>
<feComposite in2="SourceAlpha" operator="in" result="effect1_backgroundBlur_2015_104"/>
<feColorMatrix in="SourceAlpha" type="matrix" values="0 0 0 0 0 0 0 0 0 0 0 0 0 0 0 0 0 0 127 0" result="hardAlpha"/>
<feOffset dy="2.29885"/>
<feGaussianBlur stdDeviation="1.14943"/>
<feComposite in2="hardAlpha" operator="out"/>
<feColorMatrix type="matrix" values="0 0 0 0 0 0 0 0 0 0 0 0 0 0 0 0 0 0 0.25 0"/>
<feBlend mode="normal" in2="effect1_backgroundBlur_2015_104" result="effect2_dropShadow_2015_104"/>
<feBlend mode="normal" in="SourceGraphic" in2="effect2_dropShadow_2015_104" result="shape"/>
<feGaussianBlur stdDeviation="55.85" result="effect3_foregroundBlur_2015_104"/>
</filter>
<filter id="filter1_bd_2015_104" x="109.397" y="109.535" width="98.2201" height="78.2486" filterUnits="userSpaceOnUse" color-interpolation-filters="sRGB">
<feFlood flood-opacity="0" result="BackgroundImageFix"/>
<feGaussianBlur in="BackgroundImageFix" stdDeviation="1.14943"/>
<feComposite in2="SourceAlpha" operator="in" result="effect1_backgroundBlur_2015_104"/>
<feColorMatrix in="SourceAlpha" type="matrix" values="0 0 0 0 0 0 0 0 0 0 0 0 0 0 0 0 0 0 127 0" result="hardAlpha"/>
<feOffset dy="2.29885"/>
<feGaussianBlur stdDeviation="1.14943"/>
<feComposite in2="hardAlpha" operator="out"/>
<feColorMatrix type="matrix" values="0 0 0 0 0 0 0 0 0 0 0 0 0 0 0 0 0 0 0.25 0"/>
<feBlend mode="normal" in2="effect1_backgroundBlur_2015_104" result="effect2_dropShadow_2015_104"/>
<feBlend mode="normal" in="SourceGraphic" in2="effect2_dropShadow_2015_104" result="shape"/>
</filter>
<linearGradient id="paint0_linear_2015_104" x1="158.507" y1="92.6739" x2="158.507" y2="183.185" gradientUnits="userSpaceOnUse">
<stop stop-color="#598FFF"/>
<stop offset="1" stop-color="#365699"/>
</linearGradient>
<linearGradient id="paint1_linear_2015_104" x1="124.329" y1="109.684" x2="184.249" y2="180.443" gradientUnits="userSpaceOnUse">
<stop stop-color="#598FFF"/>
<stop offset="0.5" stop-color="#B3C1DE" stop-opacity="0.2"/>
<stop offset="1" stop-color="#598FFF"/>
</linearGradient>
<linearGradient id="paint2_linear_2015_104" x1="158.507" y1="92.6742" x2="158.507" y2="183.186" gradientUnits="userSpaceOnUse">
<stop stop-color="#598FFF"/>
<stop offset="1" stop-color="#365699"/>
</linearGradient>
<linearGradient id="paint3_linear_2015_104" x1="124.329" y1="109.684" x2="184.248" y2="180.443" gradientUnits="userSpaceOnUse">
<stop stop-color="#598FFF"/>
<stop offset="0.5" stop-color="#B3C1DE" stop-opacity="0.2"/>
<stop offset="1" stop-color="#598FFF"/>
</linearGradient>
</defs>
</svg>
