<svg width="313" height="292" viewBox="0 0 313 292" fill="none" xmlns="http://www.w3.org/2000/svg">
<g opacity="0.8" filter="url(#filter0_bdf_1_705)">
<path d="M187.095 117.805C181.498 115.195 175.438 113.302 169.125 112.207C169.07 112.206 169.015 112.216 168.964 112.238C168.913 112.26 168.868 112.292 168.831 112.334C168.073 113.722 167.189 115.532 166.6 116.921C159.905 115.911 153.096 115.911 146.4 116.921C145.811 115.49 144.927 113.722 144.128 112.334C144.086 112.25 143.959 112.207 143.833 112.207C137.521 113.302 131.503 115.195 125.864 117.805C125.821 117.805 125.779 117.847 125.737 117.889C114.291 135.017 111.134 151.682 112.691 168.178C112.691 168.262 112.734 168.347 112.818 168.389C120.393 173.944 127.673 177.31 134.869 179.541C134.996 179.583 135.122 179.541 135.164 179.457C136.847 177.142 138.362 174.701 139.667 172.134C139.751 171.966 139.667 171.797 139.499 171.755C137.1 170.83 134.827 169.735 132.597 168.473C132.429 168.389 132.429 168.136 132.555 168.01C133.018 167.673 133.481 167.295 133.944 166.958C134.028 166.874 134.154 166.874 134.238 166.916C148.715 173.523 164.328 173.523 178.636 166.916C178.72 166.874 178.846 166.874 178.931 166.958C179.394 167.337 179.856 167.673 180.319 168.052C180.488 168.178 180.488 168.431 180.277 168.515C178.089 169.82 175.774 170.872 173.376 171.797C173.207 171.84 173.165 172.05 173.207 172.176C174.554 174.743 176.069 177.184 177.71 179.499C177.836 179.541 177.963 179.583 178.089 179.541C185.327 177.31 192.608 173.944 200.183 168.389C200.267 168.347 200.309 168.262 200.309 168.178C202.161 149.115 197.237 132.576 187.263 117.889C187.221 117.847 187.179 117.805 187.095 117.805ZM141.855 158.12C137.521 158.12 133.901 154.122 133.901 149.199C133.901 144.275 137.436 140.277 141.855 140.277C146.316 140.277 149.851 144.317 149.809 149.199C149.809 154.122 146.274 158.12 141.855 158.12ZM171.187 158.12C166.853 158.12 163.234 154.122 163.234 149.199C163.234 144.275 166.769 140.277 171.187 140.277C175.648 140.277 179.183 144.317 179.141 149.199C179.141 154.122 175.648 158.12 171.187 158.12Z" fill="url(#paint0_linear_1_705)"/>
<path d="M139.413 172.005C139.413 172.003 139.413 172.002 139.413 172C139.413 171.996 139.414 171.998 139.41 172.006L139.413 172.007L139.413 172.005ZM139.413 172.005L139.434 172.016L139.667 172.134M139.413 172.005L139.499 171.755C139.667 171.797 139.751 171.966 139.667 172.134M139.667 172.134C138.362 174.701 136.847 177.142 135.164 179.457C135.122 179.541 134.996 179.583 134.869 179.541C127.673 177.31 120.393 173.944 112.818 168.389C112.734 168.347 112.691 168.262 112.691 168.178C111.134 151.682 114.291 135.017 125.737 117.889M139.667 172.134L125.952 118.08C125.949 118.084 125.945 118.087 125.94 118.092L125.936 118.088L125.927 118.092H125.864C125.891 118.092 125.913 118.087 125.93 118.082L125.864 118.015L125.737 117.889M125.737 117.889L125.864 117.973L125.976 118.048C125.972 118.054 125.968 118.06 125.964 118.066L144.128 112.334C144.086 112.25 143.959 112.207 143.833 112.207C137.521 113.302 131.503 115.195 125.864 117.805C125.821 117.805 125.779 117.847 125.737 117.889ZM186.973 118.065L187.031 118.092H187.054C196.974 132.717 201.866 149.176 200.023 168.149L200.013 168.157C192.466 173.692 185.215 177.044 178.004 179.266L178.004 179.266L177.998 179.268C177.992 179.27 177.979 179.273 177.947 179.268C177.929 179.265 177.911 179.26 177.889 179.254C176.283 176.983 174.8 174.59 173.479 172.076C173.479 172.076 173.479 172.075 173.479 172.075C173.48 172.071 173.48 172.068 173.48 172.065C175.883 171.138 178.207 170.082 180.408 168.772C180.602 168.684 180.716 168.509 180.727 168.316C180.738 168.128 180.651 167.945 180.497 167.826C180.264 167.636 180.031 167.456 179.802 167.279L179.801 167.278C179.572 167.101 179.347 166.927 179.122 166.743C178.933 166.566 178.677 166.576 178.513 166.656C164.283 173.226 148.76 173.227 134.361 166.656C134.198 166.577 133.947 166.566 133.76 166.736C133.53 166.904 133.301 167.081 133.075 167.255L133.073 167.257C132.841 167.436 132.613 167.612 132.386 167.778L132.368 167.791L132.352 167.807C132.224 167.935 132.169 168.113 132.179 168.274C132.188 168.437 132.268 168.626 132.461 168.726C134.7 169.993 136.984 171.093 139.395 172.023L139.4 172.025C138.109 174.561 136.612 176.975 134.948 179.264C127.782 177.043 120.533 173.69 112.988 168.157L112.977 168.149C111.427 151.725 114.565 135.137 125.956 118.078L125.984 118.065C131.592 115.471 137.576 113.586 143.854 112.496C143.862 112.496 143.87 112.497 143.877 112.498C143.883 112.5 143.889 112.501 143.893 112.502C144.683 113.877 145.554 115.621 146.134 117.03L146.22 117.239L146.443 117.205C153.11 116.199 159.89 116.199 166.557 117.205L166.778 117.238L166.865 117.033C167.444 115.667 168.313 113.887 169.062 112.511C169.066 112.507 169.072 112.504 169.077 112.502C169.085 112.499 169.094 112.496 169.103 112.495C175.381 113.586 181.408 115.471 186.973 118.065ZM169.072 112.491C169.072 112.491 169.072 112.491 169.072 112.491ZM200.183 168.389C200.267 168.347 200.309 168.262 200.309 168.178L177.71 179.499C177.836 179.541 177.963 179.583 178.089 179.541C185.327 177.31 192.608 173.944 200.183 168.389ZM133.614 149.199C133.614 154.251 137.333 158.408 141.855 158.408L149.809 149.199L150.096 149.201C150.096 149.201 150.096 149.2 150.096 149.2C150.139 144.19 146.505 139.99 141.855 139.99C137.247 139.99 133.614 144.149 133.614 149.199ZM162.946 149.199C162.946 154.251 166.665 158.408 171.187 158.408L179.141 149.199L179.428 149.201C179.428 149.201 179.428 149.201 179.428 149.2C179.471 144.191 175.837 139.99 171.187 139.99C166.579 139.99 162.946 144.149 162.946 149.199Z" stroke="url(#paint1_linear_1_705)" stroke-opacity="0.5" stroke-width="0.574713"/>
</g>
<g filter="url(#filter1_bd_1_705)">
<path d="M187.095 117.805C181.498 115.196 175.438 113.302 169.125 112.208C169.07 112.206 169.015 112.216 168.964 112.238C168.913 112.26 168.867 112.293 168.831 112.334C168.073 113.723 167.189 115.532 166.6 116.921C159.905 115.911 153.096 115.911 146.4 116.921C145.811 115.49 144.927 113.723 144.128 112.334C144.086 112.25 143.959 112.208 143.833 112.208C137.521 113.302 131.503 115.196 125.863 117.805C125.821 117.805 125.779 117.847 125.737 117.889C114.291 135.017 111.134 151.682 112.691 168.179C112.691 168.263 112.733 168.347 112.818 168.389C120.393 173.944 127.673 177.311 134.869 179.541C134.996 179.583 135.122 179.541 135.164 179.457C136.847 177.142 138.362 174.701 139.667 172.134C139.751 171.966 139.667 171.798 139.498 171.756C137.1 170.83 134.827 169.736 132.597 168.473C132.428 168.389 132.428 168.136 132.555 168.01C133.018 167.674 133.481 167.295 133.943 166.958C134.028 166.874 134.154 166.874 134.238 166.916C148.715 173.523 164.328 173.523 178.636 166.916C178.72 166.874 178.846 166.874 178.93 166.958C179.393 167.337 179.856 167.674 180.319 168.052C180.488 168.179 180.488 168.431 180.277 168.515C178.089 169.82 175.774 170.872 173.375 171.798C173.207 171.84 173.165 172.05 173.207 172.176C174.554 174.744 176.069 177.184 177.71 179.499C177.836 179.541 177.963 179.583 178.089 179.541C185.327 177.311 192.608 173.944 200.183 168.389C200.267 168.347 200.309 168.263 200.309 168.179C202.16 149.115 197.237 132.576 187.263 117.889C187.221 117.847 187.179 117.805 187.095 117.805ZM141.855 158.121C137.521 158.121 133.901 154.123 133.901 149.199C133.901 144.275 137.436 140.277 141.855 140.277C146.316 140.277 149.851 144.317 149.809 149.199C149.809 154.123 146.274 158.121 141.855 158.121ZM171.187 158.121C166.853 158.121 163.233 154.123 163.233 149.199C163.233 144.275 166.768 140.277 171.187 140.277C175.648 140.277 179.183 144.317 179.141 149.199C179.141 154.123 175.648 158.121 171.187 158.121Z" fill="url(#paint2_linear_1_705)" fill-opacity="0.35" shape-rendering="crispEdges"/>
<path d="M186.883 118.258L186.921 118.275C196.77 132.823 201.63 149.182 199.82 168.034C192.339 173.51 185.15 176.836 178.001 179.045C176.467 176.867 175.046 174.579 173.774 172.179C176.103 171.271 178.362 170.236 180.507 168.96C180.767 168.838 180.924 168.596 180.939 168.329C180.955 168.068 180.835 167.819 180.63 167.66C180.395 167.468 180.161 167.287 179.933 167.111L179.931 167.11C179.703 166.934 179.482 166.763 179.261 166.583C178.997 166.339 178.646 166.357 178.422 166.464C164.25 173.007 148.793 173.008 134.451 166.464C134.231 166.358 133.888 166.34 133.625 166.571C133.396 166.739 133.168 166.915 132.946 167.086L132.943 167.089C132.711 167.268 132.485 167.443 132.261 167.606L132.229 167.629L132.201 167.657C132.025 167.832 131.953 168.072 131.966 168.287C131.979 168.504 132.087 168.77 132.359 168.913C134.539 170.147 136.762 171.222 139.103 172.138C137.866 174.542 136.442 176.835 134.866 179.016C127.788 176.807 120.629 173.486 113.18 168.035C111.657 151.702 114.787 135.211 126.1 118.246C131.649 115.681 137.568 113.814 143.775 112.725C144.544 114.075 145.378 115.752 145.938 117.111L146.087 117.474L146.475 117.415C153.121 116.413 159.879 116.413 166.526 117.415L166.909 117.473L167.06 117.116C167.621 115.794 168.455 114.08 169.187 112.726C175.404 113.817 181.371 115.688 186.883 118.258ZM133.401 149.199C133.401 154.346 137.194 158.621 141.855 158.621C146.603 158.621 150.308 154.343 150.309 149.201C150.352 144.097 146.644 139.777 141.855 139.777C137.107 139.777 133.401 144.056 133.401 149.199ZM162.733 149.199C162.733 154.346 166.526 158.621 171.187 158.621L179.141 149.199L179.641 149.203C179.641 149.203 179.641 149.202 179.641 149.202C179.684 144.097 175.977 139.777 171.187 139.777C166.439 139.777 162.733 144.056 162.733 149.199Z" stroke="url(#paint3_linear_1_705)" stroke-opacity="0.5" shape-rendering="crispEdges"/>
</g>
<defs>
<filter id="filter0_bdf_1_705" x="0.620438" y="0.507278" width="311.773" height="290.751" filterUnits="userSpaceOnUse" color-interpolation-filters="sRGB">
<feFlood flood-opacity="0" result="BackgroundImageFix"/>
<feGaussianBlur in="BackgroundImageFix" stdDeviation="1.14943"/>
<feComposite in2="SourceAlpha" operator="in" result="effect1_backgroundBlur_1_705"/>
<feColorMatrix in="SourceAlpha" type="matrix" values="0 0 0 0 0 0 0 0 0 0 0 0 0 0 0 0 0 0 127 0" result="hardAlpha"/>
<feOffset dy="2.29885"/>
<feGaussianBlur stdDeviation="1.14943"/>
<feComposite in2="hardAlpha" operator="out"/>
<feColorMatrix type="matrix" values="0 0 0 0 0 0 0 0 0 0 0 0 0 0 0 0 0 0 0.25 0"/>
<feBlend mode="normal" in2="effect1_backgroundBlur_1_705" result="effect2_dropShadow_1_705"/>
<feBlend mode="normal" in="SourceGraphic" in2="effect2_dropShadow_1_705" result="shape"/>
<feGaussianBlur stdDeviation="55.85" result="effect3_foregroundBlur_1_705"/>
</filter>
<filter id="filter1_bd_1_705" x="110.021" y="109.909" width="92.9703" height="74.2476" filterUnits="userSpaceOnUse" color-interpolation-filters="sRGB">
<feFlood flood-opacity="0" result="BackgroundImageFix"/>
<feGaussianBlur in="BackgroundImageFix" stdDeviation="1.14943"/>
<feComposite in2="SourceAlpha" operator="in" result="effect1_backgroundBlur_1_705"/>
<feColorMatrix in="SourceAlpha" type="matrix" values="0 0 0 0 0 0 0 0 0 0 0 0 0 0 0 0 0 0 127 0" result="hardAlpha"/>
<feOffset dy="2.29885"/>
<feGaussianBlur stdDeviation="1.14943"/>
<feComposite in2="hardAlpha" operator="out"/>
<feColorMatrix type="matrix" values="0 0 0 0 0 0 0 0 0 0 0 0 0 0 0 0 0 0 0.25 0"/>
<feBlend mode="normal" in2="effect1_backgroundBlur_1_705" result="effect2_dropShadow_1_705"/>
<feBlend mode="normal" in="SourceGraphic" in2="effect2_dropShadow_1_705" result="shape"/>
</filter>
<linearGradient id="paint0_linear_1_705" x1="156.507" y1="94.1223" x2="156.507" y2="179.558" gradientUnits="userSpaceOnUse">
<stop stop-color="#274CBF"/>
<stop offset="1" stop-color="#365699"/>
</linearGradient>
<linearGradient id="paint1_linear_1_705" x1="124.245" y1="110.179" x2="180.805" y2="176.97" gradientUnits="userSpaceOnUse">
<stop stop-color="#598FFF"/>
<stop offset="0.5" stop-color="#B3C1DE" stop-opacity="0.2"/>
<stop offset="1" stop-color="#598FFF"/>
</linearGradient>
<linearGradient id="paint2_linear_1_705" x1="156.507" y1="94.1225" x2="156.507" y2="179.558" gradientUnits="userSpaceOnUse">
<stop stop-color="#598FFF"/>
<stop offset="1" stop-color="#365699"/>
</linearGradient>
<linearGradient id="paint3_linear_1_705" x1="124.245" y1="110.179" x2="180.805" y2="176.97" gradientUnits="userSpaceOnUse">
<stop stop-color="#598FFF"/>
<stop offset="0.5" stop-color="#B3C1DE" stop-opacity="0.2"/>
<stop offset="1" stop-color="#598FFF"/>
</linearGradient>
</defs>
</svg>
