<svg width="318" height="296" viewBox="0 0 318 296" fill="none" xmlns="http://www.w3.org/2000/svg">
<g opacity="0.8" filter="url(#filter0_bdf_1_335)">
<path d="M190.912 118.263C184.983 115.499 178.563 113.493 171.875 112.333C171.817 112.332 171.758 112.343 171.704 112.366C171.65 112.389 171.602 112.423 171.563 112.467C170.761 113.938 169.824 115.856 169.2 117.327C162.107 116.257 154.893 116.257 147.8 117.327C147.176 115.811 146.24 113.938 145.393 112.467C145.348 112.378 145.214 112.333 145.081 112.333C138.393 113.493 132.018 115.499 126.044 118.263C125.999 118.263 125.954 118.308 125.91 118.352C113.783 136.498 110.439 154.153 112.089 171.629C112.089 171.718 112.134 171.808 112.223 171.852C120.248 177.737 127.961 181.304 135.584 183.667C135.718 183.711 135.852 183.667 135.896 183.578C137.68 181.126 139.285 178.54 140.667 175.82C140.756 175.642 140.667 175.463 140.489 175.419C137.947 174.438 135.54 173.279 133.177 171.941C132.999 171.852 132.999 171.585 133.132 171.451C133.623 171.094 134.113 170.693 134.604 170.336C134.693 170.247 134.826 170.247 134.916 170.292C150.252 177.291 166.793 177.291 181.951 170.292C182.04 170.247 182.174 170.247 182.263 170.336C182.754 170.738 183.244 171.094 183.734 171.496C183.913 171.629 183.913 171.897 183.69 171.986C181.371 173.368 178.919 174.483 176.378 175.463C176.2 175.508 176.155 175.731 176.2 175.865C177.626 178.584 179.231 181.17 180.97 183.622C181.104 183.667 181.238 183.711 181.371 183.667C189.04 181.304 196.753 177.737 204.778 171.852C204.867 171.808 204.911 171.718 204.911 171.629C206.873 151.433 201.657 133.912 191.091 118.352C191.046 118.308 191.001 118.263 190.912 118.263ZM142.985 160.974C138.393 160.974 134.559 156.738 134.559 151.522C134.559 146.306 138.304 142.071 142.985 142.071C147.711 142.071 151.456 146.351 151.411 151.522C151.411 156.738 147.666 160.974 142.985 160.974ZM174.06 160.974C169.468 160.974 165.634 156.738 165.634 151.522C165.634 146.306 169.379 142.071 174.06 142.071C178.786 142.071 182.531 146.351 182.486 151.522C182.486 156.738 178.786 160.974 174.06 160.974Z" fill="url(#paint0_linear_1_335)"/>
<path d="M140.42 175.695C140.42 175.695 140.42 175.694 140.42 175.694C140.419 175.693 140.418 175.691 140.417 175.69C140.415 175.685 140.414 175.681 140.415 175.679C140.415 175.677 140.415 175.682 140.41 175.692L140.419 175.696L140.423 175.698L140.42 175.695ZM140.42 175.695L140.667 175.82M140.42 175.695L140.489 175.419C140.667 175.463 140.756 175.642 140.667 175.82M140.667 175.82C139.285 178.54 137.68 181.126 135.896 183.578C135.852 183.667 135.718 183.711 135.584 183.667C127.961 181.304 120.248 177.737 112.223 171.852C112.134 171.808 112.089 171.718 112.089 171.629C110.439 154.153 113.783 136.498 125.91 118.352M140.667 175.82L126.128 118.541C126.124 118.545 126.119 118.55 126.113 118.555L126.108 118.55L126.107 118.55H126.044C126.066 118.55 126.085 118.547 126.1 118.543L126.044 118.486L125.91 118.352M125.91 118.352L126.044 118.442L126.149 118.512C126.145 118.517 126.142 118.522 126.138 118.528L145.393 112.467C145.348 112.378 145.214 112.333 145.081 112.333C138.393 113.493 132.018 115.499 126.044 118.263C125.999 118.263 125.954 118.308 125.91 118.352ZM190.791 118.523L190.849 118.55H190.878C201.393 134.05 206.579 151.493 204.625 171.602L204.625 171.608L204.608 171.62C196.611 177.485 188.927 181.038 181.287 183.392L181.287 183.392L181.281 183.394C181.271 183.397 181.254 183.4 181.218 183.394C181.197 183.391 181.175 183.386 181.149 183.378C179.446 180.968 177.872 178.43 176.471 175.763C176.471 175.761 176.471 175.759 176.471 175.757C176.471 175.749 176.472 175.741 176.474 175.735L176.482 175.732C179.027 174.749 181.489 173.631 183.82 172.243C184.021 172.153 184.138 171.972 184.149 171.774C184.161 171.581 184.071 171.392 183.912 171.27C183.666 171.068 183.419 170.878 183.176 170.69L183.174 170.689C182.932 170.501 182.693 170.316 182.454 170.121C182.261 169.939 181.997 169.95 181.827 170.032C166.748 176.994 150.298 176.995 135.039 170.032C134.871 169.951 134.612 169.94 134.419 170.115C134.176 170.293 133.933 170.48 133.694 170.665L133.692 170.666C133.446 170.856 133.205 171.043 132.963 171.219L132.945 171.232L132.929 171.248C132.797 171.379 132.741 171.563 132.751 171.73C132.761 171.898 132.843 172.092 133.041 172.194C135.413 173.537 137.831 174.701 140.385 175.687L140.402 175.693L140.408 175.695C139.037 178.393 137.444 180.959 135.675 183.394L135.669 183.392C128.073 181.038 120.39 177.485 112.393 171.62L112.376 171.608L112.375 171.602C110.732 154.196 114.058 136.617 126.13 118.54L126.164 118.524C132.107 115.774 138.449 113.777 145.101 112.622C145.112 112.622 145.121 112.623 145.13 112.625C145.141 112.627 145.149 112.629 145.155 112.631C145.994 114.09 146.919 115.941 147.534 117.436L147.62 117.645L147.843 117.611C154.908 116.545 162.093 116.545 169.157 117.611L169.378 117.644L169.465 117.439C170.079 115.99 171.001 114.102 171.795 112.643C171.802 112.638 171.809 112.633 171.818 112.63C171.829 112.625 171.84 112.622 171.852 112.621C178.506 113.777 184.893 115.774 190.791 118.523ZM134.272 151.522C134.272 156.867 138.205 161.261 142.985 161.261L151.411 151.522L151.699 151.525C151.699 151.524 151.699 151.524 151.699 151.523C151.744 146.224 147.9 141.783 142.985 141.783C138.114 141.783 134.272 146.18 134.272 151.522ZM165.346 151.522C165.346 156.867 169.28 161.261 174.06 161.261L182.486 151.522L182.773 151.525C182.773 151.524 182.773 151.524 182.773 151.524C182.819 146.224 178.975 141.783 174.06 141.783C169.189 141.783 165.346 146.18 165.346 151.522Z" stroke="url(#paint1_linear_1_335)" stroke-opacity="0.5" stroke-width="0.574713"/>
</g>
<g filter="url(#filter1_bd_1_335)">
<path d="M190.912 118.263C184.983 115.499 178.563 113.493 171.875 112.334C171.816 112.332 171.758 112.343 171.704 112.366C171.65 112.389 171.602 112.424 171.563 112.467C170.761 113.939 169.824 115.856 169.2 117.327C162.107 116.257 154.893 116.257 147.8 117.327C147.176 115.811 146.24 113.939 145.393 112.467C145.348 112.378 145.214 112.334 145.081 112.334C138.393 113.493 132.018 115.499 126.043 118.263C125.999 118.263 125.954 118.308 125.91 118.352C113.783 136.498 110.439 154.153 112.089 171.63C112.089 171.719 112.133 171.808 112.223 171.852C120.248 177.737 127.961 181.304 135.584 183.667C135.718 183.712 135.852 183.667 135.896 183.578C137.68 181.126 139.285 178.54 140.667 175.82C140.756 175.642 140.667 175.464 140.488 175.419C137.947 174.438 135.54 173.279 133.177 171.942C132.998 171.852 132.998 171.585 133.132 171.451C133.623 171.095 134.113 170.693 134.603 170.337C134.693 170.247 134.826 170.247 134.916 170.292C150.252 177.292 166.793 177.292 181.951 170.292C182.04 170.247 182.174 170.247 182.263 170.337C182.753 170.738 183.244 171.095 183.734 171.496C183.913 171.63 183.913 171.897 183.69 171.986C181.371 173.368 178.919 174.483 176.378 175.464C176.2 175.508 176.155 175.731 176.2 175.865C177.626 178.585 179.231 181.17 180.97 183.622C181.104 183.667 181.238 183.712 181.371 183.667C189.04 181.304 196.753 177.737 204.778 171.852C204.867 171.808 204.911 171.719 204.911 171.63C206.873 151.433 201.657 133.912 191.091 118.352C191.046 118.308 191.001 118.263 190.912 118.263ZM142.985 160.974C138.393 160.974 134.559 156.739 134.559 151.522C134.559 146.306 138.304 142.071 142.985 142.071C147.711 142.071 151.456 146.351 151.411 151.522C151.411 156.739 147.666 160.974 142.985 160.974ZM174.06 160.974C169.468 160.974 165.633 156.739 165.633 151.522C165.633 146.306 169.378 142.071 174.06 142.071C178.786 142.071 182.531 146.351 182.486 151.522C182.486 156.739 178.786 160.974 174.06 160.974Z" fill="url(#paint2_linear_1_335)" fill-opacity="0.35" shape-rendering="crispEdges"/>
<path d="M190.701 118.716L190.748 118.738C201.191 134.16 206.344 151.504 204.422 171.493C196.482 177.305 188.853 180.834 181.267 183.176C179.63 180.854 178.114 178.413 176.758 175.853C179.237 174.887 181.639 173.788 183.919 172.431C184.185 172.307 184.346 172.06 184.362 171.787C184.377 171.521 184.255 171.267 184.045 171.104C183.796 170.901 183.549 170.709 183.307 170.523L183.304 170.521C183.063 170.334 182.828 170.153 182.594 169.962C182.325 169.712 181.965 169.73 181.736 169.84C166.715 176.775 150.331 176.776 135.129 169.84C134.903 169.732 134.553 169.713 134.285 169.95C134.042 170.127 133.8 170.314 133.565 170.496L133.562 170.498C133.316 170.689 133.076 170.874 132.838 171.047L132.806 171.07L132.779 171.098C132.599 171.277 132.525 171.523 132.538 171.742C132.551 171.965 132.662 172.236 132.939 172.382C135.257 173.693 137.621 174.836 140.111 175.809C138.793 178.374 137.274 180.82 135.592 183.146C128.081 180.804 120.484 177.28 112.578 171.493C110.961 154.178 114.278 136.693 126.274 118.708C132.164 115.985 138.446 114.003 145.035 112.849C145.852 114.283 146.742 116.069 147.338 117.517L147.487 117.88L147.875 117.821C154.918 116.759 162.082 116.759 169.126 117.821L169.509 117.879L169.66 117.522C170.258 116.115 171.147 114.288 171.924 112.85C178.521 114.005 184.852 115.99 190.701 118.716ZM134.059 151.522C134.059 156.962 138.067 161.474 142.985 161.474C147.995 161.474 151.91 156.959 151.911 151.525C151.957 146.13 148.039 141.571 142.985 141.571C137.974 141.571 134.059 146.087 134.059 151.522ZM165.133 151.522C165.133 156.962 169.141 161.474 174.06 161.474L182.486 151.522L182.986 151.527C182.986 151.526 182.986 151.526 182.986 151.525C183.032 146.131 179.114 141.571 174.06 141.571C169.049 141.571 165.133 146.087 165.133 151.522Z" stroke="url(#paint3_linear_1_335)" stroke-opacity="0.5" shape-rendering="crispEdges"/>
</g>
<defs>
<filter id="filter0_bdf_1_335" x="-0.00410461" y="0.633255" width="317.022" height="294.752" filterUnits="userSpaceOnUse" color-interpolation-filters="sRGB">
<feFlood flood-opacity="0" result="BackgroundImageFix"/>
<feGaussianBlur in="BackgroundImageFix" stdDeviation="1.14943"/>
<feComposite in2="SourceAlpha" operator="in" result="effect1_backgroundBlur_1_335"/>
<feColorMatrix in="SourceAlpha" type="matrix" values="0 0 0 0 0 0 0 0 0 0 0 0 0 0 0 0 0 0 127 0" result="hardAlpha"/>
<feOffset dy="2.29885"/>
<feGaussianBlur stdDeviation="1.14943"/>
<feComposite in2="hardAlpha" operator="out"/>
<feColorMatrix type="matrix" values="0 0 0 0 0 0 0 0 0 0 0 0 0 0 0 0 0 0 0.25 0"/>
<feBlend mode="normal" in2="effect1_backgroundBlur_1_335" result="effect2_dropShadow_1_335"/>
<feBlend mode="normal" in="SourceGraphic" in2="effect2_dropShadow_1_335" result="shape"/>
<feGaussianBlur stdDeviation="55.85" result="effect3_foregroundBlur_1_335"/>
</filter>
<filter id="filter1_bd_1_335" x="109.397" y="110.035" width="98.2201" height="78.2486" filterUnits="userSpaceOnUse" color-interpolation-filters="sRGB">
<feFlood flood-opacity="0" result="BackgroundImageFix"/>
<feGaussianBlur in="BackgroundImageFix" stdDeviation="1.14943"/>
<feComposite in2="SourceAlpha" operator="in" result="effect1_backgroundBlur_1_335"/>
<feColorMatrix in="SourceAlpha" type="matrix" values="0 0 0 0 0 0 0 0 0 0 0 0 0 0 0 0 0 0 127 0" result="hardAlpha"/>
<feOffset dy="2.29885"/>
<feGaussianBlur stdDeviation="1.14943"/>
<feComposite in2="hardAlpha" operator="out"/>
<feColorMatrix type="matrix" values="0 0 0 0 0 0 0 0 0 0 0 0 0 0 0 0 0 0 0.25 0"/>
<feBlend mode="normal" in2="effect1_backgroundBlur_1_335" result="effect2_dropShadow_1_335"/>
<feBlend mode="normal" in="SourceGraphic" in2="effect2_dropShadow_1_335" result="shape"/>
</filter>
<linearGradient id="paint0_linear_1_335" x1="158.507" y1="93.1739" x2="158.507" y2="183.685" gradientUnits="userSpaceOnUse">
<stop stop-color="#598FFF"/>
<stop offset="1" stop-color="#365699"/>
</linearGradient>
<linearGradient id="paint1_linear_1_335" x1="124.329" y1="110.184" x2="184.249" y2="180.943" gradientUnits="userSpaceOnUse">
<stop stop-color="#598FFF"/>
<stop offset="0.5" stop-color="#B3C1DE" stop-opacity="0.2"/>
<stop offset="1" stop-color="#598FFF"/>
</linearGradient>
<linearGradient id="paint2_linear_1_335" x1="158.507" y1="93.1742" x2="158.507" y2="183.686" gradientUnits="userSpaceOnUse">
<stop stop-color="#598FFF"/>
<stop offset="1" stop-color="#365699"/>
</linearGradient>
<linearGradient id="paint3_linear_1_335" x1="124.329" y1="110.184" x2="184.248" y2="180.943" gradientUnits="userSpaceOnUse">
<stop stop-color="#598FFF"/>
<stop offset="0.5" stop-color="#B3C1DE" stop-opacity="0.2"/>
<stop offset="1" stop-color="#598FFF"/>
</linearGradient>
</defs>
</svg>
