<svg width="24" height="24" viewBox="0 0 24 24" fill="none" xmlns="http://www.w3.org/2000/svg">
<path d="M10.5201 4.96082C10.6605 5.10144 10.7394 5.29207 10.7394 5.49082C10.7394 5.68957 10.6605 5.88019 10.5201 6.02082L5.55006 10.9908L19.9901 10.9908C20.189 10.9908 20.3797 11.0698 20.5204 11.2105C20.661 11.3511 20.7401 11.5419 20.7401 11.7408C20.7401 11.9397 20.661 12.1305 20.5204 12.2711C20.3797 12.4118 20.189 12.4908 19.9901 12.4908L5.55006 12.4908L10.5201 17.4608C10.6188 17.5525 10.691 17.6691 10.729 17.7983C10.767 17.9276 10.7694 18.0647 10.7361 18.1952C10.7027 18.3257 10.6347 18.4449 10.5393 18.54C10.444 18.6351 10.3247 18.7028 10.1941 18.7358C10.0637 18.7691 9.92674 18.7667 9.7976 18.7289C9.66845 18.6911 9.55187 18.6192 9.46006 18.5208L3.21006 12.2708C3.06961 12.1302 2.99072 11.9396 2.99072 11.7408C2.99072 11.5421 3.06961 11.3514 3.21006 11.2108L9.46006 4.96082C9.60069 4.82036 9.79131 4.74148 9.99006 4.74148C10.1888 4.74148 10.3794 4.82036 10.5201 4.96082Z" fill="#B3C0DE"/>
</svg>
