<svg width="20" height="21" viewBox="0 0 20 21" fill="none" xmlns="http://www.w3.org/2000/svg">
<path d="M14.6814 13.4998C14.5158 13.4997 14.357 13.4339 14.2399 13.3168C14.1228 13.1997 14.0569 13.0408 14.0568 12.8752L14.0568 7.01801L5.54797 15.5269C5.43076 15.6441 5.27179 15.7099 5.10603 15.7099C4.94027 15.7099 4.7813 15.6441 4.66409 15.5269C4.54688 15.4097 4.48103 15.2507 4.48103 15.0849C4.48103 14.9192 4.54688 14.7602 4.66409 14.643L13.1729 6.13413L7.31574 6.13413C7.20355 6.13829 7.09231 6.11211 6.99375 6.05834C6.89519 6.00458 6.81296 5.92524 6.75571 5.82866C6.69846 5.73208 6.66833 5.62185 6.66847 5.50958C6.66862 5.39731 6.69904 5.28716 6.75654 5.19073C6.81374 5.09428 6.89584 5.01499 6.99423 4.96118C7.09262 4.90737 7.20367 4.88103 7.31574 4.88491L14.6814 4.88491C14.8471 4.88501 15.0059 4.95085 15.123 5.06797C15.2401 5.18508 15.3059 5.34389 15.306 5.50952L15.306 12.8752C15.3059 13.0408 15.2401 13.1997 15.123 13.3168C15.0059 13.4339 14.8471 13.4997 14.6814 13.4998Z" fill="#B3C0DE"/>
</svg>
