<svg width="20" height="20" viewBox="0 0 20 20" fill="none" xmlns="http://www.w3.org/2000/svg">
<path d="M4.02497 13.1624C3.84941 12.9866 3.75079 12.7483 3.75079 12.4999C3.75079 12.2515 3.84941 12.0132 4.02497 11.8374L9.33747 6.52491C9.51325 6.34934 9.75153 6.25073 9.99997 6.25073C10.2484 6.25073 10.4867 6.34934 10.6625 6.52491L15.975 11.8374C16.062 11.9244 16.131 12.0277 16.1781 12.1414C16.2251 12.255 16.2494 12.3769 16.2494 12.4999C16.2494 12.6229 16.2251 12.7448 16.1781 12.8584C16.131 12.9721 16.062 13.0754 15.975 13.1624C15.888 13.2494 15.7847 13.3184 15.671 13.3655C15.5573 13.4126 15.4355 13.4368 15.3125 13.4368C15.1894 13.4368 15.0676 13.4126 14.9539 13.3655C14.8403 13.3184 14.737 13.2494 14.65 13.1624L9.99997 8.51366L5.34997 13.1624C5.17419 13.338 4.93591 13.4366 4.68747 13.4366C4.43903 13.4366 4.20075 13.338 4.02497 13.1624Z" fill="#04154D"/>
</svg>
