<svg width="24" height="24" viewBox="0 0 24 24" fill="none" xmlns="http://www.w3.org/2000/svg">
<path d="M13.2109 18.5398C13.0704 18.3992 12.9916 18.2085 12.9916 18.0098C12.9916 17.811 13.0704 17.6204 13.2109 17.4798L18.1809 12.5098L3.74089 12.5098C3.54198 12.5098 3.35122 12.4308 3.21056 12.2901C3.06991 12.1495 2.99089 11.9587 2.99089 11.7598C2.99089 11.5609 3.06991 11.3701 3.21056 11.2295C3.35122 11.0888 3.54198 11.0098 3.74089 11.0098L18.1809 11.0098L13.2109 6.03979C13.1122 5.94812 13.04 5.83152 13.002 5.70227C12.964 5.57302 12.9615 5.43591 12.9949 5.30539C13.0283 5.17486 13.0962 5.05576 13.1916 4.96062C13.287 4.86548 13.4063 4.79783 13.5369 4.76479C13.6673 4.73148 13.8042 4.73387 13.9334 4.7717C14.0625 4.80952 14.1791 4.8814 14.2709 4.97979L20.5209 11.2298C20.6613 11.3704 20.7402 11.561 20.7402 11.7598C20.7402 11.9585 20.6613 12.1492 20.5209 12.2898L14.2709 18.5398C14.1303 18.6802 13.9396 18.7591 13.7409 18.7591C13.5421 18.7591 13.3515 18.6802 13.2109 18.5398Z" fill="#B3C0DE"/>
</svg>
