<svg width="24" height="24" viewBox="0 0 24 24" fill="none" xmlns="http://www.w3.org/2000/svg">
<path d="M8.01481 4C6.90352 4 6 4.89688 6 6V18C6 19.1031 6.90352 20 8.01481 20H16.0741C17.1854 20 18.0889 19.1031 18.0889 18V6C18.0889 4.89688 17.1854 4 16.0741 4H8.01481ZM11.037 14H13.0519C14.4433 14 15.5704 15.1187 15.5704 16.5C15.5704 16.775 15.3437 17 15.0667 17H9.02222C8.74519 17 8.51852 16.775 8.51852 16.5C8.51852 15.1187 9.64556 14 11.037 14ZM10.0296 11C10.0296 10.4696 10.2419 9.96086 10.6198 9.58579C10.9976 9.21071 11.5101 9 12.0444 9C12.5788 9 13.0913 9.21071 13.4691 9.58579C13.847 9.96086 14.0593 10.4696 14.0593 11C14.0593 11.5304 13.847 12.0391 13.4691 12.4142C13.0913 12.7893 12.5788 13 12.0444 13C11.5101 13 10.9976 12.7893 10.6198 12.4142C10.2419 12.0391 10.0296 11.5304 10.0296 11ZM10.5333 6H13.5556C13.8326 6 14.0593 6.225 14.0593 6.5C14.0593 6.775 13.8326 7 13.5556 7H10.5333C10.2563 7 10.0296 6.775 10.0296 6.5C10.0296 6.225 10.2563 6 10.5333 6Z" fill="#B3C0DE"/>
</svg>
