<svg width="16" height="16" viewBox="0 0 16 16" fill="none" xmlns="http://www.w3.org/2000/svg">
<path d="M11.7453 10.3999C11.6128 10.3998 11.4857 10.3472 11.392 10.2535C11.2983 10.1598 11.2457 10.0327 11.2456 9.90022L11.2456 5.21446L4.4385 12.0215C4.34473 12.1153 4.21756 12.168 4.08495 12.168C3.95234 12.168 3.82516 12.1153 3.7314 12.0215C3.63763 11.9278 3.58495 11.8006 3.58495 11.668C3.58495 11.5354 3.63763 11.4082 3.7314 11.3144L10.5385 4.50735L5.85272 4.50735C5.76296 4.51068 5.67397 4.48973 5.59512 4.44673C5.51628 4.40372 5.45049 4.34024 5.40469 4.26298C5.35889 4.18571 5.33478 4.09753 5.3349 4.00771C5.33502 3.9179 5.35935 3.82978 5.40535 3.75264C5.45111 3.67547 5.51679 3.61204 5.5955 3.56899C5.67421 3.52595 5.76306 3.50487 5.85272 3.50798L11.7453 3.50798C11.8778 3.50806 12.0048 3.56073 12.0985 3.65442C12.1922 3.74812 12.2449 3.87517 12.245 4.00767L12.245 9.90022C12.2449 10.0327 12.1922 10.1598 12.0985 10.2535C12.0048 10.3472 11.8778 10.3998 11.7453 10.3999Z" fill="#B3C0DE"/>
</svg>
