<svg width="24" height="24" viewBox="0 0 24 24" fill="none" xmlns="http://www.w3.org/2000/svg">
<path fill-rule="evenodd" clip-rule="evenodd" d="M4.23965 5.45451C4.08702 5.29055 4.00393 5.0737 4.00788 4.84963C4.01183 4.62557 4.10251 4.41178 4.26082 4.25332C4.41913 4.09486 4.63271 4.00409 4.85656 4.00013C5.08041 3.99618 5.29705 4.07935 5.46084 4.23213L8.48964 7.2627C9.53457 6.68726 10.7247 6.28019 12 6.28019C13.765 6.28019 15.3641 7.0609 16.6486 7.98691C17.9366 8.91522 18.9562 10.0269 19.5737 10.7742L19.5783 10.7799C19.8548 11.1236 20 11.5583 20 12C20 12.4417 19.8548 12.8764 19.5783 13.2201L19.5737 13.227C18.8047 14.1644 17.9359 15.0151 16.9827 15.764L19.7604 18.5455C19.913 18.7094 19.9961 18.9263 19.9921 19.1504C19.9882 19.3744 19.8975 19.5882 19.7392 19.7467C19.5809 19.9051 19.3673 19.9959 19.1435 19.9999C18.9196 20.0038 18.703 19.9206 18.5392 19.7679L4.23965 5.45451ZM14.3237 13.1036C14.5516 12.6236 14.6255 12.0848 14.5352 11.5611C14.445 11.0374 14.195 10.5545 13.8195 10.1787C13.4441 9.80292 12.9617 9.55267 12.4385 9.46231C11.9153 9.37194 11.377 9.4459 10.8975 9.67402L14.3237 13.1036ZM4.42744 10.7742C4.79495 10.3279 5.30531 9.75359 5.93089 9.16546L14.1152 17.3577C13.4346 17.5932 12.7201 17.7155 12 17.7198C10.235 17.7198 8.63596 16.9403 7.3514 16.0142C6.06338 15.0848 5.04379 13.9731 4.42628 13.227L4.42168 13.2201C4.14689 12.8731 3.99819 12.4428 4.00002 12C4.00002 11.5583 4.14518 11.1236 4.42168 10.7799L4.42744 10.7742Z" fill="#B3C0DE"/>
</svg>
