<svg width="16" height="16" viewBox="0 0 16 16" fill="none" xmlns="http://www.w3.org/2000/svg">
<path d="M3.22007 10.5301C3.07962 10.3894 3.00073 10.1988 3.00073 10.0001C3.00073 9.80132 3.07962 9.6107 3.22007 9.47007L7.47007 5.22007C7.6107 5.07962 7.80132 5.00073 8.00007 5.00073C8.19882 5.00073 8.38945 5.07962 8.53007 5.22007L12.7801 9.47007C12.8497 9.53967 12.9049 9.6223 12.9426 9.71324C12.9802 9.80418 12.9996 9.90164 12.9996 10.0001C12.9996 10.0985 12.9802 10.196 12.9426 10.2869C12.9049 10.3778 12.8497 10.4605 12.7801 10.5301C12.7105 10.5997 12.6278 10.6549 12.5369 10.6926C12.446 10.7302 12.3485 10.7496 12.2501 10.7496C12.1516 10.7496 12.0542 10.7302 11.9632 10.6926C11.8723 10.6549 11.7897 10.5997 11.7201 10.5301L8.00007 6.81107L4.28007 10.5301C4.13945 10.6705 3.94882 10.7494 3.75007 10.7494C3.55132 10.7494 3.3607 10.6705 3.22007 10.5301Z" fill="#04154D"/>
</svg>
