<svg width="149" height="48" viewBox="0 0 149 48" fill="none" xmlns="http://www.w3.org/2000/svg">
<g clip-path="url(#clip0_1_371)">
<path d="M78.611 30.7816C77.743 30.1801 76.6573 29.8801 75.3553 29.8801H75.2304C73.927 29.8801 72.8473 30.1801 71.99 30.7816C71.1297 31.38 70.4855 32.245 70.05 33.3703C69.9754 33.5667 69.9054 33.7693 69.846 33.9824C69.7866 33.7693 69.7196 33.5683 69.6495 33.3703C69.2353 32.2465 68.5973 31.38 67.74 30.7816C66.8827 30.1801 65.8015 29.8801 64.4996 29.8801H64.3747C63.0712 29.8801 61.9961 30.1801 61.1495 30.7816C60.3028 31.38 59.6648 32.245 59.243 33.3703C59.144 33.6353 59.0542 33.9139 58.978 34.2048V30.3781H56.6208V46.9427H59.5978V37.0158C59.5978 35.6331 59.9709 34.5489 60.714 33.7753C61.4601 33.0003 62.4423 32.612 63.662 32.612C64.8818 32.612 65.7604 32.9805 66.4213 33.7129C67.0852 34.4484 67.4156 35.4869 67.4156 36.8315V46.9427H70.3926V37.0158C70.3926 35.6331 70.7657 34.5489 71.5088 33.7753C72.2519 33.0003 73.2341 32.612 74.4538 32.612C75.6736 32.612 76.5552 32.9805 77.2161 33.7129C77.877 34.4484 78.209 35.4869 78.209 36.8315V46.9427H81.1875V37.4817C81.1875 35.8676 80.9743 34.5002 80.551 33.3703C80.1292 32.2465 79.4805 31.38 78.6125 30.7816H78.611Z" fill="#B3C0DE"/>
<path d="M92.9706 30.7984C91.8956 30.3949 90.5099 30.1924 88.815 30.1924C88.3171 30.1924 87.8024 30.1969 87.2633 30.2076C86.7273 30.2183 86.2035 30.2381 85.6979 30.27C85.1909 30.3005 84.7081 30.337 84.2544 30.3782V32.9836C84.7081 32.9425 85.2472 32.9105 85.8654 32.8907C86.4867 32.8694 87.1369 32.8496 87.8207 32.8283C88.5013 32.807 89.1653 32.7978 89.8048 32.7978C90.9423 32.7978 91.8042 33.0887 92.395 33.6658C92.9828 34.246 93.2782 35.1033 93.2782 36.2408V36.6443H89.0922C87.6653 36.6443 86.4441 36.8468 85.4315 37.2473C84.4188 37.6509 83.6468 38.2447 83.1199 39.032C82.5915 39.8162 82.3296 40.7984 82.3296 41.977C82.3296 43.1556 82.5702 44.0861 83.0575 44.8946C83.5417 45.7002 84.2361 46.3169 85.1345 46.7387C86.0329 47.1635 87.1034 47.3737 88.3445 47.3737C89.5018 47.3737 90.4901 47.1696 91.3078 46.7539C92.124 46.3397 92.7666 45.7352 93.2295 44.9403C93.4549 44.5566 93.6361 44.1302 93.7731 43.6582V46.9397H96.1304V36.4555C96.1304 34.9038 95.8715 33.6734 95.3538 32.7643C94.8375 31.8552 94.0411 31.1974 92.9645 30.7954L92.9706 30.7984ZM92.5854 43.3292C92.1605 43.9383 91.6276 44.3739 90.9865 44.6327C90.3469 44.8916 89.6723 45.018 88.9704 45.018C87.7704 45.018 86.8507 44.7408 86.2096 44.1805C85.57 43.6231 85.2487 42.8876 85.2487 41.9786C85.2487 41.0695 85.57 40.3264 86.2096 39.7462C86.8522 39.1691 87.7719 38.8782 88.9704 38.8782H93.2813V40.7999C93.2402 41.875 93.0072 42.7201 92.5839 43.3277L92.5854 43.3292Z" fill="#B3C0DE"/>
<path d="M106.959 29.8801H106.834C105.451 29.8801 104.303 30.1755 103.391 30.7664C102.482 31.3542 101.806 32.2145 101.359 33.3414C101.248 33.6261 101.149 33.9261 101.064 34.2459V30.3781H98.7068V46.9427H101.685V37.0462C101.685 35.7047 102.089 34.6266 102.894 33.821C103.7 33.0155 104.754 32.612 106.057 32.612C107.361 32.612 108.311 33.0003 109.036 33.7753C109.759 34.5504 110.121 35.5813 110.121 36.8635V46.9442H113.098V37.4833C113.098 35.0225 112.596 33.1419 111.594 31.8384C110.592 30.5349 109.048 29.8832 106.957 29.8832L106.959 29.8801Z" fill="#B3C0DE"/>
<path d="M128.363 32.8754C127.72 31.8627 126.914 31.1059 125.943 30.611C124.909 30.0826 123.762 29.8207 122.5 29.8207C121.238 29.8207 120.21 30.0415 119.228 30.4862C118.245 30.9308 117.396 31.546 116.683 32.3302C115.97 33.1175 115.416 34.0266 115.023 35.0605C114.632 36.0945 114.435 37.2 114.435 38.3786V38.9375C114.435 40.1374 114.638 41.2536 115.038 42.2876C115.442 43.3215 116.013 44.2306 116.745 45.0148C117.478 45.8021 118.344 46.4112 119.336 46.8467C120.329 47.2822 121.413 47.4969 122.591 47.4969C123.77 47.4969 124.955 47.235 126.019 46.7066C127.083 46.1782 127.967 45.3316 128.672 44.1621C128.783 43.9778 128.886 43.7844 128.979 43.5819V46.9396H131.337V24.2961H128.36V32.8739L128.363 32.8754ZM128.487 39.2177C128.487 40.378 128.239 41.3861 127.741 42.2434C127.246 43.1007 126.584 43.7585 125.757 44.2123C124.93 44.6676 124.011 44.896 122.998 44.896C121.92 44.896 120.959 44.6417 120.112 44.1347C119.266 43.6291 118.602 42.9043 118.128 41.9632C117.651 41.0221 117.412 39.9212 117.412 38.6603C117.412 37.3995 117.645 36.3031 118.111 35.3727C118.576 34.4423 119.228 33.7175 120.065 33.2012C120.901 32.6835 121.868 32.4246 122.966 32.4246C123.959 32.4246 124.872 32.6363 125.71 33.0612C126.549 33.483 127.221 34.0951 127.726 34.89C128.233 35.6879 128.487 36.6549 128.487 37.7908V39.2161V39.2177Z" fill="#B3C0DE"/>
<path d="M148.926 37.8853C148.926 36.4996 148.641 35.1961 148.073 33.9764C147.504 32.7567 146.636 31.7593 145.468 30.9842C144.3 30.2076 142.815 29.8208 141.017 29.8208C139.631 29.8208 138.427 30.0614 137.403 30.5487C136.38 31.036 135.538 31.6862 134.875 32.5024C134.215 33.3216 133.723 34.2353 133.404 35.2479C133.083 36.2606 132.923 37.3052 132.923 38.3802V38.9391C132.923 39.9928 133.083 41.0268 133.404 42.0394C133.723 43.0521 134.215 43.9672 134.875 44.785C135.539 45.6012 136.397 46.256 137.45 46.7539C138.504 47.2518 139.756 47.497 141.204 47.497C142.508 47.497 143.675 47.2823 144.709 46.8468C145.743 46.4113 146.601 45.7824 147.284 44.9555C147.965 44.1271 148.422 43.145 148.647 42.0075H145.858C145.692 42.7719 145.2 43.4449 144.384 44.0236C143.567 44.6038 142.508 44.8946 141.206 44.8946C139.904 44.8946 138.941 44.6205 138.136 44.0708C137.327 43.5241 136.735 42.781 136.351 41.8384C136.03 41.0481 135.844 40.1756 135.794 39.2162H148.927V37.8853H148.926ZM135.911 36.9839C136.007 36.4296 136.152 35.9134 136.349 35.4352C136.733 34.5048 137.31 33.7693 138.088 33.2333C138.864 32.6943 139.84 32.4247 141.018 32.4247C142.197 32.4247 143.095 32.6638 143.841 33.1404C144.585 33.614 145.142 34.2825 145.515 35.1398C145.754 35.6895 145.917 36.3032 146.002 36.9839H135.912H135.911Z" fill="#B3C0DE"/>
<path d="M36.7594 11.6435C39.7828 11.6435 42.2337 9.19253 42.2337 6.16915C42.2337 3.14576 39.7828 0.694824 36.7594 0.694824C33.736 0.694824 31.2851 3.14576 31.2851 6.16915C31.2851 9.19253 33.736 11.6435 36.7594 11.6435Z" fill="#B3C0DE"/>
<path d="M32.9084 13.9094C32.9084 13.9094 32.1333 15.4383 26.3361 25.7717C26.0636 26.2529 25.7895 26.6915 25.5093 27.0798C25.4834 27.0493 25.4621 27.0143 25.4392 26.9838C25.1849 26.6184 24.9322 26.2149 24.6824 25.7717C18.8853 15.4383 18.1102 13.9094 18.1102 13.9094H10.8984L0 47.2503C0 47.2503 8.81526 49.3334 11.2197 41.479C13.6241 33.6246 15.8672 26.7341 15.8672 26.7341C15.8672 26.7341 20.7293 39.8999 27.9548 36.0427C29.7654 35.0758 31.7237 33.046 33.7946 29.4659C33.8464 29.3654 33.8982 29.2634 33.9469 29.166C34.6337 27.8183 35.1514 26.7356 35.1514 26.7356C35.1514 26.7356 37.3944 33.6292 39.7989 41.4836C42.2033 49.3349 51.0186 47.2533 51.0186 47.2533L40.1202 13.9125H32.9084V13.9094Z" fill="#B3C0DE"/>
<path d="M17.203 11.0325C19.9962 9.87551 21.3227 6.6732 20.1657 3.87996C19.0087 1.08671 15.8064 -0.239725 13.0131 0.917274C10.2199 2.07427 8.89344 5.27658 10.0504 8.06982C11.2074 10.8631 14.4097 12.1895 17.203 11.0325Z" fill="#B3C0DE"/>
</g>
<defs>
<clipPath id="clip0_1_371">
<rect width="148.926" height="47" fill="white" transform="translate(0 0.5)"/>
</clipPath>
</defs>
</svg>
