<svg width="101" height="32" viewBox="0 0 101 32" fill="none" xmlns="http://www.w3.org/2000/svg">
<g clip-path="url(#clip0_1_740)">
<path d="M53.3132 20.6172C52.7245 20.2077 51.9882 20.0034 51.1052 20.0034H51.0205C50.1365 20.0034 49.4043 20.2077 48.8229 20.6172C48.2394 21.0246 47.8026 21.6135 47.5072 22.3797C47.4566 22.5134 47.4091 22.6513 47.3688 22.7965C47.3286 22.6513 47.2831 22.5145 47.2356 22.3797C46.9547 21.6146 46.522 21.0246 45.9406 20.6172C45.3592 20.2077 44.6259 20.0034 43.743 20.0034H43.6583C42.7743 20.0034 42.0452 20.2077 41.471 20.6172C40.8968 21.0246 40.4641 21.6135 40.178 22.3797C40.1109 22.5601 40.0499 22.7498 39.9983 22.9479V20.3424H38.3997V31.6205H40.4186V24.8617C40.4186 23.9203 40.6716 23.1822 41.1756 22.6555C41.6816 22.1278 42.3477 21.8634 43.175 21.8634C44.0022 21.8634 44.598 22.1143 45.0462 22.613C45.4965 23.1137 45.7206 23.8208 45.7206 24.7363V31.6205H47.7396V24.8617C47.7396 23.9203 47.9926 23.1822 48.4966 22.6555C49.0005 22.1278 49.6666 21.8634 50.4938 21.8634C51.321 21.8634 51.919 22.1143 52.3672 22.613C52.8154 23.1137 53.0405 23.8208 53.0405 24.7363V31.6205H55.0605V25.179C55.0605 24.08 54.9159 23.149 54.6288 22.3797C54.3428 21.6146 53.9028 21.0246 53.3142 20.6172H53.3132Z" fill="#B3C0DE"/>
<path d="M63.0517 20.6287C62.3226 20.354 61.3829 20.2161 60.2334 20.2161C59.8957 20.2161 59.5467 20.2192 59.1811 20.2264C58.8176 20.2337 58.4623 20.2472 58.1195 20.2689C57.7756 20.2897 57.4482 20.3146 57.1404 20.3426V22.1165C57.4482 22.0885 57.8138 22.0667 58.2331 22.0532C58.6544 22.0387 59.0954 22.0252 59.5591 22.0107C60.0207 21.9962 60.471 21.99 60.9047 21.99C61.6761 21.99 62.2607 22.188 62.6614 22.5809C63.06 22.976 63.2603 23.5597 63.2603 24.3341V24.6089H60.4214C59.4537 24.6089 58.6255 24.7468 57.9387 25.0194C57.252 25.2942 56.7284 25.6985 56.3711 26.2345C56.0127 26.7685 55.8351 27.4372 55.8351 28.2397C55.8351 29.0421 55.9983 29.6756 56.3287 30.2261C56.6571 30.7746 57.1281 31.1945 57.7374 31.4816C58.3467 31.7709 59.0727 31.914 59.9143 31.914C60.6992 31.914 61.3694 31.775 61.924 31.492C62.4775 31.21 62.9133 30.7984 63.2273 30.2572C63.3801 29.9959 63.503 29.7057 63.596 29.3843V31.6185H65.1946V24.4803C65.1946 23.4238 65.0191 22.5861 64.6679 21.9672C64.3178 21.3482 63.7777 20.9003 63.0476 20.6266L63.0517 20.6287ZM62.7905 29.1603C62.5023 29.575 62.1409 29.8715 61.7061 30.0478C61.2724 30.224 60.8149 30.3101 60.3388 30.3101C59.525 30.3101 58.9012 30.1214 58.4665 29.7399C58.0327 29.3604 57.8148 28.8596 57.8148 28.2407C57.8148 27.6217 58.0327 27.1158 58.4665 26.7208C58.9023 26.3278 59.526 26.1298 60.3388 26.1298H63.2624V27.4382C63.2345 28.1702 63.0765 28.7456 62.7894 29.1593L62.7905 29.1603Z" fill="#B3C0DE"/>
<path d="M72.5382 20.0034H72.4535C71.5158 20.0034 70.7371 20.2046 70.1185 20.6068C69.502 21.007 69.0435 21.5928 68.7409 22.36C68.6655 22.5539 68.5984 22.7581 68.5405 22.9758V20.3424H66.9419V31.6205H68.9619V24.8825C68.9619 23.9691 69.2356 23.235 69.7819 22.6866C70.3282 22.1381 71.0428 21.8634 71.9268 21.8634C72.8108 21.8634 73.4553 22.1278 73.9468 22.6555C74.4374 23.1832 74.6832 23.8851 74.6832 24.7581V31.6215H76.7021V25.18C76.7021 23.5046 76.3613 22.2242 75.6818 21.3367C75.0023 20.4492 73.9551 20.0055 72.5372 20.0055L72.5382 20.0034Z" fill="#B3C0DE"/>
<path d="M87.0541 22.0428C86.6183 21.3534 86.072 20.8381 85.4131 20.5012C84.7119 20.1414 83.9343 19.9631 83.0782 19.9631C82.222 19.9631 81.525 20.1134 80.8589 20.4161C80.1927 20.7189 79.6165 21.1377 79.1332 21.6717C78.6499 22.2077 78.274 22.8266 78.0075 23.5306C77.7421 24.2346 77.6089 24.9873 77.6089 25.7897V26.1702C77.6089 26.9872 77.7462 27.7472 78.0178 28.4511C78.2915 29.1551 78.6788 29.7741 79.1755 30.308C79.6723 30.844 80.2599 31.2587 80.9322 31.5552C81.6055 31.8517 82.3408 31.9979 83.1401 31.9979C83.9395 31.9979 84.7429 31.8196 85.4648 31.4598C86.1867 31.1001 86.7856 30.5236 87.2638 29.7274C87.3392 29.602 87.4094 29.4703 87.4724 29.3324V31.6185H89.071V16.2017H87.0521V22.0418L87.0541 22.0428ZM87.1388 26.361C87.1388 27.151 86.9705 27.8374 86.6328 28.4211C86.2972 29.0048 85.8479 29.4527 85.2872 29.7616C84.7264 30.0716 84.1026 30.2271 83.4159 30.2271C82.6847 30.2271 82.0331 30.054 81.4589 29.7087C80.8847 29.3645 80.4344 28.871 80.1132 28.2303C79.79 27.5896 79.6279 26.84 79.6279 25.9815C79.6279 25.1231 79.7859 24.3766 80.1019 23.7431C80.4169 23.1097 80.8589 22.6162 81.4268 22.2647C81.9938 21.9122 82.6496 21.736 83.3942 21.736C84.0675 21.736 84.6871 21.8801 85.2551 22.1693C85.8242 22.4565 86.2796 22.8733 86.6225 23.4145C86.9664 23.9578 87.1388 24.6161 87.1388 25.3895V26.36V26.361Z" fill="#B3C0DE"/>
<path d="M101 25.4539C101 24.5104 100.807 23.6229 100.422 22.7925C100.035 21.962 99.4467 21.2829 98.6546 20.7552C97.8625 20.2265 96.8556 19.9631 95.636 19.9631C94.6962 19.9631 93.8793 20.1269 93.1854 20.4587C92.4914 20.7905 91.9203 21.2332 91.471 21.7889C91.0228 22.3467 90.6893 22.9687 90.4734 23.6582C90.2555 24.3476 90.1471 25.0589 90.1471 25.7908V26.1713C90.1471 26.8888 90.2555 27.5927 90.4734 28.2822C90.6893 28.9717 91.0228 29.5948 91.471 30.1515C91.9213 30.7072 92.5027 31.153 93.2174 31.4921C93.932 31.8311 94.7809 31.998 95.763 31.998C96.647 31.998 97.4391 31.8518 98.1403 31.5553C98.8416 31.2588 99.423 30.8306 99.8867 30.2676C100.348 29.7036 100.658 29.0349 100.811 28.2604H98.919C98.8065 28.7809 98.4729 29.2391 97.9193 29.6331C97.3658 30.0281 96.647 30.2262 95.7641 30.2262C94.8811 30.2262 94.2284 30.0395 93.6821 29.6653C93.1337 29.2931 92.732 28.7871 92.4717 28.1453C92.2538 27.6073 92.1279 27.0132 92.0938 26.36H101.001V25.4539H101ZM92.1733 24.8401C92.2384 24.4627 92.3365 24.1113 92.4707 23.7857C92.731 23.1522 93.1224 22.6515 93.6501 22.2865C94.1757 21.9195 94.8377 21.736 95.637 21.736C96.4364 21.736 97.0457 21.8988 97.5517 22.2233C98.0557 22.5457 98.4336 23.0009 98.6867 23.5846C98.8488 23.9589 98.9593 24.3767 99.0171 24.8401H92.1743H92.1733Z" fill="#B3C0DE"/>
<path d="M24.9299 7.58721C26.9803 7.58721 28.6425 5.91849 28.6425 3.86001C28.6425 1.80154 26.9803 0.132812 24.9299 0.132812C22.8795 0.132812 21.2173 1.80154 21.2173 3.86001C21.2173 5.91849 22.8795 7.58721 24.9299 7.58721Z" fill="#B3C0DE"/>
<path d="M22.3181 9.12988C22.3181 9.12988 21.7925 10.1708 17.8609 17.2063C17.676 17.534 17.4901 17.8326 17.3001 18.0969C17.2826 18.0762 17.2681 18.0524 17.2526 18.0316C17.0802 17.7828 16.9087 17.508 16.7394 17.2063C12.8078 10.1708 12.2821 9.12988 12.2821 9.12988H7.39118L0 31.83C0 31.83 5.97842 33.2483 7.60908 27.9007C9.23974 22.553 10.7609 17.8616 10.7609 17.8616C10.7609 17.8616 14.0584 26.8255 18.9587 24.1994C20.1866 23.541 21.5147 22.159 22.9192 19.7216C22.9543 19.6531 22.9894 19.5837 23.0224 19.5173C23.4882 18.5998 23.8393 17.8626 23.8393 17.8626C23.8393 17.8626 25.3605 22.5561 26.9912 27.9038C28.6218 33.2494 34.6002 31.8321 34.6002 31.8321L27.2091 9.13196H22.3181V9.12988Z" fill="#B3C0DE"/>
<path d="M11.6669 7.17108C13.5613 6.38333 14.4609 4.20304 13.6762 2.30126C12.8915 0.399475 10.7198 -0.503632 8.82541 0.284112C6.93106 1.07186 6.03148 3.25215 6.81615 5.15393C7.60081 7.05572 9.77258 7.95882 11.6669 7.17108Z" fill="#B3C0DE"/>
</g>
<defs>
<clipPath id="clip0_1_740">
<rect width="101" height="32" fill="white"/>
</clipPath>
</defs>
</svg>
