<svg width="45" height="44" viewBox="0 0 45 44" fill="none" xmlns="http://www.w3.org/2000/svg">
<g filter="url(#filter0_bd_1_568)">
<path d="M36.7406 13.5232C36.3808 12.7714 35.8741 12.0994 35.2502 11.5469L30.3904 7.14063C29.3208 6.16016 27.9626 5.55211 26.5188 5.4073H16.54C15.4669 5.36179 14.3954 5.53017 13.388 5.90264C12.3806 6.27511 11.4573 6.84423 10.6719 7.57688C9.88645 8.30953 9.25461 9.19107 8.81309 10.1702C8.37157 11.1493 8.12921 12.2065 8.1001 13.2802V29.9655C8.1574 31.5847 8.69898 33.1495 9.65484 34.4576C10.6107 35.7658 11.9369 36.7572 13.4621 37.3039C14.4541 37.679 15.5132 37.8445 16.5724 37.7898H28.8191C29.8923 37.8358 30.9639 37.6677 31.9716 37.2954C32.9792 36.9231 33.9026 36.354 34.6881 35.6213C35.4736 34.8885 36.1055 34.0068 36.5468 33.0275C36.9882 32.0481 37.2303 30.9908 37.259 29.9169V16.0341C37.2668 15.1698 37.09 14.3137 36.7406 13.5232ZM15.6814 12.8752H20.9624C21.392 12.8752 21.8041 13.0459 22.1079 13.3497C22.4117 13.6535 22.5823 14.0655 22.5823 14.4951C22.5823 14.9248 22.4117 15.3368 22.1079 15.6406C21.8041 15.9444 21.392 16.1151 20.9624 16.1151H15.6814C15.2518 16.1151 14.8397 15.9444 14.5359 15.6406C14.2321 15.3368 14.0615 14.9248 14.0615 14.4951C14.0615 14.0655 14.2321 13.6535 14.5359 13.3497C14.8397 13.0459 15.2518 12.8752 15.6814 12.8752ZM29.7748 30.2247H15.6814C15.2518 30.2247 14.8397 30.0541 14.5359 29.7503C14.2321 29.4465 14.0615 29.0344 14.0615 28.6048C14.0615 28.1752 14.2321 27.7631 14.5359 27.4593C14.8397 27.1555 15.2518 26.9849 15.6814 26.9849H29.7748C30.161 27.0399 30.5143 27.2324 30.7699 27.527C31.0255 27.8216 31.1663 28.1985 31.1663 28.5886C31.1663 28.9786 31.0255 29.3556 30.7699 29.6502C30.5143 29.9448 30.161 30.1373 29.7748 30.1923V30.2247ZM29.7748 23.178H15.6814C15.2518 23.178 14.8397 23.0073 14.5359 22.7035C14.2321 22.3997 14.0615 21.9877 14.0615 21.5581C14.0615 21.1284 14.2321 20.7164 14.5359 20.4126C14.8397 20.1088 15.2518 19.9381 15.6814 19.9381H29.7748C30.2045 19.9381 30.6165 20.1088 30.9203 20.4126C31.2241 20.7164 31.3948 21.1284 31.3948 21.5581C31.3948 21.9877 31.2241 22.3997 30.9203 22.7035C30.6165 23.0073 30.2045 23.178 29.7748 23.178ZM29.2565 14.155C29.0254 14.1571 28.7961 14.1134 28.582 14.0265C28.3678 13.9395 28.1731 13.811 28.0089 13.6483C27.8447 13.4856 27.7144 13.292 27.6254 13.0787C27.5365 12.8654 27.4907 12.6365 27.4907 12.4054V8.11259C28.5599 8.37178 32.7231 12.6484 33.6303 13.3612C33.8986 13.5872 34.1283 13.8553 34.3107 14.155H29.2565Z" fill="url(#paint0_linear_1_568)" fill-opacity="0.3" shape-rendering="crispEdges"/>
</g>
<g filter="url(#filter1_bd_1_568)">
<path fill-rule="evenodd" clip-rule="evenodd" d="M30.3904 7.14063C29.3208 6.16016 27.9626 5.55211 26.5188 5.4073H16.54C15.4669 5.36179 14.3954 5.53017 13.388 5.90264C12.3806 6.27511 11.4573 6.84423 10.6719 7.57688C9.88645 8.30953 9.25461 9.19107 8.81309 10.1702C8.37157 11.1493 8.12921 12.2065 8.1001 13.2802V29.9655C8.1574 31.5847 8.69898 33.1495 9.65484 34.4576C10.6107 35.7658 11.9369 36.7572 13.4621 37.3039C14.4541 37.679 15.5132 37.8445 16.5724 37.7898H28.8191C29.8923 37.8358 30.9639 37.6677 31.9716 37.2954C32.9792 36.9231 33.9026 36.354 34.6881 35.6213C35.4736 34.8885 36.1055 34.0068 36.5468 33.0275C36.9882 32.0481 37.2303 30.9908 37.259 29.9169V16.0341C37.2668 15.1698 37.09 14.3137 36.7406 13.5232C36.3808 12.7714 35.8741 12.0994 35.2502 11.5469L30.3904 7.14063ZM36.1953 13.7736C35.8704 13.0977 35.4138 12.4933 34.8524 11.996L34.8472 11.9914L29.985 7.58294C29.018 6.69658 27.7921 6.1444 26.4881 6.0073H16.5273L16.5145 6.00676C15.5209 5.96462 14.5289 6.12053 13.5961 6.46541C12.6633 6.81029 11.8084 7.33725 11.0811 8.01562C10.3539 8.694 9.76886 9.51024 9.36005 10.4168C8.95234 11.321 8.72803 12.2971 8.7001 13.2885V29.9547C8.75511 31.4502 9.25629 32.8952 10.1393 34.1036C11.0243 35.3149 12.2523 36.2329 13.6645 36.739L13.6694 36.7408L13.6743 36.7426C14.5888 37.0885 15.5651 37.241 16.5415 37.1906L16.5569 37.1898H28.8319L28.8448 37.1904C29.8384 37.2329 30.8307 37.0773 31.7636 36.7326C32.6965 36.3879 33.5516 35.8609 34.2789 35.1825C35.0062 34.5041 35.5912 33.6877 35.9998 32.7809C36.4074 31.8766 36.6314 30.9004 36.659 29.9088V16.0287C36.666 15.2526 36.5079 14.4839 36.1953 13.7736ZM30.3748 30.8247H15.6814C15.0926 30.8247 14.528 30.5908 14.1117 30.1745C13.6954 29.7582 13.4615 29.1936 13.4615 28.6048C13.4615 28.016 13.6954 27.4514 14.1117 27.0351C14.528 26.6187 15.0926 26.3849 15.6814 26.3849H29.8174L29.8595 26.3909C30.3887 26.4663 30.8728 26.73 31.2231 27.1338C31.5734 27.5375 31.7663 28.0541 31.7663 28.5886C31.7663 29.1231 31.5734 29.6397 31.2231 30.0434C30.9907 30.3113 30.6993 30.5176 30.3748 30.6481V30.8247ZM28.0907 8.42766C29.0923 9.10683 30.7814 10.7071 32.0642 11.9224C32.7699 12.5909 33.3526 13.143 33.6303 13.3612C33.7033 13.4227 33.7735 13.4874 33.8407 13.555C34.0202 13.7355 34.178 13.9369 34.3107 14.155H29.2565C29.0254 14.1571 28.7961 14.1134 28.582 14.0265C28.3678 13.9395 28.1731 13.811 28.0089 13.6483C27.8447 13.4856 27.7144 13.292 27.6254 13.0787C27.5365 12.8654 27.4907 12.6365 27.4907 12.4054V8.11259C27.6377 8.14823 27.8433 8.25982 28.0907 8.42766ZM29.259 14.755H35.378L34.8233 13.8431C34.6072 13.4879 34.3348 13.1702 34.0169 12.9023L34.0091 12.8957L34.001 12.8894C33.8012 12.7324 33.3951 12.3553 32.8508 11.8408C32.7318 11.7283 32.6072 11.6103 32.4783 11.4882C32.0309 11.0643 31.5309 10.5907 31.0286 10.1262C30.3822 9.52862 29.7215 8.93656 29.1507 8.47519C28.8658 8.24484 28.5948 8.04016 28.3537 7.88179C28.1289 7.73414 27.8734 7.58797 27.6321 7.52948L26.8907 7.34976V12.4054C26.8907 12.7158 26.9522 13.0231 27.0716 13.3096C27.1911 13.5961 27.3661 13.856 27.5866 14.0745C27.8071 14.293 28.0686 14.4656 28.3562 14.5824C28.6429 14.6988 28.9497 14.7574 29.259 14.755ZM15.6814 12.2752H20.9624C21.5512 12.2752 22.1158 12.5091 22.5321 12.9254C22.9484 13.3417 23.1823 13.9064 23.1823 14.4951C23.1823 15.0839 22.9484 15.6486 22.5321 16.0649C22.1158 16.4812 21.5512 16.7151 20.9624 16.7151H15.6814C15.0926 16.7151 14.528 16.4812 14.1117 16.0649C13.6954 15.6486 13.4615 15.0839 13.4615 14.4951C13.4615 13.9064 13.6954 13.3417 14.1117 12.9254C14.528 12.5091 15.0926 12.2752 15.6814 12.2752ZM29.7748 23.778H15.6814C15.0926 23.778 14.528 23.5441 14.1117 23.1278C13.6954 22.7115 13.4615 22.1468 13.4615 21.5581C13.4615 20.9693 13.6954 20.4047 14.1117 19.9883C14.528 19.572 15.0926 19.3381 15.6814 19.3381H29.7748C30.3636 19.3381 30.9283 19.572 31.3446 19.9883C31.7609 20.4047 31.9948 20.9693 31.9948 21.5581C31.9948 22.1468 31.7609 22.7115 31.3446 23.1278C30.9283 23.5441 30.3636 23.778 29.7748 23.778ZM20.9624 12.8752H15.6814C15.2518 12.8752 14.8397 13.0459 14.5359 13.3497C14.2321 13.6535 14.0615 14.0655 14.0615 14.4951C14.0615 14.9248 14.2321 15.3368 14.5359 15.6406C14.8397 15.9444 15.2518 16.1151 15.6814 16.1151H20.9624C21.392 16.1151 21.8041 15.9444 22.1079 15.6406C22.4117 15.3368 22.5823 14.9248 22.5823 14.4951C22.5823 14.0655 22.4117 13.6535 22.1079 13.3497C21.8041 13.0459 21.392 12.8752 20.9624 12.8752ZM29.7748 30.2247V30.1923C30.161 30.1373 30.5143 29.9448 30.7699 29.6502C31.0255 29.3556 31.1663 28.9786 31.1663 28.5886C31.1663 28.1985 31.0255 27.8216 30.7699 27.527C30.5143 27.2324 30.161 27.0399 29.7748 26.9849H15.6814C15.2518 26.9849 14.8397 27.1555 14.5359 27.4593C14.2321 27.7631 14.0615 28.1752 14.0615 28.6048C14.0615 29.0344 14.2321 29.4465 14.5359 29.7503C14.8397 30.0541 15.2518 30.2247 15.6814 30.2247H29.7748ZM15.6814 23.178H29.7748C30.2045 23.178 30.6165 23.0073 30.9203 22.7035C31.2241 22.3997 31.3948 21.9877 31.3948 21.5581C31.3948 21.1284 31.2241 20.7164 30.9203 20.4126C30.6165 20.1088 30.2045 19.9381 29.7748 19.9381H15.6814C15.2518 19.9381 14.8397 20.1088 14.5359 20.4126C14.2321 20.7164 14.0615 21.1284 14.0615 21.5581C14.0615 21.9877 14.2321 22.3997 14.5359 22.7035C14.8397 23.0073 15.2518 23.178 15.6814 23.178Z" fill="url(#paint1_linear_1_568)" fill-opacity="0.5" shape-rendering="crispEdges"/>
</g>
<defs>
<filter id="filter0_bd_1_568" x="5.7001" y="3.00002" width="33.9591" height="39.6" filterUnits="userSpaceOnUse" color-interpolation-filters="sRGB">
<feFlood flood-opacity="0" result="BackgroundImageFix"/>
<feGaussianBlur in="BackgroundImageFix" stdDeviation="1.2"/>
<feComposite in2="SourceAlpha" operator="in" result="effect1_backgroundBlur_1_568"/>
<feColorMatrix in="SourceAlpha" type="matrix" values="0 0 0 0 0 0 0 0 0 0 0 0 0 0 0 0 0 0 127 0" result="hardAlpha"/>
<feOffset dy="2.4"/>
<feGaussianBlur stdDeviation="1.2"/>
<feComposite in2="hardAlpha" operator="out"/>
<feColorMatrix type="matrix" values="0 0 0 0 0 0 0 0 0 0 0 0 0 0 0 0 0 0 0.25 0"/>
<feBlend mode="normal" in2="effect1_backgroundBlur_1_568" result="effect2_dropShadow_1_568"/>
<feBlend mode="normal" in="SourceGraphic" in2="effect2_dropShadow_1_568" result="shape"/>
</filter>
<filter id="filter1_bd_1_568" x="5.7001" y="3.00002" width="33.9591" height="39.6" filterUnits="userSpaceOnUse" color-interpolation-filters="sRGB">
<feFlood flood-opacity="0" result="BackgroundImageFix"/>
<feGaussianBlur in="BackgroundImageFix" stdDeviation="1.2"/>
<feComposite in2="SourceAlpha" operator="in" result="effect1_backgroundBlur_1_568"/>
<feColorMatrix in="SourceAlpha" type="matrix" values="0 0 0 0 0 0 0 0 0 0 0 0 0 0 0 0 0 0 127 0" result="hardAlpha"/>
<feOffset dy="2.4"/>
<feGaussianBlur stdDeviation="1.2"/>
<feComposite in2="hardAlpha" operator="out"/>
<feColorMatrix type="matrix" values="0 0 0 0 0 0 0 0 0 0 0 0 0 0 0 0 0 0 0.25 0"/>
<feBlend mode="normal" in2="effect1_backgroundBlur_1_568" result="effect2_dropShadow_1_568"/>
<feBlend mode="normal" in="SourceGraphic" in2="effect2_dropShadow_1_568" result="shape"/>
</filter>
<linearGradient id="paint0_linear_1_568" x1="22.6797" y1="-3.29997" x2="22.6797" y2="37.8" gradientUnits="userSpaceOnUse">
<stop stop-color="#598FFF"/>
<stop offset="1" stop-color="#365699"/>
</linearGradient>
<linearGradient id="paint1_linear_1_568" x1="12.0348" y1="4.42412" x2="39.0189" y2="26.2805" gradientUnits="userSpaceOnUse">
<stop stop-color="#598FFF"/>
<stop offset="0.5" stop-color="#B3C1DE" stop-opacity="0.2"/>
<stop offset="1" stop-color="#598FFF"/>
</linearGradient>
</defs>
</svg>
