<svg width="73" height="72" viewBox="0 0 73 72" fill="none" xmlns="http://www.w3.org/2000/svg">
<g filter="url(#filter0_bd_1_398)">
<path d="M60.2341 22.5386C59.6346 21.2857 58.79 20.1657 57.7502 19.2447L49.6505 11.901C47.8678 10.2669 45.6041 9.25347 43.1978 9.01212H26.5665C24.7779 8.93628 22.9922 9.21692 21.3131 9.8377C19.6341 10.4585 18.0953 11.407 16.7863 12.6281C15.4773 13.8492 14.4242 15.3184 13.6883 16.9503C12.9525 18.5822 12.5485 20.3441 12.5 22.1336V49.9425C12.5955 52.6411 13.4981 55.2491 15.0912 57.4293C16.6843 59.6096 18.8947 61.262 21.4367 62.173C23.0901 62.7983 24.8551 63.0741 26.6204 62.983H47.0317C48.8203 63.0596 50.6064 62.7795 52.2858 62.159C53.9651 61.5384 55.5042 60.5899 56.8134 59.3687C58.1226 58.1475 59.1756 56.678 59.9112 55.0457C60.6469 53.4135 61.0503 51.6512 61.0981 49.8615V26.7234C61.1111 25.2829 60.8166 23.8562 60.2341 22.5386ZM25.1355 21.4586H33.9372C34.6532 21.4586 35.3399 21.7431 35.8463 22.2494C36.3526 22.7557 36.6371 23.4425 36.6371 24.1585C36.6371 24.8746 36.3526 25.5613 35.8463 26.0676C35.3399 26.574 34.6532 26.8584 33.9372 26.8584H25.1355C24.4194 26.8584 23.7327 26.574 23.2264 26.0676C22.7201 25.5613 22.4356 24.8746 22.4356 24.1585C22.4356 23.4425 22.7201 22.7557 23.2264 22.2494C23.7327 21.7431 24.4194 21.4586 25.1355 21.4586ZM48.6246 50.3745H25.1355C24.4194 50.3745 23.7327 50.0901 23.2264 49.5837C22.7201 49.0774 22.4356 48.3907 22.4356 47.6746C22.4356 46.9586 22.7201 46.2718 23.2264 45.7655C23.7327 45.2592 24.4194 44.9747 25.1355 44.9747H48.6246C49.2682 45.0664 49.857 45.3872 50.2831 45.8783C50.7091 46.3693 50.9436 46.9975 50.9436 47.6476C50.9436 48.2977 50.7091 48.9259 50.2831 49.417C49.857 49.908 49.2682 50.2288 48.6246 50.3205V50.3745ZM48.6246 38.63H25.1355C24.4194 38.63 23.7327 38.3455 23.2264 37.8392C22.7201 37.3329 22.4356 36.6461 22.4356 35.9301C22.4356 35.214 22.7201 34.5273 23.2264 34.021C23.7327 33.5146 24.4194 33.2302 25.1355 33.2302H48.6246C49.3406 33.2302 50.0274 33.5146 50.5337 34.021C51.04 34.5273 51.3245 35.214 51.3245 35.9301C51.3245 36.6461 51.04 37.3329 50.5337 37.8392C50.0274 38.3455 49.3406 38.63 48.6246 38.63ZM47.7606 23.5916C47.3754 23.5951 46.9934 23.5223 46.6365 23.3774C46.2796 23.2325 45.9549 23.0182 45.6813 22.7471C45.4077 22.476 45.1905 22.1533 45.0422 21.7978C44.894 21.4423 44.8177 21.0609 44.8177 20.6757V13.5209C46.5997 13.9529 53.5384 21.0807 55.0503 22.2686C55.4974 22.6453 55.8804 23.0921 56.1843 23.5916H47.7606Z" fill="url(#paint0_linear_1_398)" fill-opacity="0.3" shape-rendering="crispEdges"/>
<path d="M57.4144 19.6151L57.4144 19.6152L57.4187 19.619C58.4065 20.494 59.2093 21.5578 59.7799 22.7477C60.3315 23.9983 60.6105 25.352 60.5981 26.7189V26.7234V49.8548C60.5513 51.5759 60.1628 53.2706 59.4554 54.8403C58.747 56.4121 57.733 57.8271 56.4723 59.0031C55.2117 60.1791 53.7296 61.0924 52.1125 61.6899C50.4953 62.2875 48.7755 62.5572 47.053 62.4835L47.0423 62.483H47.0317H26.6204H26.6076L26.5947 62.4837C24.8984 62.5712 23.2023 62.3062 21.6135 61.7054L21.6135 61.7053L21.6053 61.7024C19.1575 60.8251 17.029 59.2339 15.4949 57.1344C13.9626 55.0372 13.0936 52.5291 13 49.9336V22.1404C13.0475 20.4196 13.4364 18.7252 14.1441 17.1558C14.8527 15.5844 15.8668 14.1696 17.1273 12.9937C18.3879 11.8179 19.8697 10.9045 21.4865 10.3067C23.1034 9.70888 24.823 9.43864 26.5453 9.51167L26.5559 9.51212H26.5665H43.1725C45.4623 9.74712 47.6156 10.714 49.3127 12.2696L49.3147 12.2714L57.4144 19.6151ZM48.6246 50.8745H49.1246V50.7239C49.7177 50.5541 50.2523 50.2153 50.6607 49.7446C51.1656 49.1627 51.4436 48.4181 51.4436 47.6476C51.4436 46.8772 51.1656 46.1326 50.6607 45.5506C50.1558 44.9686 49.4579 44.5884 48.6951 44.4797L48.66 44.4747H48.6246H25.1355C24.2868 44.4747 23.4729 44.8118 22.8728 45.4119C22.2727 46.012 21.9356 46.8259 21.9356 47.6746C21.9356 48.5233 22.2727 49.3372 22.8728 49.9373C23.4729 50.5374 24.2868 50.8745 25.1355 50.8745H48.6246ZM44.9355 13.035L44.3177 12.8853V13.5209V20.6756C44.3177 21.1269 44.4071 21.5737 44.5807 21.9902C44.7544 22.4067 45.0088 22.7847 45.3294 23.1023C45.6499 23.4199 46.0302 23.6709 46.4483 23.8406C46.8657 24.0101 47.3125 24.0954 47.7629 24.0916H56.1843H57.0738L56.6114 23.3317C56.2794 22.786 55.861 22.2978 55.3725 21.8862L55.366 21.8807L55.3592 21.8754C55.0038 21.5961 54.3068 20.9477 53.4077 20.098C53.2086 19.9098 53.0005 19.7127 52.7853 19.5089C52.04 18.8027 51.2096 18.016 50.3747 17.2441C49.2994 16.25 48.208 15.2724 47.2701 14.5141C46.8014 14.1353 46.364 13.8055 45.9815 13.5542C45.6126 13.3119 45.248 13.1108 44.9355 13.035ZM33.9372 20.9586H25.1355C24.2868 20.9586 23.4729 21.2958 22.8728 21.8959C22.2727 22.496 21.9356 23.3099 21.9356 24.1585C21.9356 25.0072 22.2727 25.8211 22.8728 26.4212C23.4729 27.0213 24.2868 27.3584 25.1355 27.3584H33.9372C34.7858 27.3584 35.5997 27.0213 36.1998 26.4212C36.7999 25.8211 37.1371 25.0072 37.1371 24.1585C37.1371 23.3099 36.7999 22.496 36.1998 21.8959C35.5997 21.2958 34.7858 20.9586 33.9372 20.9586ZM25.1355 39.13H48.6246C49.4732 39.13 50.2872 38.7928 50.8873 38.1927C51.4874 37.5926 51.8245 36.7787 51.8245 35.9301C51.8245 35.0814 51.4874 34.2675 50.8873 33.6674C50.2872 33.0673 49.4732 32.7302 48.6246 32.7302H25.1355C24.2868 32.7302 23.4729 33.0673 22.8728 33.6674C22.2727 34.2675 21.9356 35.0814 21.9356 35.9301C21.9356 36.7787 22.2727 37.5926 22.8728 38.1927C23.4729 38.7928 24.2868 39.13 25.1355 39.13Z" stroke="url(#paint1_linear_1_398)" stroke-opacity="0.5" shape-rendering="crispEdges"/>
</g>
<defs>
<filter id="filter0_bd_1_398" x="8.5" y="5" width="56.5985" height="66" filterUnits="userSpaceOnUse" color-interpolation-filters="sRGB">
<feFlood flood-opacity="0" result="BackgroundImageFix"/>
<feGaussianBlur in="BackgroundImageFix" stdDeviation="2"/>
<feComposite in2="SourceAlpha" operator="in" result="effect1_backgroundBlur_1_398"/>
<feColorMatrix in="SourceAlpha" type="matrix" values="0 0 0 0 0 0 0 0 0 0 0 0 0 0 0 0 0 0 127 0" result="hardAlpha"/>
<feOffset dy="4"/>
<feGaussianBlur stdDeviation="2"/>
<feComposite in2="hardAlpha" operator="out"/>
<feColorMatrix type="matrix" values="0 0 0 0 0 0 0 0 0 0 0 0 0 0 0 0 0 0 0.25 0"/>
<feBlend mode="normal" in2="effect1_backgroundBlur_1_398" result="effect2_dropShadow_1_398"/>
<feBlend mode="normal" in="SourceGraphic" in2="effect2_dropShadow_1_398" result="shape"/>
</filter>
<linearGradient id="paint0_linear_1_398" x1="36.7993" y1="-5.5" x2="36.7993" y2="63" gradientUnits="userSpaceOnUse">
<stop stop-color="#598FFF"/>
<stop offset="1" stop-color="#365699"/>
</linearGradient>
<linearGradient id="paint1_linear_1_398" x1="19.0579" y1="7.3735" x2="64.0313" y2="43.8008" gradientUnits="userSpaceOnUse">
<stop stop-color="#598FFF"/>
<stop offset="0.5" stop-color="#B3C1DE" stop-opacity="0.2"/>
<stop offset="1" stop-color="#598FFF"/>
</linearGradient>
</defs>
</svg>
