<svg width="73" height="72" viewBox="0 0 73 72" fill="none" xmlns="http://www.w3.org/2000/svg">
<g filter="url(#filter0_bd_1_313)">
<path fill-rule="evenodd" clip-rule="evenodd" d="M10 20C10 17.8783 10.8429 15.8434 12.3431 14.3431C13.8434 12.8429 15.8783 12 18 12H55.3333C57.4551 12 59.4899 12.8429 60.9902 14.3431C62.4905 15.8434 63.3333 17.8783 63.3333 20V52C63.3333 54.1217 62.4905 56.1566 60.9902 57.6569C59.4899 59.1571 57.4551 60 55.3333 60H18C15.8783 60 13.8434 59.1571 12.3431 57.6569C10.8429 56.1566 10 54.1217 10 52V20ZM23.3333 22.6667C22.6261 22.6667 21.9478 22.9476 21.4477 23.4477C20.9476 23.9478 20.6667 24.6261 20.6667 25.3333C20.6667 26.0406 20.9476 26.7189 21.4477 27.219C21.9478 27.719 22.6261 28 23.3333 28H36.6667C37.3739 28 38.0522 27.719 38.5523 27.219C39.0524 26.7189 39.3333 26.0406 39.3333 25.3333C39.3333 24.6261 39.0524 23.9478 38.5523 23.4477C38.0522 22.9476 37.3739 22.6667 36.6667 22.6667H23.3333ZM44.6667 22.6667C43.9594 22.6667 43.2811 22.9476 42.7811 23.4477C42.281 23.9478 42 24.6261 42 25.3333C42 26.0406 42.281 26.7189 42.7811 27.219C43.2811 27.719 43.9594 28 44.6667 28H50C50.7072 28 51.3855 27.719 51.8856 27.219C52.3857 26.7189 52.6667 26.0406 52.6667 25.3333C52.6667 24.6261 52.3857 23.9478 51.8856 23.4477C51.3855 22.9476 50.7072 22.6667 50 22.6667H44.6667ZM23.3333 33.3333C22.6261 33.3333 21.9478 33.6143 21.4477 34.1144C20.9476 34.6145 20.6667 35.2928 20.6667 36C20.6667 36.7072 20.9476 37.3855 21.4477 37.8856C21.9478 38.3857 22.6261 38.6667 23.3333 38.6667H26C26.7072 38.6667 27.3855 38.3857 27.8856 37.8856C28.3857 37.3855 28.6667 36.7072 28.6667 36C28.6667 35.2928 28.3857 34.6145 27.8856 34.1144C27.3855 33.6143 26.7072 33.3333 26 33.3333H23.3333ZM34 33.3333C33.2928 33.3333 32.6145 33.6143 32.1144 34.1144C31.6143 34.6145 31.3333 35.2928 31.3333 36C31.3333 36.7072 31.6143 37.3855 32.1144 37.8856C32.6145 38.3857 33.2928 38.6667 34 38.6667H50C50.7072 38.6667 51.3855 38.3857 51.8856 37.8856C52.3857 37.3855 52.6667 36.7072 52.6667 36C52.6667 35.2928 52.3857 34.6145 51.8856 34.1144C51.3855 33.6143 50.7072 33.3333 50 33.3333H34ZM23.3333 44C22.6261 44 21.9478 44.281 21.4477 44.7811C20.9476 45.2811 20.6667 45.9594 20.6667 46.6667C20.6667 47.3739 20.9476 48.0522 21.4477 48.5523C21.9478 49.0524 22.6261 49.3333 23.3333 49.3333H36.6667C37.3739 49.3333 38.0522 49.0524 38.5523 48.5523C39.0524 48.0522 39.3333 47.3739 39.3333 46.6667C39.3333 45.9594 39.0524 45.2811 38.5523 44.7811C38.0522 44.281 37.3739 44 36.6667 44H23.3333ZM44.6667 44C43.9594 44 43.2811 44.281 42.7811 44.7811C42.281 45.2811 42 45.9594 42 46.6667C42 47.3739 42.281 48.0522 42.7811 48.5523C43.2811 49.0524 43.9594 49.3333 44.6667 49.3333H50C50.7072 49.3333 51.3855 49.0524 51.8856 48.5523C52.3857 48.0522 52.6667 47.3739 52.6667 46.6667C52.6667 45.9594 52.3857 45.2811 51.8856 44.7811C51.3855 44.281 50.7072 44 50 44H44.6667Z" fill="url(#paint0_linear_1_313)" fill-opacity="0.25" shape-rendering="crispEdges"/>
<path d="M10.5 20C10.5 18.0109 11.2902 16.1032 12.6967 14.6967C14.1032 13.2902 16.0109 12.5 18 12.5H55.3333C57.3225 12.5 59.2301 13.2902 60.6366 14.6967C62.0432 16.1032 62.8333 18.0109 62.8333 20V52C62.8333 53.9891 62.0432 55.8968 60.6366 57.3033C59.2301 58.7098 57.3225 59.5 55.3333 59.5H18C16.0109 59.5 14.1032 58.7098 12.6967 57.3033C11.2902 55.8968 10.5 53.9891 10.5 52V20ZM23.3333 22.1667C22.4935 22.1667 21.688 22.5003 21.0942 23.0942C20.5003 23.688 20.1667 24.4935 20.1667 25.3333C20.1667 26.1732 20.5003 26.9786 21.0942 27.5725C21.688 28.1664 22.4935 28.5 23.3333 28.5H36.6667C37.5065 28.5 38.312 28.1664 38.9058 27.5725C39.4997 26.9786 39.8333 26.1732 39.8333 25.3333C39.8333 24.4935 39.4997 23.688 38.9058 23.0942C38.312 22.5003 37.5065 22.1667 36.6667 22.1667H23.3333ZM44.6667 22.1667C43.8268 22.1667 43.0214 22.5003 42.4275 23.0942C41.8336 23.688 41.5 24.4935 41.5 25.3333C41.5 26.1732 41.8336 26.9786 42.4275 27.5725C43.0214 28.1664 43.8268 28.5 44.6667 28.5H50C50.8399 28.5 51.6453 28.1664 52.2392 27.5725C52.833 26.9786 53.1667 26.1732 53.1667 25.3333C53.1667 24.4935 52.833 23.688 52.2392 23.0942C51.6453 22.5003 50.8399 22.1667 50 22.1667H44.6667ZM23.3333 32.8333C22.4935 32.8333 21.688 33.167 21.0942 33.7608C20.5003 34.3547 20.1667 35.1601 20.1667 36C20.1667 36.8399 20.5003 37.6453 21.0942 38.2392C21.688 38.833 22.4935 39.1667 23.3333 39.1667H26C26.8399 39.1667 27.6453 38.833 28.2392 38.2392C28.833 37.6453 29.1667 36.8399 29.1667 36C29.1667 35.1601 28.833 34.3547 28.2392 33.7608C27.6453 33.167 26.8399 32.8333 26 32.8333H23.3333ZM34 32.8333C33.1601 32.8333 32.3547 33.167 31.7608 33.7608C31.167 34.3547 30.8333 35.1601 30.8333 36C30.8333 36.8399 31.167 37.6453 31.7608 38.2392C32.3547 38.833 33.1601 39.1667 34 39.1667H50C50.8399 39.1667 51.6453 38.833 52.2392 38.2392C52.833 37.6453 53.1667 36.8399 53.1667 36C53.1667 35.1602 52.833 34.3547 52.2392 33.7608C51.6453 33.167 50.8399 32.8333 50 32.8333H34ZM23.3333 43.5C22.4935 43.5 21.688 43.8336 21.0942 44.4275C20.5003 45.0214 20.1667 45.8268 20.1667 46.6667C20.1667 47.5065 20.5003 48.312 21.0942 48.9058C21.688 49.4997 22.4935 49.8333 23.3333 49.8333H36.6667C37.5065 49.8333 38.312 49.4997 38.9058 48.9058C39.4997 48.312 39.8333 47.5065 39.8333 46.6667C39.8333 45.8268 39.4997 45.0214 38.9058 44.4275C38.312 43.8336 37.5065 43.5 36.6667 43.5H23.3333ZM44.6667 43.5C43.8268 43.5 43.0214 43.8336 42.4275 44.4275C41.8336 45.0214 41.5 45.8268 41.5 46.6667C41.5 47.5065 41.8336 48.312 42.4275 48.9058C43.0214 49.4997 43.8268 49.8333 44.6667 49.8333H50C50.8399 49.8333 51.6453 49.4997 52.2392 48.9058C52.833 48.312 53.1667 47.5065 53.1667 46.6667C53.1667 45.8268 52.833 45.0214 52.2392 44.4275C51.6453 43.8336 50.8399 43.5 50 43.5H44.6667Z" stroke="url(#paint1_linear_1_313)" stroke-opacity="0.5" shape-rendering="crispEdges"/>
</g>
<defs>
<filter id="filter0_bd_1_313" x="6" y="8" width="61.3333" height="60" filterUnits="userSpaceOnUse" color-interpolation-filters="sRGB">
<feFlood flood-opacity="0" result="BackgroundImageFix"/>
<feGaussianBlur in="BackgroundImageFix" stdDeviation="2"/>
<feComposite in2="SourceAlpha" operator="in" result="effect1_backgroundBlur_1_313"/>
<feColorMatrix in="SourceAlpha" type="matrix" values="0 0 0 0 0 0 0 0 0 0 0 0 0 0 0 0 0 0 127 0" result="hardAlpha"/>
<feOffset dy="4"/>
<feGaussianBlur stdDeviation="2"/>
<feComposite in2="hardAlpha" operator="out"/>
<feColorMatrix type="matrix" values="0 0 0 0 0 0 0 0 0 0 0 0 0 0 0 0 0 0 0.25 0"/>
<feBlend mode="normal" in2="effect1_backgroundBlur_1_313" result="effect2_dropShadow_1_313"/>
<feBlend mode="normal" in="SourceGraphic" in2="effect2_dropShadow_1_313" result="shape"/>
</filter>
<linearGradient id="paint0_linear_1_313" x1="36.6667" y1="-0.888887" x2="36.6667" y2="60" gradientUnits="userSpaceOnUse">
<stop stop-color="#598FFF"/>
<stop offset="1" stop-color="#365699"/>
</linearGradient>
<linearGradient id="paint1_linear_1_313" x1="17.1968" y1="10.5542" x2="58.0643" y2="51.4217" gradientUnits="userSpaceOnUse">
<stop stop-color="#598FFF"/>
<stop offset="0.5" stop-color="#B3C1DE" stop-opacity="0.2"/>
<stop offset="1" stop-color="#598FFF"/>
</linearGradient>
</defs>
</svg>
