<svg width="72" height="72" viewBox="0 0 72 72" fill="none" xmlns="http://www.w3.org/2000/svg">
<g filter="url(#filter0_bd_1_627)">
<path fill-rule="evenodd" clip-rule="evenodd" d="M9.5 20C9.5 17.8783 10.3429 15.8434 11.8431 14.3431C13.3434 12.8429 15.3783 12 17.5 12H54.8333C56.9551 12 58.9899 12.8429 60.4902 14.3431C61.9905 15.8434 62.8333 17.8783 62.8333 20V52C62.8333 54.1217 61.9905 56.1566 60.4902 57.6569C58.9899 59.1571 56.9551 60 54.8333 60H17.5C15.3783 60 13.3434 59.1571 11.8431 57.6569C10.3429 56.1566 9.5 54.1217 9.5 52V20ZM22.8333 22.6667C22.1261 22.6667 21.4478 22.9476 20.9477 23.4477C20.4476 23.9478 20.1667 24.6261 20.1667 25.3333C20.1667 26.0406 20.4476 26.7189 20.9477 27.219C21.4478 27.719 22.1261 28 22.8333 28H36.1667C36.8739 28 37.5522 27.719 38.0523 27.219C38.5524 26.7189 38.8333 26.0406 38.8333 25.3333C38.8333 24.6261 38.5524 23.9478 38.0523 23.4477C37.5522 22.9476 36.8739 22.6667 36.1667 22.6667H22.8333ZM44.1667 22.6667C43.4594 22.6667 42.7811 22.9476 42.2811 23.4477C41.781 23.9478 41.5 24.6261 41.5 25.3333C41.5 26.0406 41.781 26.7189 42.2811 27.219C42.7811 27.719 43.4594 28 44.1667 28H49.5C50.2072 28 50.8855 27.719 51.3856 27.219C51.8857 26.7189 52.1667 26.0406 52.1667 25.3333C52.1667 24.6261 51.8857 23.9478 51.3856 23.4477C50.8855 22.9476 50.2072 22.6667 49.5 22.6667H44.1667ZM22.8333 33.3333C22.1261 33.3333 21.4478 33.6143 20.9477 34.1144C20.4476 34.6145 20.1667 35.2928 20.1667 36C20.1667 36.7072 20.4476 37.3855 20.9477 37.8856C21.4478 38.3857 22.1261 38.6667 22.8333 38.6667H25.5C26.2072 38.6667 26.8855 38.3857 27.3856 37.8856C27.8857 37.3855 28.1667 36.7072 28.1667 36C28.1667 35.2928 27.8857 34.6145 27.3856 34.1144C26.8855 33.6143 26.2072 33.3333 25.5 33.3333H22.8333ZM33.5 33.3333C32.7928 33.3333 32.1145 33.6143 31.6144 34.1144C31.1143 34.6145 30.8333 35.2928 30.8333 36C30.8333 36.7072 31.1143 37.3855 31.6144 37.8856C32.1145 38.3857 32.7928 38.6667 33.5 38.6667H49.5C50.2072 38.6667 50.8855 38.3857 51.3856 37.8856C51.8857 37.3855 52.1667 36.7072 52.1667 36C52.1667 35.2928 51.8857 34.6145 51.3856 34.1144C50.8855 33.6143 50.2072 33.3333 49.5 33.3333H33.5ZM22.8333 44C22.1261 44 21.4478 44.281 20.9477 44.7811C20.4476 45.2811 20.1667 45.9594 20.1667 46.6667C20.1667 47.3739 20.4476 48.0522 20.9477 48.5523C21.4478 49.0524 22.1261 49.3333 22.8333 49.3333H36.1667C36.8739 49.3333 37.5522 49.0524 38.0523 48.5523C38.5524 48.0522 38.8333 47.3739 38.8333 46.6667C38.8333 45.9594 38.5524 45.2811 38.0523 44.7811C37.5522 44.281 36.8739 44 36.1667 44H22.8333ZM44.1667 44C43.4594 44 42.7811 44.281 42.2811 44.7811C41.781 45.2811 41.5 45.9594 41.5 46.6667C41.5 47.3739 41.781 48.0522 42.2811 48.5523C42.7811 49.0524 43.4594 49.3333 44.1667 49.3333H49.5C50.2072 49.3333 50.8855 49.0524 51.3856 48.5523C51.8857 48.0522 52.1667 47.3739 52.1667 46.6667C52.1667 45.9594 51.8857 45.2811 51.3856 44.7811C50.8855 44.281 50.2072 44 49.5 44H44.1667Z" fill="url(#paint0_linear_1_627)" fill-opacity="0.25" shape-rendering="crispEdges"/>
<path d="M10 20C10 18.0109 10.7902 16.1032 12.1967 14.6967C13.6032 13.2902 15.5109 12.5 17.5 12.5H54.8333C56.8225 12.5 58.7301 13.2902 60.1366 14.6967C61.5432 16.1032 62.3333 18.0109 62.3333 20V52C62.3333 53.9891 61.5432 55.8968 60.1366 57.3033C58.7301 58.7098 56.8225 59.5 54.8333 59.5H17.5C15.5109 59.5 13.6032 58.7098 12.1967 57.3033C10.7902 55.8968 10 53.9891 10 52V20ZM22.8333 22.1667C21.9935 22.1667 21.188 22.5003 20.5942 23.0942C20.0003 23.688 19.6667 24.4935 19.6667 25.3333C19.6667 26.1732 20.0003 26.9786 20.5942 27.5725C21.188 28.1664 21.9935 28.5 22.8333 28.5H36.1667C37.0065 28.5 37.812 28.1664 38.4058 27.5725C38.9997 26.9786 39.3333 26.1732 39.3333 25.3333C39.3333 24.4935 38.9997 23.688 38.4058 23.0942C37.812 22.5003 37.0065 22.1667 36.1667 22.1667H22.8333ZM44.1667 22.1667C43.3268 22.1667 42.5214 22.5003 41.9275 23.0942C41.3336 23.688 41 24.4935 41 25.3333C41 26.1732 41.3336 26.9786 41.9275 27.5725C42.5214 28.1664 43.3268 28.5 44.1667 28.5H49.5C50.3399 28.5 51.1453 28.1664 51.7392 27.5725C52.333 26.9786 52.6667 26.1732 52.6667 25.3333C52.6667 24.4935 52.333 23.688 51.7392 23.0942C51.1453 22.5003 50.3399 22.1667 49.5 22.1667H44.1667ZM22.8333 32.8333C21.9935 32.8333 21.188 33.167 20.5942 33.7608C20.0003 34.3547 19.6667 35.1601 19.6667 36C19.6667 36.8399 20.0003 37.6453 20.5942 38.2392C21.188 38.833 21.9935 39.1667 22.8333 39.1667H25.5C26.3399 39.1667 27.1453 38.833 27.7392 38.2392C28.333 37.6453 28.6667 36.8399 28.6667 36C28.6667 35.1601 28.333 34.3547 27.7392 33.7608C27.1453 33.167 26.3399 32.8333 25.5 32.8333H22.8333ZM33.5 32.8333C32.6601 32.8333 31.8547 33.167 31.2608 33.7608C30.667 34.3547 30.3333 35.1601 30.3333 36C30.3333 36.8399 30.667 37.6453 31.2608 38.2392C31.8547 38.833 32.6601 39.1667 33.5 39.1667H49.5C50.3399 39.1667 51.1453 38.833 51.7392 38.2392C52.333 37.6453 52.6667 36.8399 52.6667 36C52.6667 35.1602 52.333 34.3547 51.7392 33.7608C51.1453 33.167 50.3399 32.8333 49.5 32.8333H33.5ZM22.8333 43.5C21.9935 43.5 21.188 43.8336 20.5942 44.4275C20.0003 45.0214 19.6667 45.8268 19.6667 46.6667C19.6667 47.5065 20.0003 48.312 20.5942 48.9058C21.188 49.4997 21.9935 49.8333 22.8333 49.8333H36.1667C37.0065 49.8333 37.812 49.4997 38.4058 48.9058C38.9997 48.312 39.3333 47.5065 39.3333 46.6667C39.3333 45.8268 38.9997 45.0214 38.4058 44.4275C37.812 43.8336 37.0065 43.5 36.1667 43.5H22.8333ZM44.1667 43.5C43.3268 43.5 42.5214 43.8336 41.9275 44.4275C41.3336 45.0214 41 45.8268 41 46.6667C41 47.5065 41.3336 48.312 41.9275 48.9058C42.5214 49.4997 43.3268 49.8333 44.1667 49.8333H49.5C50.3399 49.8333 51.1453 49.4997 51.7392 48.9058C52.333 48.312 52.6667 47.5065 52.6667 46.6667C52.6667 45.8268 52.333 45.0214 51.7392 44.4275C51.1453 43.8336 50.3399 43.5 49.5 43.5H44.1667Z" stroke="url(#paint1_linear_1_627)" stroke-opacity="0.5" shape-rendering="crispEdges"/>
</g>
<defs>
<filter id="filter0_bd_1_627" x="5.5" y="8" width="61.3333" height="60" filterUnits="userSpaceOnUse" color-interpolation-filters="sRGB">
<feFlood flood-opacity="0" result="BackgroundImageFix"/>
<feGaussianBlur in="BackgroundImageFix" stdDeviation="2"/>
<feComposite in2="SourceAlpha" operator="in" result="effect1_backgroundBlur_1_627"/>
<feColorMatrix in="SourceAlpha" type="matrix" values="0 0 0 0 0 0 0 0 0 0 0 0 0 0 0 0 0 0 127 0" result="hardAlpha"/>
<feOffset dy="4"/>
<feGaussianBlur stdDeviation="2"/>
<feComposite in2="hardAlpha" operator="out"/>
<feColorMatrix type="matrix" values="0 0 0 0 0 0 0 0 0 0 0 0 0 0 0 0 0 0 0.25 0"/>
<feBlend mode="normal" in2="effect1_backgroundBlur_1_627" result="effect2_dropShadow_1_627"/>
<feBlend mode="normal" in="SourceGraphic" in2="effect2_dropShadow_1_627" result="shape"/>
</filter>
<linearGradient id="paint0_linear_1_627" x1="36.1667" y1="-0.888887" x2="36.1667" y2="60" gradientUnits="userSpaceOnUse">
<stop stop-color="#598FFF"/>
<stop offset="1" stop-color="#365699"/>
</linearGradient>
<linearGradient id="paint1_linear_1_627" x1="16.6968" y1="10.5542" x2="57.5643" y2="51.4217" gradientUnits="userSpaceOnUse">
<stop stop-color="#598FFF"/>
<stop offset="0.5" stop-color="#B3C1DE" stop-opacity="0.2"/>
<stop offset="1" stop-color="#598FFF"/>
</linearGradient>
</defs>
</svg>
