<svg width="72" height="72" viewBox="0 0 72 72" fill="none" xmlns="http://www.w3.org/2000/svg">
<g filter="url(#filter0_b_1_621)">
<g filter="url(#filter1_bd_1_621)">
<path d="M36.3 63C35.45 63 34.738 62.712 34.164 62.136C33.59 61.56 33.302 60.848 33.3 60C33.3 59.65 33.375 59.287 33.525 58.911C33.675 58.535 33.9 58.198 34.2 57.9L48.075 44.025L45.9 41.85L32.1 55.725C31.8 56.025 31.475 56.25 31.125 56.4C30.775 56.55 30.4 56.625 30 56.625C29.15 56.625 28.438 56.338 27.864 55.764C27.29 55.19 27.002 54.477 27 53.625C27 53.125 27.075 52.712 27.225 52.386C27.375 52.06 27.575 51.773 27.825 51.525L41.7 37.65L39.6 35.55L25.725 49.35C25.425 49.65 25.1 49.875 24.75 50.025C24.4 50.175 24 50.25 23.55 50.25C22.75 50.25 22.05 49.95 21.45 49.35C20.85 48.75 20.55 48.05 20.55 47.25C20.55 46.85 20.625 46.475 20.775 46.125C20.925 45.775 21.15 45.45 21.45 45.15L35.325 31.275L33.15 29.175L19.35 43.05C19.1 43.3 18.8 43.5 18.45 43.65C18.1 43.8 17.675 43.875 17.175 43.875C16.325 43.875 15.612 43.587 15.036 43.011C14.46 42.435 14.173 41.723 14.175 40.875C14.175 40.475 14.25 40.1 14.4 39.75C14.55 39.4 14.775 39.075 15.075 38.775L31.8 22.05L43.05 33.375C43.6 33.925 44.25 34.363 45 34.689C45.75 35.015 46.5 35.177 47.25 35.175C48.85 35.175 50.25 34.613 51.45 33.489C52.65 32.365 53.25 30.927 53.25 29.175C53.25 28.475 53.125 27.75 52.875 27C52.625 26.25 52.175 25.55 51.525 24.9L38.1 11.475C38.95 10.675 39.9 10.063 40.95 9.63901C42 9.21501 43.05 9.00201 44.1 9.00001C45.4 9.00001 46.6 9.21301 47.7 9.63901C48.8 10.065 49.8 10.727 50.7 11.625L63.375 24.375C64.275 25.275 64.938 26.275 65.364 27.375C65.79 28.475 66.002 29.75 66 31.2C66 32.2 65.775 33.213 65.325 34.239C64.875 35.265 64.225 36.202 63.375 37.05L38.4 62.1C38 62.5 37.65 62.75 37.35 62.85C37.05 62.95 36.7 63 36.3 63ZM10.575 39L8.625 37.05C7.775 36.25 7.125 35.3 6.675 34.2C6.225 33.1 6 31.95 6 30.75C6 29.45 6.25 28.25 6.75 27.15C7.25 26.05 7.875 25.125 8.625 24.375L21.3 11.625C22.1 10.825 23.05 10.187 24.15 9.71101C25.25 9.23501 26.325 8.99801 27.375 9.00001C28.725 9.00001 29.925 9.18801 30.975 9.56401C32.025 9.94001 33.05 10.627 34.05 11.625L49.425 27C49.725 27.3 49.95 27.625 50.1 27.975C50.25 28.325 50.325 28.7 50.325 29.1C50.325 29.9 50.025 30.6 49.425 31.2C48.825 31.8 48.125 32.1 47.325 32.1C46.875 32.1 46.5 32.038 46.2 31.914C45.9 31.79 45.575 31.552 45.225 31.2L31.725 17.85L10.575 39Z" fill="url(#paint0_linear_1_621)" fill-opacity="0.25" shape-rendering="crispEdges"/>
<path d="M47.2506 35.675C48.9811 35.6749 50.5021 35.0619 51.7918 33.8539C53.0999 32.6287 53.75 31.0551 53.75 29.175C53.75 28.4148 53.6142 27.6364 53.3493 26.8419C53.0711 26.0072 52.5745 25.2424 51.8786 24.5465L38.8281 11.496C39.5323 10.9038 40.3017 10.44 41.1372 10.1026C42.1325 9.70072 43.1193 9.50195 44.1005 9.50001C45.3448 9.50006 46.4827 9.70379 47.5194 10.1053C48.5495 10.5042 49.4916 11.1258 50.3461 11.9782C50.3464 11.9785 50.3466 11.9787 50.3468 11.979L63.0204 24.7275L63.0214 24.7286C63.8762 25.5833 64.4988 26.5255 64.8977 27.5556C65.2969 28.5862 65.5019 29.7976 65.5 31.1993V31.2C65.5 32.123 65.2927 33.0679 64.8671 34.0382C64.4439 35.0031 63.8309 35.8889 63.0219 36.696L63.0209 36.697L38.0464 61.7465C38.0463 61.7466 38.0461 61.7468 38.0459 61.747C37.6642 62.1286 37.381 62.3126 37.1919 62.3757C36.9543 62.4549 36.6598 62.5 36.3 62.5C35.5762 62.5 34.9937 62.2603 34.5182 61.7831C34.0418 61.305 33.8019 60.7216 33.8 59.9996C33.8001 59.7223 33.8593 59.4223 33.9894 59.0963C34.1129 58.7867 34.2987 58.5067 34.5524 58.2547L34.5536 58.2536L48.4286 44.3786L48.7821 44.025L48.4286 43.6715L46.2536 41.4965L45.899 41.1419L45.5455 41.4974L31.7464 55.3715C31.4863 55.6316 31.2133 55.8182 30.928 55.9404C30.6434 56.0624 30.3358 56.125 30 56.125C29.2757 56.125 28.693 55.8859 28.2176 55.4105C27.7422 54.9351 27.5019 54.3513 27.5 53.6246C27.5 53.1704 27.5688 52.8349 27.6792 52.595C27.8047 52.3223 27.9704 52.085 28.1771 51.88L28.1786 51.8786L42.0536 38.0036L42.4071 37.65L42.0536 37.2965L39.9536 35.1965L39.601 34.8439L39.2474 35.1955L25.3724 48.9955L25.3714 48.9965C25.1113 49.2566 24.8383 49.4432 24.553 49.5654C24.2755 49.6844 23.9444 49.75 23.55 49.75C22.8913 49.75 22.3161 49.509 21.8036 48.9965C21.291 48.4839 21.05 47.9087 21.05 47.25C21.05 46.9142 21.1126 46.6066 21.2346 46.322C21.3568 46.0368 21.5434 45.7637 21.8036 45.5036L35.6786 31.6286L36.0384 31.2688L35.6723 30.9153L33.4973 28.8153L33.1429 28.4731L32.7955 28.8224L18.9964 42.6965C18.9963 42.6966 18.9962 42.6967 18.996 42.6969C18.7945 42.8983 18.5489 43.0636 18.253 43.1904C17.9815 43.3068 17.6275 43.375 17.175 43.375C16.4512 43.375 15.8673 43.1352 15.3896 42.6575C14.9118 42.1797 14.6733 41.5973 14.675 40.8762V40.875C14.675 40.5392 14.7376 40.2316 14.8596 39.947C14.9818 39.6618 15.1684 39.3887 15.4286 39.1286L31.7988 22.7583L42.6953 33.7274L42.6964 33.7286C43.2931 34.3252 43.9961 34.7979 44.8007 35.1476C45.608 35.4985 46.4258 35.6771 47.2506 35.675ZM47.2506 35.675C47.2504 35.675 47.2502 35.675 47.25 35.675V35.175L47.2513 35.675C47.2511 35.675 47.2509 35.675 47.2506 35.675ZM10.575 38.2929L31.3714 17.4965L31.723 17.1449L32.0766 17.4945L45.5766 30.8445L45.5796 30.8475C45.9051 31.1748 46.1759 31.363 46.391 31.4519C46.6119 31.5432 46.9169 31.6 47.325 31.6C47.9837 31.6 48.5589 31.359 49.0714 30.8465C49.584 30.3339 49.825 29.7587 49.825 29.1C49.825 28.7642 49.7624 28.4566 49.6404 28.172C49.5182 27.8868 49.3316 27.6137 49.0714 27.3536L33.6968 11.9789L10.575 38.2929ZM10.575 38.2929L8.97855 36.6965L8.9732 36.6911L8.96768 36.6859C8.17072 35.9358 7.56121 35.0458 7.13777 34.0107C6.7126 32.9714 6.5 31.8857 6.5 30.75C6.5 29.5159 6.73691 28.3871 7.20518 27.3569C7.68379 26.304 8.27642 25.4307 8.97855 24.7286L8.97959 24.7275L21.6536 11.9786C21.6538 11.9784 21.654 11.9781 21.6542 11.9779C22.4069 11.2254 23.3032 10.6222 24.3486 10.1699C25.3945 9.7173 26.4017 9.49816 27.374 9.50001H27.375C28.6793 9.50001 29.8206 9.6817 30.8064 10.0347C31.771 10.3801 32.7353 11.0194 33.6964 11.9786L10.575 38.2929Z" stroke="url(#paint1_linear_1_621)" stroke-opacity="0.5" shape-rendering="crispEdges"/>
</g>
</g>
<defs>
<filter id="filter0_b_1_621" x="-33.9" y="-33.9" width="139.8" height="139.8" filterUnits="userSpaceOnUse" color-interpolation-filters="sRGB">
<feFlood flood-opacity="0" result="BackgroundImageFix"/>
<feGaussianBlur in="BackgroundImageFix" stdDeviation="16.95"/>
<feComposite in2="SourceAlpha" operator="in" result="effect1_backgroundBlur_1_621"/>
<feBlend mode="normal" in="SourceGraphic" in2="effect1_backgroundBlur_1_621" result="shape"/>
</filter>
<filter id="filter1_bd_1_621" x="2" y="5" width="68" height="66" filterUnits="userSpaceOnUse" color-interpolation-filters="sRGB">
<feFlood flood-opacity="0" result="BackgroundImageFix"/>
<feGaussianBlur in="BackgroundImageFix" stdDeviation="2"/>
<feComposite in2="SourceAlpha" operator="in" result="effect1_backgroundBlur_1_621"/>
<feColorMatrix in="SourceAlpha" type="matrix" values="0 0 0 0 0 0 0 0 0 0 0 0 0 0 0 0 0 0 127 0" result="hardAlpha"/>
<feOffset dy="4"/>
<feGaussianBlur stdDeviation="2"/>
<feComposite in2="hardAlpha" operator="out"/>
<feColorMatrix type="matrix" values="0 0 0 0 0 0 0 0 0 0 0 0 0 0 0 0 0 0 0.25 0"/>
<feBlend mode="normal" in2="effect1_backgroundBlur_1_621" result="effect2_dropShadow_1_621"/>
<feBlend mode="normal" in="SourceGraphic" in2="effect2_dropShadow_1_621" result="shape"/>
</filter>
<linearGradient id="paint0_linear_1_621" x1="36" y1="-5.5" x2="36" y2="63" gradientUnits="userSpaceOnUse">
<stop stop-color="#598FFF"/>
<stop offset="1" stop-color="#365699"/>
</linearGradient>
<linearGradient id="paint1_linear_1_621" x1="14.0964" y1="7.3735" x2="60.0723" y2="53.3494" gradientUnits="userSpaceOnUse">
<stop stop-color="#598FFF"/>
<stop offset="0.5" stop-color="#B3C1DE" stop-opacity="0.2"/>
<stop offset="1" stop-color="#598FFF"/>
</linearGradient>
</defs>
</svg>
