<svg width="73" height="72" viewBox="0 0 73 72" fill="none" xmlns="http://www.w3.org/2000/svg">
<g filter="url(#filter0_b_1_307)">
<g filter="url(#filter1_bd_1_307)">
<path d="M36.8 63C35.95 63 35.238 62.712 34.664 62.136C34.09 61.56 33.802 60.848 33.8 60C33.8 59.65 33.875 59.287 34.025 58.911C34.175 58.535 34.4 58.198 34.7 57.9L48.575 44.025L46.4 41.85L32.6 55.725C32.3 56.025 31.975 56.25 31.625 56.4C31.275 56.55 30.9 56.625 30.5 56.625C29.65 56.625 28.938 56.338 28.364 55.764C27.79 55.19 27.502 54.477 27.5 53.625C27.5 53.125 27.575 52.712 27.725 52.386C27.875 52.06 28.075 51.773 28.325 51.525L42.2 37.65L40.1 35.55L26.225 49.35C25.925 49.65 25.6 49.875 25.25 50.025C24.9 50.175 24.5 50.25 24.05 50.25C23.25 50.25 22.55 49.95 21.95 49.35C21.35 48.75 21.05 48.05 21.05 47.25C21.05 46.85 21.125 46.475 21.275 46.125C21.425 45.775 21.65 45.45 21.95 45.15L35.825 31.275L33.65 29.175L19.85 43.05C19.6 43.3 19.3 43.5 18.95 43.65C18.6 43.8 18.175 43.875 17.675 43.875C16.825 43.875 16.112 43.587 15.536 43.011C14.96 42.435 14.673 41.723 14.675 40.875C14.675 40.475 14.75 40.1 14.9 39.75C15.05 39.4 15.275 39.075 15.575 38.775L32.3 22.05L43.55 33.375C44.1 33.925 44.75 34.363 45.5 34.689C46.25 35.015 47 35.177 47.75 35.175C49.35 35.175 50.75 34.613 51.95 33.489C53.15 32.365 53.75 30.927 53.75 29.175C53.75 28.475 53.625 27.75 53.375 27C53.125 26.25 52.675 25.55 52.025 24.9L38.6 11.475C39.45 10.675 40.4 10.063 41.45 9.63901C42.5 9.21501 43.55 9.00201 44.6 9.00001C45.9 9.00001 47.1 9.21301 48.2 9.63901C49.3 10.065 50.3 10.727 51.2 11.625L63.875 24.375C64.775 25.275 65.438 26.275 65.864 27.375C66.29 28.475 66.502 29.75 66.5 31.2C66.5 32.2 66.275 33.213 65.825 34.239C65.375 35.265 64.725 36.202 63.875 37.05L38.9 62.1C38.5 62.5 38.15 62.75 37.85 62.85C37.55 62.95 37.2 63 36.8 63ZM11.075 39L9.125 37.05C8.275 36.25 7.625 35.3 7.175 34.2C6.725 33.1 6.5 31.95 6.5 30.75C6.5 29.45 6.75 28.25 7.25 27.15C7.75 26.05 8.375 25.125 9.125 24.375L21.8 11.625C22.6 10.825 23.55 10.187 24.65 9.71101C25.75 9.23501 26.825 8.99801 27.875 9.00001C29.225 9.00001 30.425 9.18801 31.475 9.56401C32.525 9.94001 33.55 10.627 34.55 11.625L49.925 27C50.225 27.3 50.45 27.625 50.6 27.975C50.75 28.325 50.825 28.7 50.825 29.1C50.825 29.9 50.525 30.6 49.925 31.2C49.325 31.8 48.625 32.1 47.825 32.1C47.375 32.1 47 32.038 46.7 31.914C46.4 31.79 46.075 31.552 45.725 31.2L32.225 17.85L11.075 39Z" fill="url(#paint0_linear_1_307)" fill-opacity="0.25" shape-rendering="crispEdges"/>
<path d="M47.7506 35.675C49.4811 35.6749 51.0021 35.0619 52.2918 33.8539C53.5999 32.6287 54.25 31.0551 54.25 29.175C54.25 28.4148 54.1142 27.6364 53.8493 26.8419C53.5711 26.0072 53.0745 25.2424 52.3786 24.5465L39.3281 11.496C40.0323 10.9038 40.8017 10.44 41.6372 10.1026C42.6325 9.70072 43.6193 9.50195 44.6005 9.50001C45.8448 9.50006 46.9827 9.70379 48.0194 10.1053C49.0495 10.5042 49.9916 11.1258 50.8461 11.9782C50.8464 11.9785 50.8466 11.9787 50.8468 11.979L63.5204 24.7275L63.5214 24.7286C64.3762 25.5833 64.9988 26.5255 65.3977 27.5556C65.7969 28.5862 66.0019 29.7976 66 31.1993V31.2C66 32.123 65.7927 33.0679 65.3671 34.0382C64.9439 35.0031 64.3309 35.8889 63.5219 36.696L63.5209 36.697L38.5464 61.7465C38.5463 61.7466 38.5461 61.7468 38.5459 61.747C38.1642 62.1286 37.881 62.3126 37.6919 62.3757C37.4543 62.4549 37.1598 62.5 36.8 62.5C36.0762 62.5 35.4937 62.2603 35.0182 61.7831C34.5418 61.305 34.3019 60.7216 34.3 59.9996C34.3001 59.7223 34.3593 59.4223 34.4894 59.0963C34.6129 58.7867 34.7987 58.5067 35.0524 58.2547L35.0536 58.2536L48.9286 44.3786L49.2821 44.025L48.9286 43.6715L46.7536 41.4965L46.399 41.1419L46.0455 41.4974L32.2464 55.3715C31.9863 55.6316 31.7133 55.8182 31.428 55.9404C31.1434 56.0624 30.8358 56.125 30.5 56.125C29.7757 56.125 29.193 55.8859 28.7176 55.4105C28.2422 54.9351 28.0019 54.3513 28 53.6246C28 53.1704 28.0688 52.8349 28.1792 52.595C28.3047 52.3223 28.4704 52.085 28.6771 51.88L28.6786 51.8786L42.5536 38.0036L42.9071 37.65L42.5536 37.2965L40.4536 35.1965L40.101 34.8439L39.7474 35.1955L25.8724 48.9955L25.8714 48.9965C25.6113 49.2566 25.3383 49.4432 25.053 49.5654C24.7755 49.6844 24.4444 49.75 24.05 49.75C23.3913 49.75 22.8161 49.509 22.3036 48.9965C21.791 48.4839 21.55 47.9087 21.55 47.25C21.55 46.9142 21.6126 46.6066 21.7346 46.322C21.8568 46.0368 22.0434 45.7637 22.3036 45.5036L36.1786 31.6286L36.5384 31.2688L36.1723 30.9153L33.9973 28.8153L33.6429 28.4731L33.2955 28.8224L19.4964 42.6965C19.4963 42.6966 19.4962 42.6967 19.496 42.6969C19.2945 42.8983 19.0489 43.0636 18.753 43.1904C18.4815 43.3068 18.1275 43.375 17.675 43.375C16.9512 43.375 16.3673 43.1352 15.8896 42.6575C15.4118 42.1797 15.1733 41.5973 15.175 40.8762V40.875C15.175 40.5392 15.2376 40.2316 15.3596 39.947C15.4818 39.6618 15.6684 39.3887 15.9286 39.1286L32.2988 22.7583L43.1953 33.7274L43.1964 33.7286C43.7931 34.3252 44.4961 34.7979 45.3007 35.1476C46.108 35.4985 46.9258 35.6771 47.7506 35.675ZM47.7506 35.675C47.7504 35.675 47.7502 35.675 47.75 35.675V35.175L47.7513 35.675C47.7511 35.675 47.7509 35.675 47.7506 35.675ZM11.075 38.2929L31.8714 17.4965L32.223 17.1449L32.5766 17.4945L46.0766 30.8445L46.0796 30.8475C46.4051 31.1748 46.6759 31.363 46.891 31.4519C47.1119 31.5432 47.4169 31.6 47.825 31.6C48.4837 31.6 49.0589 31.359 49.5714 30.8465C50.084 30.3339 50.325 29.7587 50.325 29.1C50.325 28.7642 50.2624 28.4566 50.1404 28.172C50.0182 27.8868 49.8316 27.6137 49.5714 27.3536L34.1968 11.9789L11.075 38.2929ZM11.075 38.2929L9.47855 36.6965L9.4732 36.6911L9.46768 36.6859C8.67072 35.9358 8.06121 35.0458 7.63777 34.0107C7.2126 32.9714 7 31.8857 7 30.75C7 29.5159 7.23691 28.3871 7.70518 27.3569C8.18379 26.304 8.77642 25.4307 9.47855 24.7286L9.47959 24.7275L22.1536 11.9786C22.1538 11.9784 22.154 11.9781 22.1542 11.9779C22.9069 11.2254 23.8032 10.6222 24.8486 10.1699C25.8945 9.7173 26.9017 9.49816 27.874 9.50001H27.875C29.1793 9.50001 30.3206 9.6817 31.3064 10.0347C32.271 10.3801 33.2353 11.0194 34.1964 11.9786L11.075 38.2929Z" stroke="url(#paint1_linear_1_307)" stroke-opacity="0.5" shape-rendering="crispEdges"/>
</g>
</g>
<defs>
<filter id="filter0_b_1_307" x="-33.4" y="-33.9" width="139.8" height="139.8" filterUnits="userSpaceOnUse" color-interpolation-filters="sRGB">
<feFlood flood-opacity="0" result="BackgroundImageFix"/>
<feGaussianBlur in="BackgroundImageFix" stdDeviation="16.95"/>
<feComposite in2="SourceAlpha" operator="in" result="effect1_backgroundBlur_1_307"/>
<feBlend mode="normal" in="SourceGraphic" in2="effect1_backgroundBlur_1_307" result="shape"/>
</filter>
<filter id="filter1_bd_1_307" x="2.5" y="5" width="68" height="66" filterUnits="userSpaceOnUse" color-interpolation-filters="sRGB">
<feFlood flood-opacity="0" result="BackgroundImageFix"/>
<feGaussianBlur in="BackgroundImageFix" stdDeviation="2"/>
<feComposite in2="SourceAlpha" operator="in" result="effect1_backgroundBlur_1_307"/>
<feColorMatrix in="SourceAlpha" type="matrix" values="0 0 0 0 0 0 0 0 0 0 0 0 0 0 0 0 0 0 127 0" result="hardAlpha"/>
<feOffset dy="4"/>
<feGaussianBlur stdDeviation="2"/>
<feComposite in2="hardAlpha" operator="out"/>
<feColorMatrix type="matrix" values="0 0 0 0 0 0 0 0 0 0 0 0 0 0 0 0 0 0 0.25 0"/>
<feBlend mode="normal" in2="effect1_backgroundBlur_1_307" result="effect2_dropShadow_1_307"/>
<feBlend mode="normal" in="SourceGraphic" in2="effect2_dropShadow_1_307" result="shape"/>
</filter>
<linearGradient id="paint0_linear_1_307" x1="36.5" y1="-5.5" x2="36.5" y2="63" gradientUnits="userSpaceOnUse">
<stop stop-color="#598FFF"/>
<stop offset="1" stop-color="#365699"/>
</linearGradient>
<linearGradient id="paint1_linear_1_307" x1="14.5964" y1="7.3735" x2="60.5723" y2="53.3494" gradientUnits="userSpaceOnUse">
<stop stop-color="#598FFF"/>
<stop offset="0.5" stop-color="#B3C1DE" stop-opacity="0.2"/>
<stop offset="1" stop-color="#598FFF"/>
</linearGradient>
</defs>
</svg>
