<svg width="24" height="24" viewBox="0 0 24 24" fill="none" xmlns="http://www.w3.org/2000/svg">
<path d="M11.8 19.987C11.25 19.987 10.7793 19.7933 10.388 19.406C9.99667 19.0187 9.80067 18.55 9.8 18C9.79934 17.45 9.99534 16.9793 10.388 16.588C10.7807 16.1967 11.2513 16.0007 11.8 16L12.4 15.425C12.5333 15.2917 12.6877 15.1877 12.863 15.113C13.0383 15.0383 13.2173 15.0007 13.4 15C13.7833 15 14.1127 15.1417 14.388 15.425C14.6633 15.7083 14.8007 16.0417 14.8 16.425V16.85C14.8 17.1833 14.9083 17.4583 15.125 17.675C15.3417 17.8917 15.6167 18 15.95 18C16.2 18 16.425 17.925 16.625 17.775C16.825 17.625 16.9667 17.4333 17.05 17.2L17.35 16.375C17.5 15.975 17.7353 15.646 18.056 15.388C18.3767 15.13 18.7533 15.0007 19.186 15C19.37 14.5333 19.516 14.05 19.624 13.55C19.732 13.05 19.7863 12.5333 19.787 12C19.787 10.5167 19.4223 9.169 18.693 7.957C17.9637 6.745 16.9993 5.789 15.8 5.089V6C15.8 6.55 15.6043 7.021 15.213 7.413C14.8217 7.805 14.3507 8.00067 13.8 8H12.8V10C12.8 10.2833 12.704 10.521 12.512 10.713C12.32 10.905 12.0827 11.0007 11.8 11H10.8V12.7C10.8 13.0667 10.675 13.375 10.425 13.625C10.175 13.875 9.86667 14 9.5 14C9.26667 14 9.054 13.95 8.862 13.85C8.67 13.75 8.516 13.6083 8.4 13.425L6.8 11H5.8V12C5.8 12.5167 5.631 12.9583 5.293 13.325C4.955 13.6917 4.545 13.9083 4.063 13.975C4.49634 15.7083 5.42767 17.1437 6.857 18.281C8.28634 19.4183 9.934 19.987 11.8 19.987ZM13.8 14C13.5167 14 13.2793 13.904 13.088 13.712C12.8967 13.52 12.8007 13.2827 12.8 13C12.7993 12.7173 12.8953 12.48 13.088 12.288C13.2807 12.096 13.518 12 13.8 12H14.8C15.0833 12 15.321 12.096 15.513 12.288C15.705 12.48 15.8007 12.7173 15.8 13C15.7993 13.2827 15.7033 13.5203 15.512 13.713C15.3207 13.9057 15.0833 14.0013 14.8 14H13.8ZM16.125 11C15.7917 11 15.529 10.871 15.337 10.613C15.145 10.355 15.0993 10.0673 15.2 9.75L15.575 8.65C15.6417 8.45 15.7583 8.29167 15.925 8.175C16.0917 8.05833 16.275 8 16.475 8C16.8083 8 17.071 8.12933 17.263 8.388C17.455 8.64667 17.5007 8.934 17.4 9.25L17.025 10.35C16.9583 10.55 16.8417 10.7083 16.675 10.825C16.5083 10.9417 16.325 11 16.125 11ZM11.803 21C10.5583 21 9.38834 20.764 8.293 20.292C7.19767 19.8193 6.24467 19.178 5.434 18.368C4.62334 17.558 3.98167 16.606 3.509 15.512C3.03634 14.418 2.8 13.2483 2.8 12.003C2.8 10.7577 3.03634 9.58767 3.509 8.493C3.981 7.39767 4.622 6.44467 5.432 5.634C6.242 4.82333 7.194 4.18167 8.288 3.709C9.382 3.23633 10.5517 3 11.797 3C13.0423 3 14.2123 3.23633 15.307 3.709C16.4023 4.181 17.3553 4.82167 18.166 5.631C18.9767 6.44033 19.6183 7.39267 20.091 8.488C20.5637 9.58333 20.8 10.753 20.8 11.997C20.8 13.241 20.564 14.411 20.092 15.507C19.62 16.603 18.979 17.556 18.169 18.366C17.359 19.176 16.4067 19.8177 15.312 20.291C14.2173 20.7643 13.0477 21.0007 11.803 21Z" fill="black"/>
</svg>
