<svg width="73" height="73" viewBox="0 0 73 73" fill="none" xmlns="http://www.w3.org/2000/svg">
<g filter="url(#filter0_bd_1_583)">
<path fill-rule="evenodd" clip-rule="evenodd" d="M34.7 18.4C32.3131 18.4 30.0239 19.3482 28.336 21.0361C26.6482 22.7239 25.7 25.0131 25.7 27.4C25.7 29.787 26.6482 32.0762 28.336 33.764C30.0239 35.4518 32.3131 36.4 34.7 36.4C37.0869 36.4 39.3761 35.4518 41.064 33.764C42.7518 32.0762 43.7 29.787 43.7 27.4C43.7 25.0131 42.7518 22.7239 41.064 21.0361C39.3761 19.3482 37.0869 18.4 34.7 18.4ZM34.7 38.2C30.389 38.2 26.465 39.4492 23.5796 41.2096C22.1396 42.088 20.9084 43.1248 20.0192 44.2516C19.1444 45.3568 18.5 46.6834 18.5 48.1C18.5 49.621 19.2398 50.8198 20.3054 51.6748C21.3134 52.4848 22.6436 53.0212 24.0566 53.3956C26.897 54.1462 30.6878 54.4 34.7 54.4C35.114 54.4 35.528 54.3964 35.933 54.391C36.2345 54.3869 36.5301 54.3071 36.7926 54.159C37.0552 54.0108 37.2764 53.7991 37.4359 53.5433C37.5953 53.2874 37.688 52.9956 37.7053 52.6946C37.7226 52.3936 37.6641 52.0931 37.535 51.8206C36.8509 50.3765 36.4973 48.798 36.5 47.2C36.5 44.9464 37.1894 42.8584 38.3666 41.1286C38.5416 40.8716 38.647 40.5736 38.6725 40.2637C38.6981 39.9537 38.6429 39.6425 38.5124 39.3603C38.3819 39.078 38.1805 38.8344 37.9278 38.6531C37.6751 38.4719 37.3798 38.3592 37.0706 38.326C36.2966 38.2432 35.5046 38.2 34.7 38.2ZM48.8552 39.9946C48.6967 39.7227 48.4697 39.4971 48.1969 39.3403C47.924 39.1834 47.6147 39.1009 47.3 39.1009C46.9853 39.1009 46.676 39.1834 46.4031 39.3403C46.1303 39.4971 45.9033 39.7227 45.7448 39.9946L44.1068 42.8062L40.928 43.4938C40.6202 43.5604 40.3353 43.7066 40.1017 43.9177C39.868 44.1288 39.6939 44.3976 39.5966 44.6971C39.4993 44.9966 39.4823 45.3163 39.5473 45.6245C39.6122 45.9326 39.7569 46.2183 39.9668 46.453L42.134 48.8794L41.8064 52.1158C41.7747 52.429 41.8256 52.745 41.9541 53.0324C42.0827 53.3197 42.2844 53.5684 42.539 53.7534C42.7937 53.9385 43.0924 54.0535 43.4054 54.0871C43.7184 54.1206 44.0347 54.0715 44.3228 53.9446L47.3 52.6306L50.2772 53.9446C50.5653 54.0715 50.8816 54.1206 51.1946 54.0871C51.5076 54.0535 51.8063 53.9385 52.061 53.7534C52.3156 53.5684 52.5173 53.3197 52.6458 53.0324C52.7744 52.745 52.8253 52.429 52.7936 52.1158L52.466 48.8776L54.6332 46.453C54.8431 46.2183 54.9878 45.9326 55.0527 45.6245C55.1177 45.3163 55.1007 44.9966 55.0034 44.6971C54.9061 44.3976 54.732 44.1288 54.4983 43.9177C54.2647 43.7066 53.9798 43.5604 53.672 43.4938L50.4932 42.8062L48.8552 39.9946Z" fill="url(#paint0_linear_1_583)" fill-opacity="0.3" shape-rendering="crispEdges"/>
<path d="M23.7358 41.4657L23.7358 41.4657C22.3189 42.3301 21.1171 43.3446 20.2547 44.4375L20.2544 44.4378C19.4041 45.5121 18.8 46.7746 18.8 48.1C18.8 49.512 19.4831 50.6304 20.4931 51.4408L20.4933 51.441C21.4546 52.2134 22.7389 52.7361 24.1334 53.1056C26.935 53.8459 30.694 54.1 34.7 54.1C35.1123 54.1 35.5248 54.0964 35.9289 54.0911C36.1801 54.0876 36.4264 54.0211 36.6452 53.8977C36.8641 53.7742 37.0484 53.5978 37.1813 53.3846C37.3142 53.1714 37.3914 52.9282 37.4058 52.6774C37.4202 52.4265 37.3714 52.1761 37.2639 51.9491C36.5607 50.4646 36.1973 48.8421 36.2 47.1995M23.7358 41.4657L36.5 47.2M23.7358 41.4657C26.5749 39.7336 30.4449 38.5 34.7 38.5C35.4939 38.5 36.2752 38.5426 37.0387 38.6243M23.7358 41.4657L37.0706 38.326M36.2 47.1995L36.5 47.2M36.2 47.1995C36.2 47.1997 36.2 47.1999 36.2 47.2H36.5M36.2 47.1995C36.2001 44.8839 36.9087 42.7376 38.1186 40.9598L38.1186 40.9598C38.2644 40.7456 38.3523 40.4973 38.3735 40.239C38.3948 39.9807 38.3489 39.7214 38.2401 39.4862C38.1313 39.251 37.9635 39.048 37.7529 38.8969C37.5424 38.7459 37.2963 38.652 37.0387 38.6243M36.5 47.2C36.5 44.9464 37.1894 42.8584 38.3666 41.1286C38.5416 40.8716 38.647 40.5736 38.6725 40.2637C38.6981 39.9537 38.6429 39.6425 38.5124 39.3603C38.3819 39.078 38.1805 38.8344 37.9278 38.6531C37.6751 38.4719 37.3798 38.3592 37.0706 38.326M37.0387 38.6243L37.0706 38.326M37.0387 38.6243C37.0387 38.6243 37.0386 38.6243 37.0386 38.6243L37.0706 38.326M44.1702 43.0994L44.2995 43.0715L44.366 42.9572L46.004 40.1457C46.004 40.1457 46.004 40.1456 46.004 40.1456C46.1361 39.919 46.3252 39.731 46.5526 39.6004C46.78 39.4697 47.0377 39.4009 47.3 39.4009C47.5623 39.4009 47.82 39.4697 48.0474 39.6004C48.2748 39.731 48.4639 39.919 48.596 40.1456C48.596 40.1456 48.596 40.1457 48.596 40.1457L50.234 42.9572L50.3005 43.0715L50.4298 43.0994L53.6086 43.787C53.8651 43.8425 54.1025 43.9643 54.2972 44.1403C54.4919 44.3162 54.637 44.5402 54.7181 44.7897C54.7992 45.0393 54.8133 45.3058 54.7592 45.5626C54.7051 45.8194 54.5845 46.0574 54.4096 46.253L54.4095 46.2531L52.2423 48.6777L52.1542 48.7763L52.1675 48.9078L52.4951 52.146L52.4951 52.1461C52.5216 52.4071 52.4791 52.6704 52.372 52.9099C52.2649 53.1493 52.0968 53.3565 51.8846 53.5107C51.6724 53.665 51.4235 53.7608 51.1626 53.7888C50.9018 53.8168 50.6382 53.7758 50.3981 53.6701L47.4211 52.3562L47.3 52.3027L47.1789 52.3562L44.2019 53.6701C43.9618 53.7758 43.6982 53.8168 43.4374 53.7888C43.1765 53.7608 42.9276 53.665 42.7154 53.5107C42.5032 53.3565 42.3351 53.1493 42.228 52.9099C42.1209 52.6704 42.0784 52.4071 42.1049 52.1461L42.1049 52.146L42.4325 48.9096L42.4458 48.7781L42.3577 48.6796L40.1905 46.2532L40.1904 46.253C40.0155 46.0574 39.8949 45.8194 39.8408 45.5626C39.7867 45.3058 39.8008 45.0393 39.8819 44.7897C39.963 44.5402 40.1081 44.3162 40.3028 44.1403C40.4975 43.9643 40.7349 43.8425 40.9914 43.787L44.1702 43.0994ZM28.5482 21.2482C30.1797 19.6166 32.3926 18.7 34.7 18.7C37.0074 18.7 39.2203 19.6166 40.8518 21.2482C42.4834 22.8798 43.4 25.0926 43.4 27.4C43.4 29.7074 42.4834 31.9203 40.8518 33.5519C39.2203 35.1834 37.0074 36.1 34.7 36.1C32.3926 36.1 30.1797 35.1834 28.5482 33.5519C26.9166 31.9203 26 29.7074 26 27.4C26 25.0926 26.9166 22.8798 28.5482 21.2482Z" stroke="url(#paint1_linear_1_583)" stroke-opacity="0.5" stroke-width="0.6" shape-rendering="crispEdges"/>
</g>
<defs>
<filter id="filter0_bd_1_583" x="16.1" y="16" width="41.3916" height="43.2" filterUnits="userSpaceOnUse" color-interpolation-filters="sRGB">
<feFlood flood-opacity="0" result="BackgroundImageFix"/>
<feGaussianBlur in="BackgroundImageFix" stdDeviation="1.2"/>
<feComposite in2="SourceAlpha" operator="in" result="effect1_backgroundBlur_1_583"/>
<feColorMatrix in="SourceAlpha" type="matrix" values="0 0 0 0 0 0 0 0 0 0 0 0 0 0 0 0 0 0 127 0" result="hardAlpha"/>
<feOffset dy="2.4"/>
<feGaussianBlur stdDeviation="1.2"/>
<feComposite in2="hardAlpha" operator="out"/>
<feColorMatrix type="matrix" values="0 0 0 0 0 0 0 0 0 0 0 0 0 0 0 0 0 0 0.25 0"/>
<feBlend mode="normal" in2="effect1_backgroundBlur_1_583" result="effect2_dropShadow_1_583"/>
<feBlend mode="normal" in="SourceGraphic" in2="effect2_dropShadow_1_583" result="shape"/>
</filter>
<linearGradient id="paint0_linear_1_583" x1="36.7957" y1="8.73336" x2="36.7957" y2="54.4" gradientUnits="userSpaceOnUse">
<stop stop-color="#598FFF"/>
<stop offset="1" stop-color="#365699"/>
</linearGradient>
<linearGradient id="paint1_linear_1_583" x1="23.4377" y1="17.3157" x2="53.9671" y2="45.2436" gradientUnits="userSpaceOnUse">
<stop stop-color="#598FFF"/>
<stop offset="0.5" stop-color="#B3C1DE" stop-opacity="0.2"/>
<stop offset="1" stop-color="#598FFF"/>
</linearGradient>
</defs>
</svg>
