<svg width="73" height="72" viewBox="0 0 73 72" fill="none" xmlns="http://www.w3.org/2000/svg">
<g clip-path="url(#clip0_1_411)">
<g filter="url(#filter0_bd_1_411)">
<path fill-rule="evenodd" clip-rule="evenodd" d="M33.5 6C29.5218 6 25.7064 7.58035 22.8934 10.3934C20.0804 13.2064 18.5 17.0218 18.5 21C18.5 24.9782 20.0804 28.7936 22.8934 31.6066C25.7064 34.4196 29.5218 36 33.5 36C37.4782 36 41.2936 34.4196 44.1066 31.6066C46.9196 28.7936 48.5 24.9782 48.5 21C48.5 17.0218 46.9196 13.2064 44.1066 10.3934C41.2936 7.58035 37.4782 6 33.5 6ZM33.5 39C26.315 39 19.775 41.082 14.966 44.016C12.566 45.48 10.514 47.208 9.032 49.086C7.574 50.928 6.5 53.139 6.5 55.5C6.5 58.035 7.733 60.033 9.509 61.458C11.189 62.808 13.406 63.702 15.761 64.326C20.495 65.577 26.813 66 33.5 66C34.19 66 34.88 65.994 35.555 65.985C36.0574 65.9781 36.5501 65.8451 36.9877 65.5982C37.4254 65.3514 37.794 64.9985 38.0598 64.5721C38.3256 64.1456 38.48 63.6593 38.5088 63.1576C38.5377 62.656 38.4401 62.1551 38.225 61.701C37.0848 59.2941 36.4956 56.6633 36.5 54C36.5 50.244 37.649 46.764 39.611 43.881C39.9026 43.4526 40.0783 42.9559 40.1209 42.4394C40.1635 41.9229 40.0715 41.4041 39.854 40.9337C39.6365 40.4633 39.3008 40.0573 38.8796 39.7552C38.4585 39.4531 37.9663 39.2653 37.451 39.21C36.161 39.072 34.841 39 33.5 39ZM57.092 41.991C56.8279 41.5378 56.4496 41.1617 55.9948 40.9004C55.5399 40.639 55.0246 40.5015 54.5 40.5015C53.9754 40.5015 53.4601 40.639 53.0052 40.9004C52.5504 41.1617 52.1721 41.5378 51.908 41.991L49.178 46.677L43.88 47.823C43.367 47.934 42.8921 48.1775 42.5028 48.5294C42.1134 48.8813 41.8231 49.3292 41.661 49.8284C41.4988 50.3276 41.4705 50.8605 41.5788 51.3741C41.687 51.8876 41.9281 52.3638 42.278 52.755L45.89 56.799L45.344 62.193C45.2911 62.715 45.376 63.2417 45.5903 63.7206C45.8045 64.1995 46.1406 64.6139 46.565 64.9223C46.9894 65.2308 47.4873 65.4225 48.009 65.4784C48.5306 65.5344 49.0579 65.4525 49.538 65.241L54.5 63.051L59.462 65.241C59.9421 65.4525 60.4694 65.5344 60.991 65.4784C61.5127 65.4225 62.0106 65.2308 62.435 64.9223C62.8594 64.6139 63.1955 64.1995 63.4097 63.7206C63.624 63.2417 63.7089 62.715 63.656 62.193L63.11 56.796L66.722 52.755C67.0719 52.3638 67.313 51.8876 67.4212 51.3741C67.5295 50.8605 67.5012 50.3276 67.339 49.8284C67.1769 49.3292 66.8866 48.8813 66.4972 48.5294C66.1079 48.1775 65.633 47.934 65.12 47.823L59.822 46.677L57.092 41.991Z" fill="url(#paint0_linear_1_411)" fill-opacity="0.3" shape-rendering="crispEdges"/>
<path d="M15.2264 44.4429L15.2264 44.4428C19.9581 41.556 26.4082 39.5 33.5 39.5C34.8231 39.5 36.1253 39.571 37.3977 39.7071C37.8271 39.7532 38.2373 39.9097 38.5882 40.1615C38.9391 40.4132 39.2189 40.7516 39.4002 41.1436C39.5814 41.5356 39.6581 41.9679 39.6226 42.3983C39.5871 42.8287 39.4407 43.2426 39.1977 43.5997L39.1976 43.5997C37.1812 46.5626 36.0002 50.1398 36 53.9992C35.9954 56.7368 36.6012 59.441 37.7731 61.915C37.9524 62.2935 38.0337 62.7109 38.0097 63.1289C37.9856 63.5469 37.8569 63.9522 37.6355 64.3076C37.414 64.663 37.1068 64.957 36.7421 65.1627C36.3774 65.3685 35.9668 65.4793 35.5481 65.485C34.8747 65.494 34.1871 65.5 33.5 65.5C26.8233 65.5 20.5584 65.0765 15.8891 63.8427C13.5649 63.2268 11.4243 62.3557 9.8222 61.0682L9.82191 61.068C8.13857 59.7174 7 57.8533 7 55.5C7 53.291 8.0068 51.1868 9.42405 49.3963L9.42451 49.3957C10.8618 47.5744 12.8648 45.8834 15.2264 44.4429ZM49.2837 47.1657L49.4991 47.1191L49.61 46.9287L52.34 42.2427C52.5601 41.8651 52.8754 41.5517 53.2544 41.3339C53.6334 41.1161 54.0629 41.0015 54.5 41.0015C54.9371 41.0015 55.3666 41.1161 55.7456 41.3339C56.1246 41.5517 56.4399 41.8651 56.66 42.2427L59.39 46.9287L59.5009 47.1191L59.7163 47.1657L65.0143 48.3117C65.4418 48.4042 65.8375 48.6072 66.162 48.9004C66.4865 49.1936 66.7284 49.5669 66.8635 49.9829C66.9986 50.3988 67.0222 50.843 66.932 51.2709C66.8418 51.6989 66.6408 52.0957 66.3493 52.4217L66.3492 52.4218L62.7372 56.4628L62.5904 56.6271L62.6125 56.8463L63.1585 62.2433L63.1585 62.2434C63.2026 62.6784 63.1319 63.1173 62.9533 63.5164C62.7748 63.9155 62.4947 64.2608 62.141 64.5179C61.7874 64.7749 61.3725 64.9347 60.9377 64.9813C60.503 65.0279 60.0637 64.9597 59.6636 64.7834L54.7019 62.5936L54.5 62.5045L54.2981 62.5936L49.3364 64.7834C48.9363 64.9597 48.497 65.0279 48.0623 64.9813C47.6275 64.9347 47.2126 64.7749 46.859 64.5179C46.5053 64.2608 46.2252 63.9155 46.0467 63.5164C45.8681 63.1173 45.7974 62.6784 45.8415 62.2434L45.8415 62.2434L46.3875 56.8494L46.4096 56.6302L46.2629 56.4659L42.6509 52.4219L42.6507 52.4217C42.3592 52.0957 42.1582 51.6989 42.068 51.2709C41.9778 50.843 42.0014 50.3988 42.1365 49.9829C42.2716 49.5669 42.5135 49.1936 42.838 48.9004C43.1625 48.6072 43.5582 48.4042 43.9857 48.3117L49.2837 47.1657ZM23.247 10.747C25.9662 8.02767 29.6544 6.5 33.5 6.5C37.3456 6.5 41.0338 8.02767 43.753 10.747C46.4723 13.4662 48 17.1544 48 21C48 24.8456 46.4723 28.5338 43.753 31.253C41.0338 33.9723 37.3456 35.5 33.5 35.5C29.6544 35.5 25.9662 33.9723 23.247 31.253C20.5277 28.5338 19 24.8456 19 21C19 17.1544 20.5277 13.4662 23.247 10.747Z" stroke="url(#paint1_linear_1_411)" stroke-opacity="0.5" shape-rendering="crispEdges"/>
</g>
</g>
<defs>
<filter id="filter0_bd_1_411" x="2.5" y="2" width="68.9858" height="72" filterUnits="userSpaceOnUse" color-interpolation-filters="sRGB">
<feFlood flood-opacity="0" result="BackgroundImageFix"/>
<feGaussianBlur in="BackgroundImageFix" stdDeviation="2"/>
<feComposite in2="SourceAlpha" operator="in" result="effect1_backgroundBlur_1_411"/>
<feColorMatrix in="SourceAlpha" type="matrix" values="0 0 0 0 0 0 0 0 0 0 0 0 0 0 0 0 0 0 127 0" result="hardAlpha"/>
<feOffset dy="4"/>
<feGaussianBlur stdDeviation="2"/>
<feComposite in2="hardAlpha" operator="out"/>
<feColorMatrix type="matrix" values="0 0 0 0 0 0 0 0 0 0 0 0 0 0 0 0 0 0 0.25 0"/>
<feBlend mode="normal" in2="effect1_backgroundBlur_1_411" result="effect2_dropShadow_1_411"/>
<feBlend mode="normal" in="SourceGraphic" in2="effect2_dropShadow_1_411" result="shape"/>
</filter>
<linearGradient id="paint0_linear_1_411" x1="36.9929" y1="-10.1111" x2="36.9929" y2="66" gradientUnits="userSpaceOnUse">
<stop stop-color="#598FFF"/>
<stop offset="1" stop-color="#365699"/>
</linearGradient>
<linearGradient id="paint1_linear_1_411" x1="14.7294" y1="4.19277" x2="65.6118" y2="50.7393" gradientUnits="userSpaceOnUse">
<stop stop-color="#598FFF"/>
<stop offset="0.5" stop-color="#B3C1DE" stop-opacity="0.2"/>
<stop offset="1" stop-color="#598FFF"/>
</linearGradient>
<clipPath id="clip0_1_411">
<rect width="72" height="72" fill="white" transform="translate(0.5)"/>
</clipPath>
</defs>
</svg>
