<svg width="72" height="72" viewBox="0 0 72 72" fill="none" xmlns="http://www.w3.org/2000/svg">
<g filter="url(#filter0_bd_1_639)">
<path d="M36 63C28.8392 63 21.9716 60.1554 16.9081 55.0919C11.8446 50.0284 9 43.1608 9 36C9 28.8392 11.8446 21.9716 16.9081 16.9081C21.9716 11.8446 28.8392 9 36 9C43.1608 9 50.0284 11.8446 55.0919 16.9081C60.1554 21.9716 63 28.8392 63 36C63 43.1608 60.1554 50.0284 55.0919 55.0919C50.0284 60.1554 43.1608 63 36 63ZM36.8505 19.3545C36.6593 19.2341 36.4449 19.1553 36.2213 19.1234C35.9976 19.0914 35.7698 19.107 35.5525 19.1691C35.3353 19.2313 35.1336 19.3385 34.9607 19.4838C34.7877 19.6292 34.6474 19.8094 34.5487 20.0126L30.4987 28.2206L21.4403 29.5369C21.1409 29.5781 20.8591 29.7027 20.6272 29.8965C20.3954 30.0903 20.2227 30.3455 20.1291 30.6328C20.0354 30.9201 20.0245 31.228 20.0976 31.5212C20.1707 31.8144 20.3249 32.0812 20.5425 32.2909L27.1035 38.6764L25.551 47.7011C25.5012 47.9977 25.5351 48.3024 25.6489 48.5808C25.7627 48.8592 25.952 49.1003 26.1953 49.277C26.4387 49.4537 26.7265 49.5591 27.0265 49.5812C27.3264 49.6033 27.6266 49.5413 27.8932 49.4021L36 45.1429L44.1 49.3988C44.3665 49.5393 44.6671 49.6024 44.9676 49.5809C45.2681 49.5593 45.5566 49.4541 45.8004 49.2771C46.0442 49.1 46.2335 48.8582 46.347 48.5791C46.4604 48.3 46.4934 47.9947 46.4422 47.6978L44.8965 38.6764L51.4507 32.2875C51.6647 32.0768 51.8158 31.8106 51.887 31.5189C51.9582 31.2271 51.9467 30.9213 51.8539 30.6357C51.761 30.3501 51.5904 30.096 51.3612 29.9019C51.1321 29.7079 50.8534 29.5814 50.5564 29.5369L41.4945 28.2206L37.4445 20.0126C37.3131 19.7413 37.107 19.513 36.8505 19.3545Z" fill="url(#paint0_linear_1_639)" fill-opacity="0.25" shape-rendering="crispEdges"/>
<path d="M25.0582 47.6164L25.0579 47.6183C24.9927 48.0066 25.0371 48.4055 25.1861 48.77C25.3351 49.1345 25.5829 49.4502 25.9015 49.6816C26.2202 49.913 26.597 50.0509 26.9897 50.0798C27.3825 50.1088 27.7755 50.0276 28.1246 49.8454L28.1258 49.8447L36 45.7077L43.8668 49.841C44.2159 50.0251 44.6096 50.1077 45.0033 50.0796C45.3969 50.0514 45.7749 49.9136 46.0942 49.6816C46.4136 49.4497 46.6616 49.133 46.8102 48.7674C46.9588 48.4017 47.002 48.0018 46.935 47.6128L45.4337 38.851L51.7998 32.6455L51.8016 32.6438C52.0817 32.3679 52.2795 32.0194 52.3727 31.6374C52.466 31.2554 52.4509 30.855 52.3294 30.4811C52.2078 30.1072 51.9844 29.7745 51.6844 29.5204C51.3843 29.2663 51.0194 29.1008 50.6306 29.0424L50.6282 29.0421L41.8265 27.7636L37.8945 19.7947C37.8942 19.7941 37.8939 19.7935 37.8936 19.7929C37.7211 19.4374 37.4511 19.1383 37.1151 18.9303C36.865 18.773 36.5845 18.6702 36.292 18.6284C35.9987 18.5865 35.6999 18.607 35.4151 18.6884C35.1303 18.7698 34.8658 18.9104 34.639 19.101C34.4127 19.2912 34.2289 19.527 34.0996 19.7929C34.0994 19.7934 34.0991 19.7939 34.0989 19.7944L30.1667 27.7636L21.3721 29.0415C21.3714 29.0416 21.3708 29.0417 21.3701 29.0418C20.9785 29.0961 20.61 29.2593 20.3066 29.5129C20.0027 29.7668 19.7764 30.1013 19.6537 30.4778C19.5309 30.8544 19.5167 31.2579 19.6125 31.6422C19.7082 32.026 19.9099 32.3753 20.1946 32.65C20.1949 32.6503 20.1952 32.6506 20.1955 32.6509L26.5661 38.8511L25.0582 47.6164ZM36 62.5C28.9718 62.5 22.2314 59.708 17.2617 54.7383C12.292 49.7686 9.5 43.0282 9.5 36C9.5 28.9718 12.292 22.2314 17.2617 17.2617C22.2314 12.292 28.9718 9.5 36 9.5C43.0282 9.5 49.7686 12.292 54.7383 17.2617C59.708 22.2314 62.5 28.9718 62.5 36C62.5 43.0282 59.708 49.7686 54.7383 54.7383C49.7686 59.708 43.0282 62.5 36 62.5Z" stroke="url(#paint1_linear_1_639)" stroke-opacity="0.5" shape-rendering="crispEdges"/>
</g>
<defs>
<filter id="filter0_bd_1_639" x="5" y="5" width="62" height="66" filterUnits="userSpaceOnUse" color-interpolation-filters="sRGB">
<feFlood flood-opacity="0" result="BackgroundImageFix"/>
<feGaussianBlur in="BackgroundImageFix" stdDeviation="2"/>
<feComposite in2="SourceAlpha" operator="in" result="effect1_backgroundBlur_1_639"/>
<feColorMatrix in="SourceAlpha" type="matrix" values="0 0 0 0 0 0 0 0 0 0 0 0 0 0 0 0 0 0 127 0" result="hardAlpha"/>
<feOffset dy="4"/>
<feGaussianBlur stdDeviation="2"/>
<feComposite in2="hardAlpha" operator="out"/>
<feColorMatrix type="matrix" values="0 0 0 0 0 0 0 0 0 0 0 0 0 0 0 0 0 0 0.25 0"/>
<feBlend mode="normal" in2="effect1_backgroundBlur_1_639" result="effect2_dropShadow_1_639"/>
<feBlend mode="normal" in="SourceGraphic" in2="effect2_dropShadow_1_639" result="shape"/>
</filter>
<linearGradient id="paint0_linear_1_639" x1="36" y1="-5.5" x2="36" y2="63" gradientUnits="userSpaceOnUse">
<stop stop-color="#598FFF"/>
<stop offset="1" stop-color="#365699"/>
</linearGradient>
<linearGradient id="paint1_linear_1_639" x1="16.2868" y1="7.3735" x2="62.0087" y2="48.5232" gradientUnits="userSpaceOnUse">
<stop stop-color="#598FFF"/>
<stop offset="0.5" stop-color="#B3C1DE" stop-opacity="0.2"/>
<stop offset="1" stop-color="#598FFF"/>
</linearGradient>
</defs>
</svg>
