<svg width="73" height="72" viewBox="0 0 73 72" fill="none" xmlns="http://www.w3.org/2000/svg">
<g filter="url(#filter0_bd_1_325)">
<path d="M36.5 63C29.3392 63 22.4716 60.1554 17.4081 55.0919C12.3446 50.0284 9.5 43.1608 9.5 36C9.5 28.8392 12.3446 21.9716 17.4081 16.9081C22.4716 11.8446 29.3392 9 36.5 9C43.6608 9 50.5284 11.8446 55.5919 16.9081C60.6554 21.9716 63.5 28.8392 63.5 36C63.5 43.1608 60.6554 50.0284 55.5919 55.0919C50.5284 60.1554 43.6608 63 36.5 63ZM37.3505 19.3545C37.1593 19.2341 36.9449 19.1553 36.7213 19.1234C36.4976 19.0914 36.2698 19.107 36.0525 19.1691C35.8353 19.2313 35.6336 19.3385 35.4607 19.4838C35.2877 19.6292 35.1474 19.8094 35.0487 20.0126L30.9987 28.2206L21.9403 29.5369C21.6409 29.5781 21.3591 29.7027 21.1272 29.8965C20.8954 30.0903 20.7227 30.3455 20.6291 30.6328C20.5354 30.9201 20.5245 31.228 20.5976 31.5212C20.6707 31.8144 20.8249 32.0812 21.0425 32.2909L27.6035 38.6764L26.051 47.7011C26.0012 47.9977 26.0351 48.3024 26.1489 48.5808C26.2627 48.8592 26.452 49.1003 26.6953 49.277C26.9387 49.4537 27.2265 49.5591 27.5265 49.5812C27.8264 49.6033 28.1266 49.5413 28.3932 49.4021L36.5 45.1429L44.6 49.3988C44.8665 49.5393 45.1671 49.6024 45.4676 49.5809C45.7681 49.5593 46.0566 49.4541 46.3004 49.2771C46.5442 49.1 46.7335 48.8582 46.847 48.5791C46.9604 48.3 46.9934 47.9947 46.9422 47.6978L45.3965 38.6764L51.9507 32.2875C52.1647 32.0768 52.3158 31.8106 52.387 31.5189C52.4582 31.2271 52.4467 30.9213 52.3539 30.6357C52.261 30.3501 52.0904 30.096 51.8612 29.9019C51.6321 29.7079 51.3534 29.5814 51.0564 29.5369L41.9945 28.2206L37.9445 20.0126C37.8131 19.7413 37.607 19.513 37.3505 19.3545Z" fill="url(#paint0_linear_1_325)" fill-opacity="0.25" shape-rendering="crispEdges"/>
<path d="M25.5582 47.6164L25.5579 47.6183C25.4927 48.0066 25.5371 48.4055 25.6861 48.77C25.8351 49.1345 26.0829 49.4502 26.4015 49.6816C26.7202 49.913 27.097 50.0509 27.4897 50.0798C27.8825 50.1088 28.2755 50.0276 28.6246 49.8454L28.6258 49.8447L36.5 45.7077L44.3668 49.841C44.7159 50.0251 45.1096 50.1077 45.5033 50.0796C45.8969 50.0514 46.2749 49.9136 46.5942 49.6816C46.9136 49.4497 47.1616 49.133 47.3102 48.7674C47.4588 48.4017 47.502 48.0018 47.435 47.6128L45.9337 38.851L52.2998 32.6455L52.3016 32.6438C52.5817 32.3679 52.7795 32.0194 52.8727 31.6374C52.966 31.2554 52.9509 30.855 52.8294 30.4811C52.7078 30.1072 52.4844 29.7745 52.1844 29.5204C51.8843 29.2663 51.5194 29.1008 51.1306 29.0424L51.1282 29.0421L42.3265 27.7636L38.3945 19.7947C38.3942 19.7941 38.3939 19.7935 38.3936 19.7929C38.2211 19.4374 37.9511 19.1383 37.6151 18.9303C37.365 18.773 37.0845 18.6702 36.792 18.6284C36.4987 18.5865 36.1999 18.607 35.9151 18.6884C35.6303 18.7698 35.3658 18.9104 35.139 19.101C34.9127 19.2912 34.7289 19.527 34.5996 19.7929C34.5994 19.7934 34.5991 19.7939 34.5989 19.7944L30.6667 27.7636L21.8721 29.0415C21.8714 29.0416 21.8708 29.0417 21.8701 29.0418C21.4785 29.0961 21.11 29.2593 20.8066 29.5129C20.5027 29.7668 20.2764 30.1013 20.1537 30.4778C20.0309 30.8544 20.0167 31.2579 20.1125 31.6422C20.2082 32.026 20.4099 32.3753 20.6946 32.65C20.6949 32.6503 20.6952 32.6506 20.6955 32.6509L27.0661 38.8511L25.5582 47.6164ZM36.5 62.5C29.4718 62.5 22.7314 59.708 17.7617 54.7383C12.792 49.7686 10 43.0282 10 36C10 28.9718 12.792 22.2314 17.7617 17.2617C22.7314 12.292 29.4718 9.5 36.5 9.5C43.5282 9.5 50.2686 12.292 55.2383 17.2617C60.208 22.2314 63 28.9718 63 36C63 43.0282 60.208 49.7686 55.2383 54.7383C50.2686 59.708 43.5282 62.5 36.5 62.5Z" stroke="url(#paint1_linear_1_325)" stroke-opacity="0.5" shape-rendering="crispEdges"/>
</g>
<defs>
<filter id="filter0_bd_1_325" x="5.5" y="5" width="62" height="66" filterUnits="userSpaceOnUse" color-interpolation-filters="sRGB">
<feFlood flood-opacity="0" result="BackgroundImageFix"/>
<feGaussianBlur in="BackgroundImageFix" stdDeviation="2"/>
<feComposite in2="SourceAlpha" operator="in" result="effect1_backgroundBlur_1_325"/>
<feColorMatrix in="SourceAlpha" type="matrix" values="0 0 0 0 0 0 0 0 0 0 0 0 0 0 0 0 0 0 127 0" result="hardAlpha"/>
<feOffset dy="4"/>
<feGaussianBlur stdDeviation="2"/>
<feComposite in2="hardAlpha" operator="out"/>
<feColorMatrix type="matrix" values="0 0 0 0 0 0 0 0 0 0 0 0 0 0 0 0 0 0 0.25 0"/>
<feBlend mode="normal" in2="effect1_backgroundBlur_1_325" result="effect2_dropShadow_1_325"/>
<feBlend mode="normal" in="SourceGraphic" in2="effect2_dropShadow_1_325" result="shape"/>
</filter>
<linearGradient id="paint0_linear_1_325" x1="36.5" y1="-5.5" x2="36.5" y2="63" gradientUnits="userSpaceOnUse">
<stop stop-color="#598FFF"/>
<stop offset="1" stop-color="#365699"/>
</linearGradient>
<linearGradient id="paint1_linear_1_325" x1="16.7868" y1="7.3735" x2="62.5087" y2="48.5232" gradientUnits="userSpaceOnUse">
<stop stop-color="#598FFF"/>
<stop offset="0.5" stop-color="#B3C1DE" stop-opacity="0.2"/>
<stop offset="1" stop-color="#598FFF"/>
</linearGradient>
</defs>
</svg>
