<svg width="72" height="72" viewBox="0 0 72 72" fill="none" xmlns="http://www.w3.org/2000/svg">
<g filter="url(#filter0_bd_1_633)">
<path fill-rule="evenodd" clip-rule="evenodd" d="M12.5206 17.3214C11.5 18.774 11.5 23.094 11.5 31.7259V35.9757C11.5 51.1983 22.9453 58.5882 30.1273 61.7229C32.074 62.5734 33.0487 63 35.8 63C38.554 63 39.526 62.5734 41.4727 61.7229C48.6547 58.5855 60.1 51.201 60.1 35.9757V31.7259C60.1 23.0913 60.1 18.774 59.0794 17.3214C58.0615 15.8715 54.0034 14.481 45.8845 11.7027L44.3374 11.1735C40.1065 9.7236 37.9924 9 35.8 9C33.6103 9 31.4935 9.7236 27.2626 11.1735L25.7155 11.7C17.5966 14.481 13.5385 15.8715 12.5206 17.3214ZM47.815 33.165L38.635 26.28C37.8171 25.6666 36.8223 25.335 35.8 25.335C34.7777 25.335 33.7829 25.6666 32.965 26.28L23.785 33.165C23.5723 33.3246 23.393 33.5245 23.2575 33.7533C23.1221 33.9821 23.033 34.2354 22.9954 34.4986C22.9577 34.7619 22.9724 35.03 23.0384 35.2876C23.1044 35.5452 23.2204 35.7873 23.38 36C23.5396 36.2127 23.7395 36.392 23.9683 36.5275C24.1971 36.6629 24.4504 36.752 24.7136 36.7896C24.9769 36.8273 25.245 36.8126 25.5026 36.7466C25.7602 36.6806 26.0023 36.5646 26.215 36.405L35.395 29.52C35.5118 29.4324 35.6539 29.385 35.8 29.385C35.946 29.385 36.0882 29.4324 36.205 29.52L45.385 36.405C45.5977 36.5646 45.8398 36.6806 46.0974 36.7466C46.355 36.8126 46.6231 36.8273 46.8864 36.7896C47.1496 36.752 47.4029 36.6629 47.6317 36.5275C47.8605 36.392 48.0604 36.2127 48.22 36C48.3796 35.7873 48.4956 35.5452 48.5616 35.2876C48.6276 35.03 48.6423 34.7619 48.6046 34.4986C48.567 34.2354 48.4779 33.9821 48.3425 33.7533C48.207 33.5245 48.0277 33.3246 47.815 33.165ZM42.415 39.915L37.015 35.865C36.6645 35.6021 36.2381 35.46 35.8 35.46C35.3618 35.46 34.9355 35.6021 34.585 35.865L29.185 39.915C28.7553 40.2372 28.4713 40.717 28.3954 41.2486C28.3194 41.7803 28.4578 42.3204 28.78 42.75C29.1022 43.1796 29.582 43.4637 30.1136 43.5396C30.6453 43.6156 31.1853 43.4772 31.615 43.155L35.8 40.0176L39.985 43.155C40.4146 43.4772 40.9547 43.6156 41.4864 43.5396C42.018 43.4637 42.4978 43.1796 42.82 42.75C43.1422 42.3204 43.2806 41.7803 43.2046 41.2486C43.1287 40.717 42.8446 40.2372 42.415 39.915Z" fill="url(#paint0_linear_1_633)" fill-opacity="0.25" shape-rendering="crispEdges"/>
<path d="M12.9297 17.6088L12.9298 17.6087C13.1224 17.3344 13.493 17.0196 14.1211 16.6548C14.742 16.2943 15.5737 15.9078 16.6434 15.4731C18.7838 14.6032 21.8117 13.5657 25.8772 12.1731C25.8773 12.1731 25.8774 12.1731 25.8775 12.173L27.4237 11.6468L27.4247 11.6465C31.6869 10.1859 33.7128 9.5 35.8 9.5C37.8899 9.5 39.9131 10.1859 44.1753 11.6465L44.1756 11.6466L45.7226 12.1758C49.7882 13.567 52.8162 14.6039 54.9566 15.4734C56.0264 15.908 56.858 16.2944 57.4789 16.6549C58.107 17.0196 58.4776 17.3344 58.6702 17.6087L58.6703 17.6088C58.8649 17.8859 59.0397 18.3458 59.1785 19.0654C59.3157 19.7767 59.4099 20.6965 59.4732 21.8576C59.5998 24.1809 59.6 27.4022 59.6 31.7259V35.9757C59.6 50.8923 48.4008 58.1508 41.2725 61.2647L41.4727 61.7229L41.2725 61.2647C40.2918 61.6932 39.5995 61.9949 38.8149 62.1961C38.0375 62.3954 37.1505 62.5 35.8 62.5C34.4509 62.5 33.5638 62.3954 32.7861 62.196C32.0011 61.9949 31.3081 61.6931 30.3275 61.2647L30.3273 61.2646C23.1993 58.1535 12 50.8897 12 35.9757V31.7259C12 27.4036 12.0002 24.1822 12.1268 21.8586C12.1901 20.6973 12.2843 19.7773 12.4215 19.0657C12.5603 18.3459 12.7351 17.8858 12.9297 17.6088ZM48.115 32.765L38.935 25.88C38.0306 25.2017 36.9305 24.835 35.8 24.835C34.6695 24.835 33.5694 25.2017 32.665 25.88L23.485 32.765C23.2197 32.964 22.9962 33.2132 22.8273 33.4985C22.6584 33.7839 22.5473 34.0997 22.5004 34.4279C22.4535 34.7562 22.4717 35.0904 22.554 35.4117C22.6363 35.7329 22.781 36.0347 22.98 36.3C23.179 36.5653 23.4282 36.7888 23.7135 36.9577C23.9988 37.1266 24.3147 37.2377 24.6429 37.2846C24.9712 37.3315 25.3054 37.3133 25.6267 37.231C25.9479 37.1487 26.2497 37.004 26.515 36.805L35.695 29.92C35.7253 29.8973 35.7621 29.885 35.8 29.885C35.8379 29.885 35.8747 29.8973 35.905 29.92L45.085 36.805C45.3503 37.004 45.6521 37.1487 45.9733 37.231C46.2946 37.3133 46.6288 37.3315 46.9571 37.2846C47.2853 37.2377 47.6011 37.1266 47.8865 36.9577C48.1718 36.7888 48.421 36.5653 48.62 36.3C48.819 36.0347 48.9637 35.7329 49.046 35.4117C49.1283 35.0904 49.1465 34.7562 49.0996 34.4279C49.0527 34.0997 48.9416 33.7839 48.7727 33.4985C48.6038 33.2132 48.3803 32.964 48.115 32.765ZM42.715 39.515L37.315 35.465C36.8779 35.1372 36.3463 34.96 35.8 34.96C35.2537 34.96 34.7221 35.1372 34.285 35.465L28.885 39.515C28.3493 39.9168 27.9951 40.515 27.9004 41.1779C27.8057 41.8409 27.9782 42.5143 28.38 43.05C28.7818 43.5857 29.38 43.9399 30.0429 44.0346C30.7059 44.1293 31.3793 43.9568 31.915 43.555L35.8 40.6425L39.685 43.555C40.2207 43.9568 40.8941 44.1293 41.5571 44.0346C42.22 43.9399 42.8182 43.5857 43.22 43.05C43.6218 42.5143 43.7943 41.8409 43.6996 41.1779C43.6049 40.515 43.2507 39.9168 42.715 39.515Z" stroke="url(#paint1_linear_1_633)" stroke-opacity="0.5" shape-rendering="crispEdges"/>
</g>
<defs>
<filter id="filter0_bd_1_633" x="7.5" y="5" width="56.6001" height="66" filterUnits="userSpaceOnUse" color-interpolation-filters="sRGB">
<feFlood flood-opacity="0" result="BackgroundImageFix"/>
<feGaussianBlur in="BackgroundImageFix" stdDeviation="2"/>
<feComposite in2="SourceAlpha" operator="in" result="effect1_backgroundBlur_1_633"/>
<feColorMatrix in="SourceAlpha" type="matrix" values="0 0 0 0 0 0 0 0 0 0 0 0 0 0 0 0 0 0 127 0" result="hardAlpha"/>
<feOffset dy="4"/>
<feGaussianBlur stdDeviation="2"/>
<feComposite in2="hardAlpha" operator="out"/>
<feColorMatrix type="matrix" values="0 0 0 0 0 0 0 0 0 0 0 0 0 0 0 0 0 0 0.25 0"/>
<feBlend mode="normal" in2="effect1_backgroundBlur_1_633" result="effect2_dropShadow_1_633"/>
<feBlend mode="normal" in="SourceGraphic" in2="effect2_dropShadow_1_633" result="shape"/>
</filter>
<linearGradient id="paint0_linear_1_633" x1="35.8" y1="-5.5" x2="35.8" y2="63" gradientUnits="userSpaceOnUse">
<stop stop-color="#598FFF"/>
<stop offset="1" stop-color="#365699"/>
</linearGradient>
<linearGradient id="paint1_linear_1_633" x1="18.0581" y1="7.3735" x2="63.0318" y2="43.8022" gradientUnits="userSpaceOnUse">
<stop stop-color="#598FFF"/>
<stop offset="0.5" stop-color="#B3C1DE" stop-opacity="0.2"/>
<stop offset="1" stop-color="#598FFF"/>
</linearGradient>
</defs>
</svg>
