<svg width="73" height="72" viewBox="0 0 73 72" fill="none" xmlns="http://www.w3.org/2000/svg">
<g filter="url(#filter0_bd_1_319)">
<path fill-rule="evenodd" clip-rule="evenodd" d="M13.0206 17.3214C12 18.774 12 23.094 12 31.7259V35.9757C12 51.1983 23.4453 58.5882 30.6273 61.7229C32.574 62.5734 33.5487 63 36.3 63C39.054 63 40.026 62.5734 41.9727 61.7229C49.1547 58.5855 60.6 51.201 60.6 35.9757V31.7259C60.6 23.0913 60.6 18.774 59.5794 17.3214C58.5615 15.8715 54.5034 14.481 46.3845 11.7027L44.8374 11.1735C40.6065 9.7236 38.4924 9 36.3 9C34.1103 9 31.9935 9.7236 27.7626 11.1735L26.2155 11.7C18.0966 14.481 14.0385 15.8715 13.0206 17.3214ZM48.315 33.165L39.135 26.28C38.3171 25.6666 37.3223 25.335 36.3 25.335C35.2777 25.335 34.2829 25.6666 33.465 26.28L24.285 33.165C24.0723 33.3246 23.893 33.5245 23.7575 33.7533C23.6221 33.9821 23.533 34.2354 23.4954 34.4986C23.4577 34.7619 23.4724 35.03 23.5384 35.2876C23.6044 35.5452 23.7204 35.7873 23.88 36C24.0396 36.2127 24.2395 36.392 24.4683 36.5275C24.6971 36.6629 24.9504 36.752 25.2136 36.7896C25.4769 36.8273 25.745 36.8126 26.0026 36.7466C26.2602 36.6806 26.5023 36.5646 26.715 36.405L35.895 29.52C36.0118 29.4324 36.1539 29.385 36.3 29.385C36.446 29.385 36.5882 29.4324 36.705 29.52L45.885 36.405C46.0977 36.5646 46.3398 36.6806 46.5974 36.7466C46.855 36.8126 47.1231 36.8273 47.3864 36.7896C47.6496 36.752 47.9029 36.6629 48.1317 36.5275C48.3605 36.392 48.5604 36.2127 48.72 36C48.8796 35.7873 48.9956 35.5452 49.0616 35.2876C49.1276 35.03 49.1423 34.7619 49.1046 34.4986C49.067 34.2354 48.9779 33.9821 48.8425 33.7533C48.707 33.5245 48.5277 33.3246 48.315 33.165ZM42.915 39.915L37.515 35.865C37.1645 35.6021 36.7381 35.46 36.3 35.46C35.8618 35.46 35.4355 35.6021 35.085 35.865L29.685 39.915C29.2553 40.2372 28.9713 40.717 28.8954 41.2486C28.8194 41.7803 28.9578 42.3204 29.28 42.75C29.6022 43.1796 30.082 43.4637 30.6136 43.5396C31.1453 43.6156 31.6853 43.4772 32.115 43.155L36.3 40.0176L40.485 43.155C40.9146 43.4772 41.4547 43.6156 41.9864 43.5396C42.518 43.4637 42.9978 43.1796 43.32 42.75C43.6422 42.3204 43.7806 41.7803 43.7046 41.2486C43.6287 40.717 43.3446 40.2372 42.915 39.915Z" fill="url(#paint0_linear_1_319)" fill-opacity="0.25" shape-rendering="crispEdges"/>
<path d="M13.4297 17.6088L13.4298 17.6087C13.6224 17.3344 13.993 17.0196 14.6211 16.6548C15.242 16.2943 16.0737 15.9078 17.1434 15.4731C19.2838 14.6032 22.3117 13.5657 26.3772 12.1731C26.3773 12.1731 26.3774 12.1731 26.3775 12.173L27.9237 11.6468L27.9247 11.6465C32.1869 10.1859 34.2128 9.5 36.3 9.5C38.3899 9.5 40.4131 10.1859 44.6753 11.6465L44.6756 11.6466L46.2226 12.1758C50.2882 13.567 53.3162 14.6039 55.4566 15.4734C56.5264 15.908 57.358 16.2944 57.9789 16.6549C58.607 17.0196 58.9776 17.3344 59.1702 17.6087L59.1703 17.6088C59.3649 17.8859 59.5397 18.3458 59.6785 19.0654C59.8157 19.7767 59.9099 20.6965 59.9732 21.8576C60.0998 24.1809 60.1 27.4022 60.1 31.7259V35.9757C60.1 50.8923 48.9008 58.1508 41.7725 61.2647L41.9727 61.7229L41.7725 61.2647C40.7918 61.6932 40.0995 61.9949 39.3149 62.1961C38.5375 62.3954 37.6505 62.5 36.3 62.5C34.9509 62.5 34.0638 62.3954 33.2861 62.196C32.5011 61.9949 31.8081 61.6931 30.8275 61.2647L30.8273 61.2646C23.6993 58.1535 12.5 50.8897 12.5 35.9757V31.7259C12.5 27.4036 12.5002 24.1822 12.6268 21.8586C12.6901 20.6973 12.7843 19.7773 12.9215 19.0657C13.0603 18.3459 13.2351 17.8858 13.4297 17.6088ZM48.615 32.765L39.435 25.88C38.5306 25.2017 37.4305 24.835 36.3 24.835C35.1695 24.835 34.0694 25.2017 33.165 25.88L23.985 32.765C23.7197 32.964 23.4962 33.2132 23.3273 33.4985C23.1584 33.7839 23.0473 34.0997 23.0004 34.4279C22.9535 34.7562 22.9717 35.0904 23.054 35.4117C23.1363 35.7329 23.281 36.0347 23.48 36.3C23.679 36.5653 23.9282 36.7888 24.2135 36.9577C24.4988 37.1266 24.8147 37.2377 25.1429 37.2846C25.4712 37.3315 25.8054 37.3133 26.1267 37.231C26.4479 37.1487 26.7497 37.004 27.015 36.805L36.195 29.92C36.2253 29.8973 36.2621 29.885 36.3 29.885C36.3379 29.885 36.3747 29.8973 36.405 29.92L45.585 36.805C45.8503 37.004 46.1521 37.1487 46.4733 37.231C46.7946 37.3133 47.1288 37.3315 47.4571 37.2846C47.7853 37.2377 48.1011 37.1266 48.3865 36.9577C48.6718 36.7888 48.921 36.5653 49.12 36.3C49.319 36.0347 49.4637 35.7329 49.546 35.4117C49.6283 35.0904 49.6465 34.7562 49.5996 34.4279C49.5527 34.0997 49.4416 33.7839 49.2727 33.4985C49.1038 33.2132 48.8803 32.964 48.615 32.765ZM43.215 39.515L37.815 35.465C37.3779 35.1372 36.8463 34.96 36.3 34.96C35.7537 34.96 35.2221 35.1372 34.785 35.465L29.385 39.515C28.8493 39.9168 28.4951 40.515 28.4004 41.1779C28.3057 41.8409 28.4782 42.5143 28.88 43.05C29.2818 43.5857 29.88 43.9399 30.5429 44.0346C31.2059 44.1293 31.8793 43.9568 32.415 43.555L36.3 40.6425L40.185 43.555C40.7207 43.9568 41.3941 44.1293 42.0571 44.0346C42.72 43.9399 43.3182 43.5857 43.72 43.05C44.1218 42.5143 44.2943 41.8409 44.1996 41.1779C44.1049 40.515 43.7507 39.9168 43.215 39.515Z" stroke="url(#paint1_linear_1_319)" stroke-opacity="0.5" shape-rendering="crispEdges"/>
</g>
<defs>
<filter id="filter0_bd_1_319" x="8" y="5" width="56.6" height="66" filterUnits="userSpaceOnUse" color-interpolation-filters="sRGB">
<feFlood flood-opacity="0" result="BackgroundImageFix"/>
<feGaussianBlur in="BackgroundImageFix" stdDeviation="2"/>
<feComposite in2="SourceAlpha" operator="in" result="effect1_backgroundBlur_1_319"/>
<feColorMatrix in="SourceAlpha" type="matrix" values="0 0 0 0 0 0 0 0 0 0 0 0 0 0 0 0 0 0 127 0" result="hardAlpha"/>
<feOffset dy="4"/>
<feGaussianBlur stdDeviation="2"/>
<feComposite in2="hardAlpha" operator="out"/>
<feColorMatrix type="matrix" values="0 0 0 0 0 0 0 0 0 0 0 0 0 0 0 0 0 0 0.25 0"/>
<feBlend mode="normal" in2="effect1_backgroundBlur_1_319" result="effect2_dropShadow_1_319"/>
<feBlend mode="normal" in="SourceGraphic" in2="effect2_dropShadow_1_319" result="shape"/>
</filter>
<linearGradient id="paint0_linear_1_319" x1="36.3" y1="-5.5" x2="36.3" y2="63" gradientUnits="userSpaceOnUse">
<stop stop-color="#598FFF"/>
<stop offset="1" stop-color="#365699"/>
</linearGradient>
<linearGradient id="paint1_linear_1_319" x1="18.5581" y1="7.3735" x2="63.5318" y2="43.8022" gradientUnits="userSpaceOnUse">
<stop stop-color="#598FFF"/>
<stop offset="0.5" stop-color="#B3C1DE" stop-opacity="0.2"/>
<stop offset="1" stop-color="#598FFF"/>
</linearGradient>
</defs>
</svg>
